<svg width="30" height="40" viewBox="0 0 30 40" fill="none" xmlns="http://www.w3.org/2000/svg">
<path d="M15.0455 15C15.2866 15 15.5178 15.1006 15.6883 15.2796C15.8588 15.4586 15.9545 15.7014 15.9545 15.9545V18.8182H18.6818C18.9229 18.8182 19.1542 18.9188 19.3246 19.0978C19.4951 19.2768 19.5909 19.5196 19.5909 19.7727C19.5909 20.0259 19.4951 20.2687 19.3246 20.4477C19.1542 20.6267 18.9229 20.7273 18.6818 20.7273H15.9545V23.5909C15.9545 23.8441 15.8588 24.0869 15.6883 24.2659C15.5178 24.4449 15.2866 24.5455 15.0455 24.5455C14.8043 24.5455 14.5731 24.4449 14.4026 24.2659C14.2321 24.0869 14.1364 23.8441 14.1364 23.5909V20.7273H11.4091C11.168 20.7273 10.9368 20.6267 10.7663 20.4477C10.5958 20.2687 10.5 20.0259 10.5 19.7727C10.5 19.5196 10.5958 19.2768 10.7663 19.0978C10.9368 18.9188 11.168 18.8182 11.4091 18.8182H14.1364V15.9545C14.1364 15.7014 14.2321 15.4586 14.4026 15.2796C14.5731 15.1006 14.8043 15 15.0455 15Z" fill="#D9D9D9" fill-opacity="0.4"/>
<path d="M0 0H30H0ZM30 20C30 32.3159 20.016 42.3 7.7 42.3H0V37.7H10C21.0457 37.7 30 29.7754 30 20ZM0 40V0V40ZM30 0V40V0Z" fill="#D9D9D9" fill-opacity="0.4" mask="url(#path-1-inside-1_1_185)"/>
</svg>
