<svg width="20" height="13" viewBox="0 0 20 13" fill="none" xmlns="http://www.w3.org/2000/svg">
<path d="M7.13219 10.3978C7.35299 10.6348 7.4732 10.9482 7.46749 11.272C7.46177 11.5959 7.33059 11.9049 7.10156 12.1339C6.87254 12.3629 6.56357 12.4941 6.23973 12.4998C5.9159 12.5055 5.60249 12.3853 5.36553 12.1645L0.36553 7.16451C0.131445 6.93014 -3.8147e-05 6.61243 -3.8147e-05 6.28118C-3.8147e-05 5.94993 0.131445 5.63222 0.36553 5.39785L5.36553 0.397847C5.47997 0.275036 5.61797 0.176531 5.7713 0.108212C5.92463 0.0398912 6.09015 0.00315475 6.25799 0.000193596C6.42583 -0.00276756 6.59254 0.0281067 6.74819 0.0909748C6.90384 0.153844 7.04523 0.247418 7.16393 0.366117C7.28262 0.484815 7.3762 0.626204 7.43907 0.78185C7.50194 0.937497 7.53281 1.10421 7.52985 1.27205C7.52689 1.43989 7.49015 1.60541 7.42183 1.75874C7.35351 1.91208 7.25501 2.05008 7.13219 2.16451L4.26553 5.03118L17.9155 5.03118C18.247 5.03118 18.565 5.16288 18.7994 5.3973C19.0338 5.63172 19.1655 5.94966 19.1655 6.28118C19.1655 6.6127 19.0338 6.93064 18.7994 7.16506C18.565 7.39948 18.247 7.53118 17.9155 7.53118L4.26553 7.53118L7.13219 10.3978Z" fill="#D9D9D9"/>
</svg>
