<svg width="16" height="16" viewBox="0 0 16 16" fill="none" xmlns="http://www.w3.org/2000/svg">
<g id="solar:confounded-circle-outline" clip-path="url(#clip0_376_81)">
<g id="Group">
<path id="Vector" fill-rule="evenodd" clip-rule="evenodd" d="M8.00004 1.83331C6.36454 1.83331 4.79602 2.48301 3.63955 3.63949C2.48307 4.79596 1.83337 6.36448 1.83337 7.99998C1.83337 9.63548 2.48307 11.204 3.63955 12.3605C4.79602 13.5169 6.36454 14.1666 8.00004 14.1666C9.63554 14.1666 11.2041 13.5169 12.3605 12.3605C13.517 11.204 14.1667 9.63548 14.1667 7.99998C14.1667 6.36448 13.517 4.79596 12.3605 3.63949C11.2041 2.48301 9.63554 1.83331 8.00004 1.83331ZM0.833374 7.99998C0.833374 4.04198 4.04204 0.833313 8.00004 0.833313C11.958 0.833313 15.1667 4.04198 15.1667 7.99998C15.1667 11.958 11.958 15.1666 8.00004 15.1666C4.04204 15.1666 0.833374 11.958 0.833374 7.99998Z" fill="#FF2424"/>
<path id="Vector_2" fill-rule="evenodd" clip-rule="evenodd" d="M4.93337 5.7C4.97277 5.64747 5.02213 5.60322 5.07863 5.56976C5.13513 5.53631 5.19766 5.51431 5.26266 5.50503C5.32766 5.49574 5.39386 5.49935 5.45746 5.51565C5.52107 5.53194 5.58085 5.56061 5.63337 5.6L6.96671 6.6C7.02881 6.64658 7.07921 6.70697 7.11392 6.7764C7.14863 6.84582 7.16671 6.92238 7.16671 7C7.16671 7.07762 7.14863 7.15418 7.11392 7.22361C7.07921 7.29304 7.02881 7.35343 6.96671 7.4L5.63337 8.4C5.58085 8.4394 5.52107 8.46806 5.45746 8.48436C5.39386 8.50065 5.32766 8.50426 5.26266 8.49498C5.19766 8.48569 5.13513 8.46369 5.07863 8.43024C5.02213 8.39679 4.97277 8.35253 4.93337 8.3C4.89398 8.24747 4.86531 8.1877 4.84902 8.12409C4.83272 8.06049 4.82911 7.99429 4.8384 7.92929C4.84769 7.86429 4.86968 7.80175 4.90314 7.74526C4.93659 7.68876 4.98085 7.6394 5.03337 7.6L5.83337 7L5.03337 6.4C4.98085 6.36061 4.93659 6.31125 4.90314 6.25475C4.86968 6.19825 4.84769 6.13571 4.8384 6.07071C4.82911 6.00571 4.83272 5.93952 4.84902 5.87591C4.86531 5.81231 4.89398 5.75253 4.93337 5.7ZM11.0667 5.7C10.9871 5.59392 10.8687 5.52378 10.7374 5.50503C10.6061 5.48627 10.4728 5.52044 10.3667 5.6L9.03337 6.6C8.97128 6.64658 8.92087 6.70697 8.88616 6.7764C8.85145 6.84582 8.83337 6.92238 8.83337 7C8.83337 7.07762 8.85145 7.15418 8.88616 7.22361C8.92087 7.29304 8.97128 7.35343 9.03337 7.4L10.3667 8.4C10.4192 8.4394 10.479 8.46806 10.5426 8.48436C10.6062 8.50065 10.6724 8.50426 10.7374 8.49498C10.8024 8.48569 10.865 8.46369 10.9215 8.43024C10.978 8.39679 11.0273 8.35253 11.0667 8.3C11.1061 8.24747 11.1348 8.1877 11.1511 8.12409C11.1674 8.06049 11.171 7.99429 11.1617 7.92929C11.1524 7.86429 11.1304 7.80175 11.0969 7.74526C11.0635 7.68876 11.0192 7.6394 10.9667 7.6L10.1667 7L10.9667 6.4C11.0192 6.36061 11.0635 6.31125 11.0969 6.25475C11.1304 6.19825 11.1524 6.13571 11.1617 6.07071C11.171 6.00571 11.1674 5.93952 11.1511 5.87591C11.1348 5.81231 11.1061 5.75253 11.0667 5.7ZM10.3534 11.02C10.2596 11.1136 10.1325 11.1662 10 11.1662C9.86754 11.1662 9.74046 11.1136 9.64671 11.02L9.33337 10.7067L9.02004 11.02C8.92629 11.1136 8.79921 11.1662 8.66671 11.1662C8.53421 11.1662 8.40712 11.1136 8.31337 11.02L8.00004 10.7067L7.68671 11.02C7.59296 11.1136 7.46587 11.1662 7.33337 11.1662C7.20087 11.1662 7.07379 11.1136 6.98004 11.02L6.66671 10.7067L6.35337 11.02C6.25859 11.1083 6.13323 11.1564 6.00369 11.1541C5.87416 11.1518 5.75057 11.0994 5.65896 11.0077C5.56735 10.9161 5.51488 10.7926 5.51259 10.663C5.51031 10.5335 5.55839 10.4081 5.64671 10.3133L6.31337 9.64667C6.40712 9.55304 6.53421 9.50044 6.66671 9.50044C6.79921 9.50044 6.92629 9.55304 7.02004 9.64667L7.33337 9.96L7.64671 9.64667C7.74046 9.55304 7.86754 9.50044 8.00004 9.50044C8.13254 9.50044 8.25962 9.55304 8.35337 9.64667L8.66671 9.96L8.98004 9.64667C9.07379 9.55304 9.20087 9.50044 9.33337 9.50044C9.46587 9.50044 9.59296 9.55304 9.68671 9.64667L10.3534 10.3133C10.447 10.4071 10.4996 10.5342 10.4996 10.6667C10.4996 10.7992 10.447 10.9263 10.3534 11.02Z" fill="#FF2424"/>
</g>
</g>
<defs>
<clipPath id="clip0_376_81">
<rect width="16" height="16" fill="white"/>
</clipPath>
</defs>
</svg>
