<svg width="32" height="35" viewBox="0 0 32 35" fill="none" xmlns="http://www.w3.org/2000/svg">
<path d="M16 2.58334C15.2244 2.5831 14.4677 2.82341 13.8343 3.27115C13.2009 3.71889 12.7219 4.35203 12.4634 5.08334C12.349 5.39072 12.1184 5.64082 11.8213 5.77972C11.5242 5.91863 11.1844 5.93519 10.8751 5.82585C10.5659 5.71652 10.3121 5.49003 10.1683 5.19524C10.0246 4.90044 10.0024 4.56097 10.1067 4.25C10.538 3.03168 11.3362 1.97696 12.3916 1.23099C13.447 0.485018 14.7076 0.0844727 16 0.0844727C17.2924 0.0844727 18.5531 0.485018 19.6085 1.23099C20.6639 1.97696 21.4621 3.03168 21.8934 4.25C21.9976 4.56097 21.9755 4.90044 21.8317 5.19524C21.688 5.49003 21.4341 5.71652 21.1249 5.82585C20.8157 5.93519 20.4759 5.91863 20.1788 5.77972C19.8817 5.64082 19.6511 5.39072 19.5367 5.08334C19.2779 4.35216 18.7989 3.71916 18.1656 3.27145C17.5322 2.82375 16.7757 2.58335 16 2.58334ZM0.583374 8C0.583374 7.66848 0.71507 7.35054 0.94949 7.11612C1.18391 6.8817 1.50185 6.75 1.83337 6.75H30.1667C30.4982 6.75 30.8162 6.8817 31.0506 7.11612C31.285 7.35054 31.4167 7.66848 31.4167 8C31.4167 8.33152 31.285 8.64947 31.0506 8.88389C30.8162 9.11831 30.4982 9.25 30.1667 9.25H1.83337C1.50185 9.25 1.18391 9.11831 0.94949 8.88389C0.71507 8.64947 0.583374 8.33152 0.583374 8ZM5.85837 12.0833C5.83627 11.7525 5.68364 11.444 5.43406 11.2256C5.18448 11.0073 4.8584 10.8971 4.52754 10.9192C4.19668 10.9413 3.88816 11.0939 3.66983 11.3435C3.45151 11.5931 3.34127 11.9191 3.36337 12.25L4.13671 23.8367C4.27837 25.9733 4.39337 27.7 4.66337 29.0567C4.94504 30.465 5.42171 31.6417 6.40837 32.5633C7.39337 33.4867 8.60004 33.885 10.025 34.07C11.395 34.25 13.125 34.25 15.2684 34.25H16.7334C18.875 34.25 20.6067 34.25 21.9767 34.07C23.4 33.885 24.6067 33.4867 25.5934 32.5633C26.5784 31.6417 27.055 30.4633 27.3367 29.0567C27.6067 27.7 27.72 25.9733 27.8634 23.8367L28.6367 12.25C28.6588 11.9191 28.5486 11.5931 28.3302 11.3435C28.1119 11.0939 27.8034 10.9413 27.4725 10.9192C27.1417 10.8971 26.8156 11.0073 26.566 11.2256C26.3164 11.444 26.1638 11.7525 26.1417 12.0833L25.375 23.5833C25.225 25.8283 25.1184 27.3917 24.885 28.5667C24.6567 29.7083 24.34 30.3117 23.885 30.7383C23.4284 31.165 22.805 31.4417 21.6517 31.5917C20.4634 31.7467 18.8967 31.75 16.645 31.75H15.355C13.105 31.75 11.5384 31.7467 10.3484 31.5917C9.19504 31.4417 8.57171 31.165 8.11504 30.7383C7.66004 30.3117 7.34337 29.7083 7.11504 28.5667C6.88171 27.3917 6.77504 25.8283 6.62504 23.5833L5.85837 12.0833Z" fill="#D9D9D9"/>
<path d="M11.7084 15.09C12.0382 15.057 12.3675 15.1562 12.6241 15.3659C12.8807 15.5756 13.0435 15.8786 13.0768 16.2083L13.9101 24.5417C13.9345 24.8668 13.8309 25.1886 13.6214 25.4384C13.4119 25.6883 13.1131 25.8464 12.7886 25.879C12.4642 25.9116 12.1399 25.8162 11.8849 25.613C11.6298 25.4099 11.4642 25.1152 11.4234 24.7917L10.5901 16.4583C10.5571 16.1286 10.6563 15.7992 10.866 15.5427C11.0757 15.2861 11.3787 15.1233 11.7084 15.09ZM21.4101 16.4583C21.4345 16.1332 21.3309 15.8114 21.1214 15.5616C20.9119 15.3117 20.6131 15.1536 20.2886 15.121C19.9642 15.0884 19.6399 15.1838 19.3849 15.387C19.1298 15.5901 18.9642 15.8848 18.9234 16.2083L18.0901 24.5417C18.0657 24.8668 18.1693 25.1886 18.3788 25.4384C18.5883 25.6883 18.8871 25.8464 19.2115 25.879C19.536 25.9116 19.8603 25.8162 20.1153 25.613C20.3704 25.4099 20.536 25.1152 20.5768 24.7917L21.4101 16.4583Z" fill="#D9D9D9"/>
</svg>
