<svg width="36" height="36" viewBox="0 0 36 36" fill="none" xmlns="http://www.w3.org/2000/svg">
<path d="M24.7167 14.7166C24.8395 14.6022 24.938 14.4642 25.0063 14.3109C25.0747 14.1575 25.1114 13.992 25.1143 13.8242C25.1173 13.6563 25.0864 13.4896 25.0236 13.334C24.9607 13.1783 24.8671 13.0369 24.7484 12.9182C24.6297 12.7995 24.4883 12.706 24.3327 12.6431C24.177 12.5802 24.0103 12.5494 23.8425 12.5523C23.6747 12.5553 23.5091 12.592 23.3558 12.6603C23.2025 12.7287 23.0645 12.8272 22.95 12.95L15.5 20.4L13.05 17.95C12.8131 17.7292 12.4997 17.609 12.1758 17.6147C11.852 17.6204 11.543 17.7516 11.314 17.9806C11.085 18.2096 10.9538 18.5186 10.9481 18.8424C10.9424 19.1663 11.0626 19.4797 11.2834 19.7166L14.6167 23.05C14.8511 23.2841 15.1688 23.4155 15.5 23.4155C15.8313 23.4155 16.149 23.2841 16.3834 23.05L24.7167 14.7166Z" fill="#4BAB29"/>
<path fill-rule="evenodd" clip-rule="evenodd" d="M18 0.083313C8.10504 0.083313 0.083374 8.10498 0.083374 18C0.083374 27.895 8.10504 35.9166 18 35.9166C27.895 35.9166 35.9167 27.895 35.9167 18C35.9167 8.10498 27.895 0.083313 18 0.083313ZM2.58337 18C2.58337 13.9112 4.20763 9.98994 7.09881 7.09875C9.99 4.20756 13.9113 2.58331 18 2.58331C22.0888 2.58331 26.0101 4.20756 28.9013 7.09875C31.7925 9.98994 33.4167 13.9112 33.4167 18C33.4167 22.0887 31.7925 26.01 28.9013 28.9012C26.0101 31.7924 22.0888 33.4166 18 33.4166C13.9113 33.4166 9.99 31.7924 7.09881 28.9012C4.20763 26.01 2.58337 22.0887 2.58337 18Z" fill="#4BAB29"/>
</svg>
