<svg width="40" height="40" viewBox="0 0 40 40" fill="none" xmlns="http://www.w3.org/2000/svg">
<path fill-rule="evenodd" clip-rule="evenodd" d="M19.9999 2.08331C10.1049 2.08331 2.08325 10.105 2.08325 20C2.08325 29.895 10.1049 37.9166 19.9999 37.9166C29.8949 37.9166 37.9166 29.895 37.9166 20C37.9166 10.105 29.8949 2.08331 19.9999 2.08331ZM4.58325 20C4.58325 15.9112 6.2075 11.9899 9.09869 9.09875C11.9899 6.20756 15.9112 4.58331 19.9999 4.58331C24.0887 4.58331 28.01 6.20756 30.9011 9.09875C33.7923 11.9899 35.4166 15.9112 35.4166 20C35.4166 24.0887 33.7923 28.01 30.9011 30.9012C28.01 33.7924 24.0887 35.4166 19.9999 35.4166C15.9112 35.4166 11.9899 33.7924 9.09869 30.9012C6.2075 28.01 4.58325 24.0887 4.58325 20Z" fill="#D9D9D9"/>
</svg>
