<svg width="40" height="40" viewBox="0 0 40 40" fill="none" xmlns="http://www.w3.org/2000/svg">
<path d="M19.9167 2C10.0217 2 2 10.0217 2 19.9167C2 29.8117 10.0217 37.8333 19.9167 37.8333C29.8117 37.8333 37.8333 29.8117 37.8333 19.9167C37.8333 19.5851 37.7016 19.2672 37.4672 19.0328C37.2328 18.7984 36.9149 18.6667 36.5833 18.6667C36.2518 18.6667 35.9339 18.7984 35.6994 19.0328C35.465 19.2672 35.3333 19.5851 35.3333 19.9167C35.3333 22.9658 34.4292 25.9464 32.7352 28.4817C31.0411 31.017 28.6334 32.993 25.8164 34.1598C22.9993 35.3267 19.8996 35.632 16.909 35.0371C13.9185 34.4422 11.1715 32.974 9.01544 30.8179C6.85938 28.6618 5.39108 25.9148 4.79623 22.9243C4.20137 19.9338 4.50667 16.834 5.67352 14.017C6.84037 11.1999 8.81637 8.79218 11.3516 7.09818C13.8869 5.40417 16.8675 4.5 19.9167 4.5C20.2482 4.5 20.5661 4.3683 20.8005 4.13388C21.035 3.89946 21.1667 3.58152 21.1667 3.25C21.1667 2.91848 21.035 2.60054 20.8005 2.36612C20.5661 2.1317 20.2482 2 19.9167 2Z" fill="#D9D9D9"/>
<path d="M26.7688 17.1645C26.8916 17.0501 26.9901 16.9121 27.0585 16.7587C27.1268 16.6054 27.1635 16.4399 27.1665 16.2721C27.1694 16.1042 27.1386 15.9375 27.0757 15.7819C27.0128 15.6262 26.9192 15.4848 26.8005 15.3661C26.6819 15.2474 26.5405 15.1538 26.3848 15.091C26.2292 15.0281 26.0625 14.9972 25.8946 15.0002C25.7268 15.0032 25.5613 15.0399 25.4079 15.1082C25.2546 15.1765 25.1166 15.275 25.0022 15.3978L17.5522 22.8478L15.1022 20.3978C14.8652 20.177 14.5518 20.0568 14.2279 20.0626C13.9041 20.0683 13.5951 20.1995 13.3661 20.4285C13.1371 20.6575 13.0059 20.9665 13.0002 21.2903C12.9945 21.6141 13.1147 21.9276 13.3355 22.1645L16.6688 25.4978C16.9032 25.7319 17.2209 25.8634 17.5522 25.8634C17.8834 25.8634 18.2011 25.7319 18.4355 25.4978L26.7688 17.1645Z" fill="#D9D9D9"/>
</svg>
