<svg width="40" height="38" viewBox="0 0 40 38" fill="none" xmlns="http://www.w3.org/2000/svg">
<g clip-path="url(#clip0_93_83)">
<path fill-rule="evenodd" clip-rule="evenodd" d="M28.0748 25.1033C28.0566 25.0846 28.0383 25.0662 28.0199 25.048C29.8422 24.3703 31.2013 23.3928 32.1294 22.0349C32.7747 21.0906 33.1266 20.0763 33.3219 19.082C34.7644 18.9532 36.0968 18.2099 36.9747 17.5605C37.4967 17.1744 37.9924 16.7234 38.384 16.2463C38.5792 16.0083 38.7827 15.7225 38.9471 15.3984C39.0978 15.1012 39.2999 14.6084 39.2999 14C39.2999 13.4011 39.1033 12.913 38.9634 12.6258C38.8078 12.3066 38.6143 12.0192 38.4258 11.7752C38.0473 11.2856 37.5631 10.8095 37.045 10.3944C36.105 9.64128 34.5632 8.70002 32.8897 8.70002C32.8262 8.70002 32.7631 8.70124 32.7003 8.70365C32.0996 7.11901 31.188 5.67452 29.98 4.45607C27.6196 2.07526 24.2696 0.700012 20.2975 0.700012C16.3254 0.700012 12.9754 2.07526 10.615 4.45607C9.34533 5.73678 8.40305 7.26725 7.80511 8.94771C7.57854 8.9154 7.34653 8.89847 7.11015 8.89847C5.4367 8.89847 3.89487 9.83973 2.95486 10.5928C2.43672 11.008 1.95252 11.4841 1.5741 11.9737C1.38553 12.2176 1.19205 12.5051 1.03651 12.8243C0.896578 13.1115 0.699951 13.5995 0.699951 14.1984C0.699951 14.8069 0.902102 15.2997 1.0528 15.5968C1.21716 15.921 1.42066 16.2068 1.61591 16.4447C2.00743 16.9218 2.5032 17.3729 3.02518 17.759C3.99016 18.4728 5.50434 19.3 7.11015 19.3C7.21212 19.3 7.31415 19.3021 7.42437 19.3054C7.65665 20.2487 8.03572 21.1943 8.66443 22.0742C9.45644 23.1827 10.5302 24.039 11.904 24.6839C11.7891 24.8372 11.6966 24.9828 11.6223 25.1069C11.3227 25.6069 10.9827 26.3652 10.5812 27.2608C10.4681 27.5132 10.3499 27.7768 10.2265 28.0483L10.1982 28.1105L10.1736 28.1743C9.45753 30.0363 9.19323 31.8436 9.76679 33.4521C10.374 35.1552 11.7164 36.091 13.0068 36.5853C14.2509 37.0619 15.6495 37.2158 16.861 37.2739C17.7737 37.3177 18.7332 37.3104 19.5576 37.304C19.8286 37.302 20.085 37.3 20.3203 37.3C20.5554 37.3 20.8116 37.302 21.0823 37.304C21.9063 37.3104 22.8654 37.3177 23.7726 37.2739C24.9716 37.2159 26.3695 37.0625 27.5971 36.5753C28.885 36.0641 30.2221 35.076 30.714 33.2905C31.1651 31.653 30.7492 29.8574 29.9086 28.0362C29.3669 26.8623 28.7977 25.8429 28.0748 25.1033ZM31.2569 16.8007C31.2264 17.6166 31.1477 18.3802 30.9638 19.0825C30.2364 21.8611 27.8615 23.6815 20.2975 24C13.0531 23.6827 10.5893 21.8754 9.75601 19.1153C9.53452 18.3817 9.42823 17.5807 9.37798 16.7226C9.04711 17.0608 8.44778 17.0396 7.73198 17.0144C7.53268 17.0073 7.32422 17 7.11015 17L7.09111 16.9999C5.32779 16.9858 2.99995 15.0239 2.99995 14.1984C2.99995 13.37 5.3446 11.1984 7.11015 11.1984C7.14842 11.1984 7.18651 11.1993 7.2244 11.201C8.16228 11.2423 8.97612 11.7874 9.38148 12.4646C9.46233 11.5323 9.65271 10.6358 9.94647 9.79113C11.3267 5.82243 14.9895 3.00002 20.2975 3.00002C25.3974 3.00002 28.9786 5.60552 30.4758 9.32983C30.7737 10.0709 30.9891 10.8562 31.1175 11.6742C31.5775 11.2717 32.2041 11 32.8897 11C33.0375 11 33.1894 11.0152 33.3436 11.0436C35.0314 11.3542 36.9999 13.2409 36.9999 14C36.9999 14.7268 35.1953 16.3346 33.5604 16.7182C33.3317 16.7718 33.1063 16.8015 32.8897 16.8015C32.6756 16.8015 32.4673 16.8089 32.268 16.8159C31.8914 16.8292 31.5469 16.8414 31.2569 16.8007ZM27.8203 29C30.6248 35.0763 25.2516 35.0354 21.1554 35.0043H21.1542C20.8691 35.0021 20.5898 35 20.3203 35C20.0505 35 19.7712 35.0021 19.4856 35.0043C15.3873 35.0354 9.98324 35.0765 12.3203 29C12.4727 28.6648 12.609 28.3613 12.7323 28.0866C13.4503 26.4873 13.7274 25.8701 14.1641 25.7213C14.4385 25.6277 14.7758 25.719 15.3252 25.8677C16.2152 26.1086 17.6615 26.5 20.2975 26.5C21.6179 26.5 22.6262 26.3423 23.4395 26.2151C25.5226 25.8893 26.3266 25.7636 27.8203 29ZM14.1499 12.5C14.1499 11.7544 14.7543 11.15 15.4999 11.15C16.2455 11.15 16.8499 11.7544 16.8499 12.5C16.8499 13.2456 16.2455 13.85 15.4999 13.85C14.7543 13.85 14.1499 13.2456 14.1499 12.5ZM15.4999 8.85002C13.4841 8.85002 11.8499 10.4842 11.8499 12.5C11.8499 14.5158 13.4841 16.15 15.4999 16.15C17.5158 16.15 19.1499 14.5158 19.1499 12.5C19.1499 10.4842 17.5158 8.85002 15.4999 8.85002ZM24.1499 12.5C24.1499 11.7544 24.7543 11.15 25.4999 11.15C26.2455 11.15 26.8499 11.7544 26.8499 12.5C26.8499 13.2456 26.2455 13.85 25.4999 13.85C24.7543 13.85 24.1499 13.2456 24.1499 12.5ZM25.4999 8.85002C23.4841 8.85002 21.8499 10.4842 21.8499 12.5C21.8499 14.5158 23.4841 16.15 25.4999 16.15C27.5158 16.15 29.1499 14.5158 29.1499 12.5C29.1499 10.4842 27.5158 8.85002 25.4999 8.85002ZM17.9999 18.65H22.9999C23.635 18.65 24.1499 18.1351 24.1499 17.5C24.1499 16.8649 23.635 16.35 22.9999 16.35H17.9999C17.3648 16.35 16.8499 16.8649 16.8499 17.5C16.8499 18.1351 17.3648 18.65 17.9999 18.65Z" fill="#D9D9D9"/>
</g>
<defs>
<clipPath id="clip0_93_83">
<rect width="40" height="38" fill="white"/>
</clipPath>
</defs>
</svg>
