<svg width="40" height="40" viewBox="0 0 40 40" fill="none" xmlns="http://www.w3.org/2000/svg">
<g id="Frame 3">
<path id="Vector" d="M20.2473 26.1489L20.2966 26.1511L20.346 26.149C26.3065 25.898 29.5837 24.7218 31.18 22.386C31.8972 21.3367 32.1984 20.1562 32.3279 18.9645C32.5225 18.9577 32.7049 18.9516 32.8898 18.9516C34.1341 18.9516 35.405 18.2913 36.2909 17.636C36.7536 17.2937 37.1756 16.906 37.4951 16.5168C37.6545 16.3224 37.8055 16.107 37.9215 15.8783C38.0306 15.6631 38.15 15.356 38.15 15C38.15 14.6488 38.0334 14.3425 37.9296 14.1295C37.8181 13.9006 37.6721 13.6805 37.516 13.4785C37.203 13.0736 36.7868 12.661 36.326 12.2919C35.4526 11.5921 34.1679 10.85 32.8898 10.85C32.552 10.85 32.2253 10.8954 31.9153 10.9782C31.394 9.19233 30.4659 7.57946 29.1634 6.26571C27.0413 4.12525 23.9962 2.85 20.2976 2.85C16.5989 2.85 13.5539 4.12525 11.4318 6.26571C10.0406 7.66897 9.07649 9.41349 8.57903 11.3456C8.12991 11.1573 7.6333 11.0484 7.1102 11.0484C5.83209 11.0484 4.54739 11.7905 3.67396 12.4903C3.21318 12.8595 2.79695 13.2721 2.48404 13.6769C2.32791 13.8789 2.18192 14.099 2.07038 14.328C1.96663 14.5409 1.85 14.8472 1.85 15.1984C1.85 15.5544 1.96939 15.8616 2.07852 16.0768C2.19448 16.3055 2.34547 16.5209 2.50495 16.7152C2.8244 17.1045 3.24642 17.4922 3.70912 17.8344C4.59504 18.4897 5.86591 19.15 7.1102 19.15C7.30371 19.15 7.49437 19.1567 7.69929 19.1639L7.70985 19.1643C7.90979 19.1714 8.13289 19.1792 8.34721 19.1764C8.35527 19.1763 8.36341 19.1762 8.37165 19.1761C8.54778 20.312 8.89537 21.4192 9.60018 22.4057C11.2481 24.712 14.4925 25.8969 20.2473 26.1489ZM11.2735 29.5241L11.2593 29.5553L11.2471 29.5872C10.5765 31.3307 10.4087 32.828 10.85 34.0659C11.3083 35.351 12.3243 36.0924 13.4182 36.5114C14.489 36.9216 15.7408 37.0688 16.9163 37.1252C17.7937 37.1674 18.7038 37.1604 19.5219 37.1542C19.8004 37.152 20.0682 37.15 20.3204 37.15C20.5727 37.15 20.8405 37.152 21.1189 37.1542C21.9366 37.1604 22.8454 37.1673 23.7171 37.1252C24.8825 37.0689 26.1261 36.9219 27.1729 36.5064C28.25 36.0789 29.24 35.3115 29.6054 33.9851C29.9504 32.7328 29.6598 31.2412 28.8646 29.5181C28.3341 28.3687 27.8315 27.4996 27.2525 26.9071C26.6115 26.2513 25.9057 25.9625 25.113 25.9146C24.5248 25.879 23.8685 25.9827 23.2547 26.0797C23.1655 26.0938 23.0773 26.1078 22.9903 26.1211C22.2497 26.2348 21.3877 26.35 20.2976 26.35C18.5575 26.35 17.3852 26.1718 16.5693 25.9937C16.2006 25.9131 15.9003 25.8319 15.626 25.7577C15.5919 25.7485 15.5583 25.7394 15.5249 25.7304L15.5205 25.7292C15.2511 25.6566 14.9178 25.5668 14.603 25.5413C14.2354 25.5114 13.8083 25.5591 13.3951 25.8259C13.0295 26.0619 12.787 26.4007 12.6088 26.698C12.3477 27.1338 12.0492 27.7991 11.6554 28.6768C11.5372 28.9403 11.4104 29.2229 11.2735 29.5241Z" stroke="#D9D9D9" stroke-width="2.3"/>
<path id="Vector_2" d="M13 12.0474L16 12.7225M17.0225 12.9526L16 12.7225M26.0338 12L23 12.6827M22.0113 12.9052L23 12.6827M16 12.7225V14.5M23 12.6827V14.5M17.0225 19V19C17.6476 19.6395 18.5041 20 19.3984 20H19.4578C20.1376 20 20.8023 19.8 21.3691 19.4249L22.0113 19" stroke="#D9D9D9" stroke-width="2.3" stroke-linecap="round"/>
</g>
</svg>
