<svg width="0" height="0" class="hidden">
  <symbol fill="none" xmlns="http://www.w3.org/2000/svg" viewBox="0 0 40 40" id="active-goblin">
    <path fill-rule="evenodd" clip-rule="evenodd" d="M28.02 26.048C28.0383 26.0662 28.0566 26.0846 28.0748 26.1033C28.7977 26.8429 29.3669 27.8623 29.9087 29.0362C30.7492 30.8574 31.1651 32.6531 30.714 34.2906C30.2221 36.0761 28.885 37.0641 27.5971 37.5753C26.3695 38.0625 24.9717 38.2159 23.7726 38.2739C22.8654 38.3177 21.9068 38.3104 21.0828 38.3041C20.8119 38.302 20.5556 38.3 20.3204 38.3C20.085 38.3 19.8287 38.302 19.5577 38.3041C18.7333 38.3104 17.7738 38.3177 16.8611 38.2739C15.6496 38.2158 14.2509 38.0619 13.0068 37.5853C11.7164 37.091 10.374 36.1552 9.76679 34.4522C9.19323 32.8436 9.45753 31.0363 10.1737 29.1744L10.1982 29.1105L10.2265 29.0483C10.35 28.7767 10.4681 28.5133 10.5813 28.2608C10.9827 27.3652 11.3227 26.6069 11.6223 26.1069C11.6967 25.9829 11.7892 25.8372 11.904 25.6839C10.5302 25.039 9.45644 24.1827 8.66443 23.0742C8.03571 22.1943 7.65665 21.2487 7.42437 20.3054C7.31415 20.3021 7.21212 20.3 7.11015 20.3C5.50434 20.3 3.99016 19.4728 3.02518 18.759C2.5032 18.3729 2.00743 17.9218 1.61591 17.4447C1.42066 17.2068 1.21716 16.921 1.0528 16.5969C0.902102 16.2997 0.699951 15.8069 0.699951 15.1985C0.699951 14.5995 0.896578 14.1115 1.03651 13.8243C1.19204 13.5051 1.38553 13.2176 1.5741 12.9737C1.95252 12.4841 2.43672 12.008 2.95486 11.5928C3.89486 10.8397 5.4367 9.89846 7.11015 9.89846C7.34653 9.89846 7.57854 9.91539 7.80511 9.94771C8.40305 8.26725 9.34532 6.73679 10.6151 5.45606C12.9755 3.07526 16.3254 1.70001 20.2975 1.70001C24.2697 1.70001 27.6196 3.07526 29.98 5.45606C31.188 6.67451 32.0996 8.119 32.7003 9.70365C32.7631 9.70123 32.8263 9.70001 32.8898 9.70001C34.5632 9.70001 36.105 10.6413 37.045 11.3944C37.5632 11.8095 38.0474 12.2856 38.4258 12.7752C38.6144 13.0192 38.8079 13.3066 38.9634 13.6258C39.1033 13.913 39.2999 14.4011 39.2999 15C39.2999 15.6084 39.0978 16.1012 38.9471 16.3984C38.7827 16.7226 38.5792 17.0084 38.384 17.2463C37.9925 17.7234 37.4967 18.1744 36.9747 18.5605C36.0968 19.2099 34.7644 19.9532 33.322 20.082C33.1267 21.0763 32.7748 22.0906 32.1294 23.0349C31.2014 24.3928 29.8423 25.3704 28.02 26.048ZM30.9639 20.0825C31.1478 19.3802 31.2264 18.6167 31.257 17.8007C31.547 17.8414 31.8913 17.8292 32.2679 17.816C32.4673 17.8089 32.6756 17.8016 32.8898 17.8016C33.1064 17.8016 33.3317 17.7719 33.5604 17.7182C35.1954 17.3346 37 15.7268 37 15C37 14.2409 35.0314 12.3542 33.3436 12.0436C33.1894 12.0152 33.0376 12 32.8898 12C32.2042 12 31.5775 12.2717 31.1176 12.6742C30.9891 11.8562 30.7737 11.0709 30.4758 10.3298C28.9787 6.60551 25.3975 4.00001 20.2975 4.00001C14.9896 4.00001 11.3268 6.82244 9.94647 10.7911C9.65271 11.6358 9.46233 12.5323 9.38148 13.4646C8.97612 12.7874 8.16228 12.2423 7.2244 12.201C7.18651 12.1993 7.14842 12.1985 7.11015 12.1985C5.34459 12.1985 2.99995 14.37 2.99995 15.1985C2.99995 16.0239 5.32779 17.9859 7.09111 17.9999C7.09746 18 7.10381 18 7.11015 18C7.32427 18 7.53264 18.0074 7.73198 18.0144C8.44778 18.0397 9.04711 18.0608 9.37797 17.7226C9.42822 18.5808 9.53452 19.3817 9.75601 20.1153C10.5893 22.8754 13.0532 24.6828 20.2976 25C27.8615 24.6815 30.2364 22.8611 30.9639 20.0825ZM21.1554 36.0043C25.2516 36.0354 30.6248 36.0763 27.8204 30C26.3266 26.7636 25.5226 26.8893 23.4395 27.2151C22.6262 27.3423 21.618 27.5 20.2975 27.5C17.6616 27.5 16.2152 27.1086 15.3252 26.8677C14.7759 26.719 14.4385 26.6277 14.1641 26.7213C13.7274 26.8701 13.4504 27.4873 12.7323 29.0867C12.609 29.3613 12.4727 29.6649 12.3204 30C9.98324 36.0765 15.3874 36.0354 19.4856 36.0043C19.7712 36.0021 20.0505 36 20.3204 36C20.59 36 20.869 36.0021 21.1543 36.0043H21.1548H21.1554Z" fill="#D9D9D9"></path>
    <path d="M13 12.0474L16 12.7225M17.0225 12.9526L16 12.7225M26.0338 12L23 12.6827M22.0113 12.9052L23 12.6827M16 12.7225V14.5M23 12.6827V14.5M17.0225 19V19C17.6476 19.6395 18.5041 20 19.3984 20H19.4578C20.1376 20 20.8023 19.8 21.3691 19.4249L22.0113 19" stroke="#D9D9D9" stroke-width="2.3" stroke-linecap="round"></path>
  </symbol>
  <symbol fill="none" xmlns="http://www.w3.org/2000/svg" viewBox="0 0 30 40" id="add_tub">
    <path d="M15.0455 15C15.2866 15 15.5178 15.1006 15.6883 15.2796C15.8588 15.4586 15.9545 15.7014 15.9545 15.9545V18.8182H18.6818C18.9229 18.8182 19.1542 18.9188 19.3246 19.0978C19.4951 19.2768 19.5909 19.5196 19.5909 19.7727C19.5909 20.0259 19.4951 20.2687 19.3246 20.4477C19.1542 20.6267 18.9229 20.7273 18.6818 20.7273H15.9545V23.5909C15.9545 23.8441 15.8588 24.0869 15.6883 24.2659C15.5178 24.4449 15.2866 24.5455 15.0455 24.5455C14.8043 24.5455 14.5731 24.4449 14.4026 24.2659C14.2321 24.0869 14.1364 23.8441 14.1364 23.5909V20.7273H11.4091C11.168 20.7273 10.9368 20.6267 10.7663 20.4477C10.5958 20.2687 10.5 20.0259 10.5 19.7727C10.5 19.5196 10.5958 19.2768 10.7663 19.0978C10.9368 18.9188 11.168 18.8182 11.4091 18.8182H14.1364V15.9545C14.1364 15.7014 14.2321 15.4586 14.4026 15.2796C14.5731 15.1006 14.8043 15 15.0455 15Z" fill="#D9D9D9" fill-opacity="0.4"></path>
    <path d="M0 0H30H0ZM30 20C30 32.3159 20.016 42.3 7.7 42.3H0V37.7H10C21.0457 37.7 30 29.7754 30 20ZM0 40V0V40ZM30 0V40V0Z" fill="#D9D9D9" fill-opacity="0.4" mask="url(#path-1-inside-1_1_185)"></path>
  </symbol>
  <symbol fill="none" xmlns="http://www.w3.org/2000/svg" viewBox="0 0 20 13" id="arrow-left">
    <path d="M7.13219 10.3978C7.35299 10.6348 7.4732 10.9482 7.46749 11.272C7.46177 11.5959 7.33059 11.9049 7.10156 12.1339C6.87254 12.3629 6.56357 12.4941 6.23973 12.4998C5.9159 12.5055 5.60249 12.3853 5.36553 12.1645L0.36553 7.16451C0.131445 6.93014 -3.8147e-05 6.61243 -3.8147e-05 6.28118C-3.8147e-05 5.94993 0.131445 5.63222 0.36553 5.39785L5.36553 0.397847C5.47997 0.275036 5.61797 0.176531 5.7713 0.108212C5.92463 0.0398912 6.09015 0.00315475 6.25799 0.000193596C6.42583 -0.00276756 6.59254 0.0281067 6.74819 0.0909748C6.90384 0.153844 7.04523 0.247418 7.16393 0.366117C7.28262 0.484815 7.3762 0.626204 7.43907 0.78185C7.50194 0.937497 7.53281 1.10421 7.52985 1.27205C7.52689 1.43989 7.49015 1.60541 7.42183 1.75874C7.35351 1.91208 7.25501 2.05008 7.13219 2.16451L4.26553 5.03118L17.9155 5.03118C18.247 5.03118 18.565 5.16288 18.7994 5.3973C19.0338 5.63172 19.1655 5.94966 19.1655 6.28118C19.1655 6.6127 19.0338 6.93064 18.7994 7.16506C18.565 7.39948 18.247 7.53118 17.9155 7.53118L4.26553 7.53118L7.13219 10.3978Z" fill="#D9D9D9"></path>
  </symbol>
  <symbol fill="none" xmlns="http://www.w3.org/2000/svg" viewBox="0 0 16 12" id="Checkmark">
    <path d="M14.7167 2.71664C14.8395 2.6022 14.938 2.4642 15.0063 2.31087C15.0747 2.15754 15.1114 1.99201 15.1143 1.82418C15.1173 1.65634 15.0864 1.48962 15.0236 1.33398C14.9607 1.17833 14.8671 1.03694 14.7484 0.918242C14.6297 0.799544 14.4883 0.705969 14.3327 0.6431C14.177 0.580232 14.0103 0.549357 13.8425 0.552319C13.6747 0.55528 13.5091 0.592017 13.3558 0.660336C13.2025 0.728656 13.0645 0.827161 12.95 0.949972L5.50003 8.39997L3.05003 5.94997C2.81307 5.72917 2.49966 5.60897 2.17583 5.61468C1.85199 5.62039 1.54301 5.75158 1.31399 5.9806C1.08497 6.20962 0.953784 6.5186 0.948071 6.84244C0.942357 7.16627 1.06256 7.47968 1.28336 7.71664L4.6167 11.05C4.85107 11.2841 5.16878 11.4155 5.50003 11.4155C5.83128 11.4155 6.14899 11.2841 6.38336 11.05L14.7167 2.71664Z" fill="#4BAB29"></path>
  </symbol>
  <symbol fill="none" xmlns="http://www.w3.org/2000/svg" viewBox="0 0 32 35" id="delete">
    <path d="M16 2.58334C15.2244 2.5831 14.4677 2.82341 13.8343 3.27115C13.2009 3.71889 12.7219 4.35203 12.4634 5.08334C12.349 5.39072 12.1184 5.64082 11.8213 5.77972C11.5242 5.91863 11.1844 5.93519 10.8751 5.82585C10.5659 5.71652 10.3121 5.49003 10.1683 5.19524C10.0246 4.90044 10.0024 4.56097 10.1067 4.25C10.538 3.03168 11.3362 1.97696 12.3916 1.23099C13.447 0.485018 14.7076 0.0844727 16 0.0844727C17.2924 0.0844727 18.5531 0.485018 19.6085 1.23099C20.6639 1.97696 21.4621 3.03168 21.8934 4.25C21.9976 4.56097 21.9755 4.90044 21.8317 5.19524C21.688 5.49003 21.4341 5.71652 21.1249 5.82585C20.8157 5.93519 20.4759 5.91863 20.1788 5.77972C19.8817 5.64082 19.6511 5.39072 19.5367 5.08334C19.2779 4.35216 18.7989 3.71916 18.1656 3.27145C17.5322 2.82375 16.7757 2.58335 16 2.58334ZM0.583374 8C0.583374 7.66848 0.71507 7.35054 0.94949 7.11612C1.18391 6.8817 1.50185 6.75 1.83337 6.75H30.1667C30.4982 6.75 30.8162 6.8817 31.0506 7.11612C31.285 7.35054 31.4167 7.66848 31.4167 8C31.4167 8.33152 31.285 8.64947 31.0506 8.88389C30.8162 9.11831 30.4982 9.25 30.1667 9.25H1.83337C1.50185 9.25 1.18391 9.11831 0.94949 8.88389C0.71507 8.64947 0.583374 8.33152 0.583374 8ZM5.85837 12.0833C5.83627 11.7525 5.68364 11.444 5.43406 11.2256C5.18448 11.0073 4.8584 10.8971 4.52754 10.9192C4.19668 10.9413 3.88816 11.0939 3.66983 11.3435C3.45151 11.5931 3.34127 11.9191 3.36337 12.25L4.13671 23.8367C4.27837 25.9733 4.39337 27.7 4.66337 29.0567C4.94504 30.465 5.42171 31.6417 6.40837 32.5633C7.39337 33.4867 8.60004 33.885 10.025 34.07C11.395 34.25 13.125 34.25 15.2684 34.25H16.7334C18.875 34.25 20.6067 34.25 21.9767 34.07C23.4 33.885 24.6067 33.4867 25.5934 32.5633C26.5784 31.6417 27.055 30.4633 27.3367 29.0567C27.6067 27.7 27.72 25.9733 27.8634 23.8367L28.6367 12.25C28.6588 11.9191 28.5486 11.5931 28.3302 11.3435C28.1119 11.0939 27.8034 10.9413 27.4725 10.9192C27.1417 10.8971 26.8156 11.0073 26.566 11.2256C26.3164 11.444 26.1638 11.7525 26.1417 12.0833L25.375 23.5833C25.225 25.8283 25.1184 27.3917 24.885 28.5667C24.6567 29.7083 24.34 30.3117 23.885 30.7383C23.4284 31.165 22.805 31.4417 21.6517 31.5917C20.4634 31.7467 18.8967 31.75 16.645 31.75H15.355C13.105 31.75 11.5384 31.7467 10.3484 31.5917C9.19504 31.4417 8.57171 31.165 8.11504 30.7383C7.66004 30.3117 7.34337 29.7083 7.11504 28.5667C6.88171 27.3917 6.77504 25.8283 6.62504 23.5833L5.85837 12.0833Z" fill="#D9D9D9"></path>
    <path d="M11.7084 15.09C12.0382 15.057 12.3675 15.1562 12.6241 15.3659C12.8807 15.5756 13.0435 15.8786 13.0768 16.2083L13.9101 24.5417C13.9345 24.8668 13.8309 25.1886 13.6214 25.4384C13.4119 25.6883 13.1131 25.8464 12.7886 25.879C12.4642 25.9116 12.1399 25.8162 11.8849 25.613C11.6298 25.4099 11.4642 25.1152 11.4234 24.7917L10.5901 16.4583C10.5571 16.1286 10.6563 15.7992 10.866 15.5427C11.0757 15.2861 11.3787 15.1233 11.7084 15.09ZM21.4101 16.4583C21.4345 16.1332 21.3309 15.8114 21.1214 15.5616C20.9119 15.3117 20.6131 15.1536 20.2886 15.121C19.9642 15.0884 19.6399 15.1838 19.3849 15.387C19.1298 15.5901 18.9642 15.8848 18.9234 16.2083L18.0901 24.5417C18.0657 24.8668 18.1693 25.1886 18.3788 25.4384C18.5883 25.6883 18.8871 25.8464 19.2115 25.879C19.536 25.9116 19.8603 25.8162 20.1153 25.613C20.3704 25.4099 20.536 25.1152 20.5768 24.7917L21.4101 16.4583Z" fill="#D9D9D9"></path>
  </symbol>
  <symbol fill="none" xmlns="http://www.w3.org/2000/svg" viewBox="0 0 40 40" id="done">
    <path fill-rule="evenodd" clip-rule="evenodd" d="M19.9999 2.08331C10.1049 2.08331 2.08325 10.105 2.08325 20C2.08325 29.895 10.1049 37.9166 19.9999 37.9166C29.8949 37.9166 37.9166 29.895 37.9166 20C37.9166 10.105 29.8949 2.08331 19.9999 2.08331ZM4.58325 20C4.58325 15.9112 6.2075 11.9899 9.09869 9.09875C11.9899 6.20756 15.9112 4.58331 19.9999 4.58331C24.0887 4.58331 28.01 6.20756 30.9011 9.09875C33.7923 11.9899 35.4166 15.9112 35.4166 20C35.4166 24.0887 33.7923 28.01 30.9011 30.9012C28.01 33.7924 24.0887 35.4166 19.9999 35.4166C15.9112 35.4166 11.9899 33.7924 9.09869 30.9012C6.2075 28.01 4.58325 24.0887 4.58325 20Z" fill="#D9D9D9"></path>
  </symbol>
  <symbol fill="none" xmlns="http://www.w3.org/2000/svg" viewBox="0 0 36 36" id="done_checked">
    <path d="M24.7167 14.7166C24.8395 14.6022 24.938 14.4642 25.0063 14.3109C25.0747 14.1575 25.1114 13.992 25.1143 13.8242C25.1173 13.6563 25.0864 13.4896 25.0236 13.334C24.9607 13.1783 24.8671 13.0369 24.7484 12.9182C24.6297 12.7995 24.4883 12.706 24.3327 12.6431C24.177 12.5802 24.0103 12.5494 23.8425 12.5523C23.6747 12.5553 23.5091 12.592 23.3558 12.6603C23.2025 12.7287 23.0645 12.8272 22.95 12.95L15.5 20.4L13.05 17.95C12.8131 17.7292 12.4997 17.609 12.1758 17.6147C11.852 17.6204 11.543 17.7516 11.314 17.9806C11.085 18.2096 10.9538 18.5186 10.9481 18.8424C10.9424 19.1663 11.0626 19.4797 11.2834 19.7166L14.6167 23.05C14.8511 23.2841 15.1688 23.4155 15.5 23.4155C15.8313 23.4155 16.149 23.2841 16.3834 23.05L24.7167 14.7166Z" fill="#4BAB29"></path>
    <path fill-rule="evenodd" clip-rule="evenodd" d="M18 0.083313C8.10504 0.083313 0.083374 8.10498 0.083374 18C0.083374 27.895 8.10504 35.9166 18 35.9166C27.895 35.9166 35.9167 27.895 35.9167 18C35.9167 8.10498 27.895 0.083313 18 0.083313ZM2.58337 18C2.58337 13.9112 4.20763 9.98994 7.09881 7.09875C9.99 4.20756 13.9113 2.58331 18 2.58331C22.0888 2.58331 26.0101 4.20756 28.9013 7.09875C31.7925 9.98994 33.4167 13.9112 33.4167 18C33.4167 22.0887 31.7925 26.01 28.9013 28.9012C26.0101 31.7924 22.0888 33.4166 18 33.4166C13.9113 33.4166 9.99 31.7924 7.09881 28.9012C4.20763 26.01 2.58337 22.0887 2.58337 18Z" fill="#4BAB29"></path>
  </symbol>
  <symbol fill="none" xmlns="http://www.w3.org/2000/svg" viewBox="0 0 40 40" id="edit">
    <path fill-rule="evenodd" clip-rule="evenodd" d="M2.08337 20C2.08337 10.105 10.105 2.08331 20 2.08331C20.3316 2.08331 20.6495 2.21501 20.8839 2.44943C21.1183 2.68385 21.25 3.00179 21.25 3.33331C21.25 3.66483 21.1183 3.98278 20.8839 4.2172C20.6495 4.45162 20.3316 4.58331 20 4.58331C16.9509 4.58331 13.9703 5.48748 11.435 7.18149C8.89974 8.87549 6.92375 11.2832 5.7569 14.1003C4.59005 16.9173 4.28475 20.0171 4.8796 23.0076C5.47446 25.9982 6.94275 28.7451 9.09881 30.9012C11.2549 33.0573 14.0019 34.5256 16.9924 35.1204C19.9829 35.7153 23.0827 35.41 25.8997 34.2431C28.7168 33.0763 31.1245 31.1003 32.8185 28.565C34.5125 26.0298 35.4167 23.0491 35.4167 20C35.4167 19.6685 35.5484 19.3505 35.7828 19.1161C36.0172 18.8817 36.3352 18.75 36.6667 18.75C36.9982 18.75 37.3162 18.8817 37.5506 19.1161C37.785 19.3505 37.9167 19.6685 37.9167 20C37.9167 29.895 29.895 37.9166 20 37.9166C10.105 37.9166 2.08337 29.895 2.08337 20ZM27.95 3.79331C29.0499 2.72373 30.5266 2.13006 32.0608 2.14069C33.5949 2.15133 35.0633 2.76541 36.1482 3.85014C37.2332 4.93488 37.8476 6.40308 37.8585 7.93724C37.8694 9.4714 37.2761 10.9482 36.2067 12.0483L25.1267 23.13C24.5084 23.7466 24.12 24.1366 23.6884 24.4733C23.1786 24.8709 22.627 25.2118 22.0434 25.49C21.5484 25.725 21.0267 25.8983 20.1984 26.175L15.3567 27.7883C14.9187 27.9342 14.4487 27.9553 13.9993 27.8491C13.55 27.743 13.1391 27.5139 12.8126 27.1874C12.4862 26.8609 12.257 26.45 12.1509 26.0007C12.0448 25.5514 12.0658 25.0814 12.2117 24.6433L13.825 19.8016C14.1017 18.9716 14.275 18.4516 14.51 17.9566C14.7884 17.3733 15.13 16.8233 15.5267 16.3116C15.8634 15.8783 16.2517 15.4916 16.87 14.8733L27.95 3.79331ZM34.4384 5.55998C33.8124 4.93426 32.9635 4.58276 32.0784 4.58276C31.1933 4.58276 30.3444 4.93426 29.7184 5.55998L29.0917 6.18831C29.1284 6.34831 29.1817 6.53831 29.255 6.75165C29.4934 7.43998 29.9467 8.34665 30.8 9.19998C31.6297 10.0329 32.671 10.6236 33.8117 10.9083L34.4384 10.2816C35.0641 9.65563 35.4156 8.80675 35.4156 7.92165C35.4156 7.03654 35.0641 6.18599 34.4384 5.55998ZM31.8417 12.8783C30.7922 12.4259 29.8385 11.7777 29.0317 10.9683C28.2222 10.1615 27.574 9.20785 27.1217 8.15831L18.695 16.5833C18.0017 17.2783 17.7284 17.5533 17.4984 17.85C17.2122 18.2167 16.9669 18.6135 16.7667 19.0333C16.605 19.3716 16.4817 19.7383 16.17 20.67L15.4517 22.8283L17.1717 24.55L19.33 23.83C20.2634 23.5183 20.6284 23.395 20.9684 23.2333C21.3867 23.0333 21.785 22.7883 22.1517 22.5016C22.4467 22.27 22.7217 21.9983 23.4167 21.305L31.8417 12.8783Z" fill="#D9D9D9"></path>
  </symbol>
  <symbol fill="none" xmlns="http://www.w3.org/2000/svg" viewBox="0 0 40 40" id="edit-button_active">
    <path d="M19.9167 2C10.0217 2 2 10.0217 2 19.9167C2 29.8117 10.0217 37.8333 19.9167 37.8333C29.8117 37.8333 37.8333 29.8117 37.8333 19.9167C37.8333 19.5851 37.7016 19.2672 37.4672 19.0328C37.2328 18.7984 36.9149 18.6667 36.5833 18.6667C36.2518 18.6667 35.9339 18.7984 35.6994 19.0328C35.465 19.2672 35.3333 19.5851 35.3333 19.9167C35.3333 22.9658 34.4292 25.9464 32.7352 28.4817C31.0411 31.017 28.6334 32.993 25.8164 34.1598C22.9993 35.3267 19.8996 35.632 16.909 35.0371C13.9185 34.4422 11.1715 32.974 9.01544 30.8179C6.85938 28.6618 5.39108 25.9148 4.79623 22.9243C4.20137 19.9338 4.50667 16.834 5.67352 14.017C6.84037 11.1999 8.81637 8.79218 11.3516 7.09818C13.8869 5.40417 16.8675 4.5 19.9167 4.5C20.2482 4.5 20.5661 4.3683 20.8005 4.13388C21.035 3.89946 21.1667 3.58152 21.1667 3.25C21.1667 2.91848 21.035 2.60054 20.8005 2.36612C20.5661 2.1317 20.2482 2 19.9167 2Z" fill="#D9D9D9"></path>
    <path d="M26.7688 17.1645C26.8916 17.0501 26.9901 16.9121 27.0585 16.7587C27.1268 16.6054 27.1635 16.4399 27.1665 16.2721C27.1694 16.1042 27.1386 15.9375 27.0757 15.7819C27.0128 15.6262 26.9192 15.4848 26.8005 15.3661C26.6819 15.2474 26.5405 15.1538 26.3848 15.091C26.2292 15.0281 26.0625 14.9972 25.8946 15.0002C25.7268 15.0032 25.5613 15.0399 25.4079 15.1082C25.2546 15.1765 25.1166 15.275 25.0022 15.3978L17.5522 22.8478L15.1022 20.3978C14.8652 20.177 14.5518 20.0568 14.2279 20.0626C13.9041 20.0683 13.5951 20.1995 13.3661 20.4285C13.1371 20.6575 13.0059 20.9665 13.0002 21.2903C12.9945 21.6141 13.1147 21.9276 13.3355 22.1645L16.6688 25.4978C16.9032 25.7319 17.2209 25.8634 17.5522 25.8634C17.8834 25.8634 18.2011 25.7319 18.4355 25.4978L26.7688 17.1645Z" fill="#D9D9D9"></path>
  </symbol>
  <symbol fill="none" xmlns="http://www.w3.org/2000/svg" viewBox="0 0 40 38" id="goblin">
    <g clip-path="url(#clip0_93_83)">
      <path fill-rule="evenodd" clip-rule="evenodd" d="M28.0748 25.1033C28.0566 25.0846 28.0383 25.0662 28.0199 25.048C29.8422 24.3703 31.2013 23.3928 32.1294 22.0349C32.7747 21.0906 33.1266 20.0763 33.3219 19.082C34.7644 18.9532 36.0968 18.2099 36.9747 17.5605C37.4967 17.1744 37.9924 16.7234 38.384 16.2463C38.5792 16.0083 38.7827 15.7225 38.9471 15.3984C39.0978 15.1012 39.2999 14.6084 39.2999 14C39.2999 13.4011 39.1033 12.913 38.9634 12.6258C38.8078 12.3066 38.6143 12.0192 38.4258 11.7752C38.0473 11.2856 37.5631 10.8095 37.045 10.3944C36.105 9.64128 34.5632 8.70002 32.8897 8.70002C32.8262 8.70002 32.7631 8.70124 32.7003 8.70365C32.0996 7.11901 31.188 5.67452 29.98 4.45607C27.6196 2.07526 24.2696 0.700012 20.2975 0.700012C16.3254 0.700012 12.9754 2.07526 10.615 4.45607C9.34533 5.73678 8.40305 7.26725 7.80511 8.94771C7.57854 8.9154 7.34653 8.89847 7.11015 8.89847C5.4367 8.89847 3.89487 9.83973 2.95486 10.5928C2.43672 11.008 1.95252 11.4841 1.5741 11.9737C1.38553 12.2176 1.19205 12.5051 1.03651 12.8243C0.896578 13.1115 0.699951 13.5995 0.699951 14.1984C0.699951 14.8069 0.902102 15.2997 1.0528 15.5968C1.21716 15.921 1.42066 16.2068 1.61591 16.4447C2.00743 16.9218 2.5032 17.3729 3.02518 17.759C3.99016 18.4728 5.50434 19.3 7.11015 19.3C7.21212 19.3 7.31415 19.3021 7.42437 19.3054C7.65665 20.2487 8.03572 21.1943 8.66443 22.0742C9.45644 23.1827 10.5302 24.039 11.904 24.6839C11.7891 24.8372 11.6966 24.9828 11.6223 25.1069C11.3227 25.6069 10.9827 26.3652 10.5812 27.2608C10.4681 27.5132 10.3499 27.7768 10.2265 28.0483L10.1982 28.1105L10.1736 28.1743C9.45753 30.0363 9.19323 31.8436 9.76679 33.4521C10.374 35.1552 11.7164 36.091 13.0068 36.5853C14.2509 37.0619 15.6495 37.2158 16.861 37.2739C17.7737 37.3177 18.7332 37.3104 19.5576 37.304C19.8286 37.302 20.085 37.3 20.3203 37.3C20.5554 37.3 20.8116 37.302 21.0823 37.304C21.9063 37.3104 22.8654 37.3177 23.7726 37.2739C24.9716 37.2159 26.3695 37.0625 27.5971 36.5753C28.885 36.0641 30.2221 35.076 30.714 33.2905C31.1651 31.653 30.7492 29.8574 29.9086 28.0362C29.3669 26.8623 28.7977 25.8429 28.0748 25.1033ZM31.2569 16.8007C31.2264 17.6166 31.1477 18.3802 30.9638 19.0825C30.2364 21.8611 27.8615 23.6815 20.2975 24C13.0531 23.6827 10.5893 21.8754 9.75601 19.1153C9.53452 18.3817 9.42823 17.5807 9.37798 16.7226C9.04711 17.0608 8.44778 17.0396 7.73198 17.0144C7.53268 17.0073 7.32422 17 7.11015 17L7.09111 16.9999C5.32779 16.9858 2.99995 15.0239 2.99995 14.1984C2.99995 13.37 5.3446 11.1984 7.11015 11.1984C7.14842 11.1984 7.18651 11.1993 7.2244 11.201C8.16228 11.2423 8.97612 11.7874 9.38148 12.4646C9.46233 11.5323 9.65271 10.6358 9.94647 9.79113C11.3267 5.82243 14.9895 3.00002 20.2975 3.00002C25.3974 3.00002 28.9786 5.60552 30.4758 9.32983C30.7737 10.0709 30.9891 10.8562 31.1175 11.6742C31.5775 11.2717 32.2041 11 32.8897 11C33.0375 11 33.1894 11.0152 33.3436 11.0436C35.0314 11.3542 36.9999 13.2409 36.9999 14C36.9999 14.7268 35.1953 16.3346 33.5604 16.7182C33.3317 16.7718 33.1063 16.8015 32.8897 16.8015C32.6756 16.8015 32.4673 16.8089 32.268 16.8159C31.8914 16.8292 31.5469 16.8414 31.2569 16.8007ZM27.8203 29C30.6248 35.0763 25.2516 35.0354 21.1554 35.0043H21.1542C20.8691 35.0021 20.5898 35 20.3203 35C20.0505 35 19.7712 35.0021 19.4856 35.0043C15.3873 35.0354 9.98324 35.0765 12.3203 29C12.4727 28.6648 12.609 28.3613 12.7323 28.0866C13.4503 26.4873 13.7274 25.8701 14.1641 25.7213C14.4385 25.6277 14.7758 25.719 15.3252 25.8677C16.2152 26.1086 17.6615 26.5 20.2975 26.5C21.6179 26.5 22.6262 26.3423 23.4395 26.2151C25.5226 25.8893 26.3266 25.7636 27.8203 29ZM14.1499 12.5C14.1499 11.7544 14.7543 11.15 15.4999 11.15C16.2455 11.15 16.8499 11.7544 16.8499 12.5C16.8499 13.2456 16.2455 13.85 15.4999 13.85C14.7543 13.85 14.1499 13.2456 14.1499 12.5ZM15.4999 8.85002C13.4841 8.85002 11.8499 10.4842 11.8499 12.5C11.8499 14.5158 13.4841 16.15 15.4999 16.15C17.5158 16.15 19.1499 14.5158 19.1499 12.5C19.1499 10.4842 17.5158 8.85002 15.4999 8.85002ZM24.1499 12.5C24.1499 11.7544 24.7543 11.15 25.4999 11.15C26.2455 11.15 26.8499 11.7544 26.8499 12.5C26.8499 13.2456 26.2455 13.85 25.4999 13.85C24.7543 13.85 24.1499 13.2456 24.1499 12.5ZM25.4999 8.85002C23.4841 8.85002 21.8499 10.4842 21.8499 12.5C21.8499 14.5158 23.4841 16.15 25.4999 16.15C27.5158 16.15 29.1499 14.5158 29.1499 12.5C29.1499 10.4842 27.5158 8.85002 25.4999 8.85002ZM17.9999 18.65H22.9999C23.635 18.65 24.1499 18.1351 24.1499 17.5C24.1499 16.8649 23.635 16.35 22.9999 16.35H17.9999C17.3648 16.35 16.8499 16.8649 16.8499 17.5C16.8499 18.1351 17.3648 18.65 17.9999 18.65Z" fill="#D9D9D9"></path>
    </g>
    <defs>
      <clipPath id="clip0_93_83">
        <rect width="40" height="38" fill="white"></rect>
      </clipPath>
    </defs>
  </symbol>
  <symbol fill="none" xmlns="http://www.w3.org/2000/svg" viewBox="0 0 40 40" id="important">
    <path d="M18 8.41663C18.3316 8.41663 18.6495 8.54832 18.8839 8.78274C19.1183 9.01716 19.25 9.33511 19.25 9.66663V19.6666C19.25 19.9981 19.1183 20.3161 18.8839 20.5505C18.6495 20.7849 18.3316 20.9166 18 20.9166C17.6685 20.9166 17.3506 20.7849 17.1162 20.5505C16.8817 20.3161 16.75 19.9981 16.75 19.6666V9.66663C16.75 9.33511 16.8817 9.01716 17.1162 8.78274C17.3506 8.54832 17.6685 8.41663 18 8.41663ZM18 26.3333C18.4421 26.3333 18.866 26.1577 19.1786 25.8451C19.4911 25.5326 19.6667 25.1087 19.6667 24.6666C19.6667 24.2246 19.4911 23.8007 19.1786 23.4881C18.866 23.1756 18.4421 23 18 23C17.558 23 17.1341 23.1756 16.8215 23.4881C16.509 23.8007 16.3334 24.2246 16.3334 24.6666C16.3334 25.1087 16.509 25.5326 16.8215 25.8451C17.1341 26.1577 17.558 26.3333 18 26.3333Z" fill="#FF2424"></path>
    <path fill-rule="evenodd" clip-rule="evenodd" d="M0.083374 18C0.083374 8.10498 8.10504 0.083313 18 0.083313C27.895 0.083313 35.9167 8.10498 35.9167 18C35.9167 27.895 27.895 35.9166 18 35.9166C8.10504 35.9166 0.083374 27.895 0.083374 18ZM18 2.58331C13.9113 2.58331 9.99 4.20756 7.09881 7.09875C4.20763 9.98994 2.58337 13.9112 2.58337 18C2.58337 22.0887 4.20763 26.01 7.09881 28.9012C9.99 31.7924 13.9113 33.4166 18 33.4166C22.0888 33.4166 26.0101 31.7924 28.9013 28.9012C31.7925 26.01 33.4167 22.0887 33.4167 18C33.4167 13.9112 31.7925 9.98994 28.9013 7.09875C26.0101 4.20756 22.0888 2.58331 18 2.58331Z" fill="#FF2424"></path>
  </symbol>
  <symbol fill="none" xmlns="http://www.w3.org/2000/svg" viewBox="0 0 36 36" id="sticker">
    <path fill-rule="evenodd" clip-rule="evenodd" d="M18 2.58333C14.0179 2.5809 10.1894 4.11939 7.31621 6.87656C4.44305 9.63373 2.7482 13.3957 2.58663 17.3745C2.42507 21.3533 3.80933 25.2403 6.44947 28.2213C9.08962 31.2024 12.7808 33.0462 16.75 33.3667C16.7533 29.605 16.8067 27.3117 17.475 25.4C18.1159 23.5686 19.1612 21.9052 20.5332 20.5332C21.9052 19.1612 23.5686 18.1159 25.4 17.475C27.3117 16.8067 29.605 16.7533 33.3667 16.75C33.0527 12.8902 31.2976 9.29002 28.4504 6.66518C25.6033 4.04034 21.8725 2.58314 18 2.58333ZM33.0667 19.2517C29.42 19.2617 27.6517 19.335 26.2267 19.835C24.7496 20.3518 23.408 21.1949 22.3014 22.3014C21.1949 23.408 20.3519 24.7496 19.835 26.2267C19.335 27.6517 19.2617 29.42 19.2517 33.0667C19.5017 32.925 19.7417 32.7417 19.9633 32.52L32.52 19.9633C32.7417 19.7417 32.925 19.5017 33.0667 19.2517ZM0.0833435 18C0.0833435 8.105 8.10501 0.0833282 18 0.0833282C27.895 0.0833282 35.9167 8.105 35.9167 18C35.9167 19.4733 35.2367 20.7817 34.2883 21.7317L21.7317 34.2883C20.7817 35.2383 19.4733 35.9167 18 35.9167C8.10501 35.9167 0.0833435 27.895 0.0833435 18Z" fill="#D9D9D9" fill-opacity="0.4"></path>
  </symbol>
  <symbol fill="none" xmlns="http://www.w3.org/2000/svg" viewBox="0 0 20 13" id="submit_arrow">
    <path d="M12.0333 2.10215C11.8125 1.8652 11.6923 1.55179 11.698 1.22795C11.7038 0.904115 11.8349 0.59514 12.064 0.366118C12.293 0.137096 12.602 0.00590844 12.9258 0.000194743C13.2496 -0.00551895 13.563 0.114688 13.8 0.335488L18.8 5.33549C19.0341 5.56986 19.1656 5.88757 19.1656 6.21882C19.1656 6.55007 19.0341 6.86778 18.8 7.10215L13.8 12.1022C13.6856 12.225 13.5476 12.3235 13.3942 12.3918C13.2409 12.4601 13.0754 12.4968 12.9075 12.4998C12.7397 12.5028 12.573 12.4719 12.4173 12.409C12.2617 12.3462 12.1203 12.2526 12.0016 12.1339C11.8829 12.0152 11.7893 11.8738 11.7265 11.7182C11.6636 11.5625 11.6327 11.3958 11.6357 11.228C11.6386 11.0601 11.6754 10.8946 11.7437 10.7413C11.812 10.5879 11.9105 10.4499 12.0333 10.3355L14.9 7.46882H1.25C0.918479 7.46882 0.600537 7.33712 0.366116 7.1027C0.131696 6.86828 0 6.55034 0 6.21882C0 5.8873 0.131696 5.56936 0.366116 5.33494C0.600537 5.10052 0.918479 4.96882 1.25 4.96882H14.9L12.0333 2.10215Z" fill="#D9D9D9"></path>
  </symbol>
  <symbol fill="none" xmlns="http://www.w3.org/2000/svg" viewBox="0 0 19 37" id="submit_button">
    <path d="M0.583374 35.3333C9.78812 35.3333 17.25 27.8714 17.25 18.6667C17.25 9.46192 9.78812 2 0.583374 2" stroke="#D9D9D9" stroke-width="2.5"></path>
  </symbol>
  <symbol fill="none" xmlns="http://www.w3.org/2000/svg" viewBox="0 0 20 13" id="submit-arrow">
    <path d="M12.0333 2.10215C11.8125 1.8652 11.6923 1.55179 11.698 1.22795C11.7038 0.904115 11.8349 0.59514 12.064 0.366118C12.293 0.137096 12.602 0.00590844 12.9258 0.000194743C13.2496 -0.00551895 13.563 0.114688 13.8 0.335488L18.8 5.33549C19.0341 5.56986 19.1656 5.88757 19.1656 6.21882C19.1656 6.55007 19.0341 6.86778 18.8 7.10215L13.8 12.1022C13.6856 12.225 13.5476 12.3235 13.3942 12.3918C13.2409 12.4601 13.0754 12.4968 12.9075 12.4998C12.7397 12.5028 12.573 12.4719 12.4173 12.409C12.2617 12.3462 12.1203 12.2526 12.0016 12.1339C11.8829 12.0152 11.7893 11.8738 11.7265 11.7182C11.6636 11.5625 11.6327 11.3958 11.6357 11.228C11.6386 11.0601 11.6754 10.8946 11.7437 10.7413C11.812 10.5879 11.9105 10.4499 12.0333 10.3355L14.9 7.46882H1.25C0.918479 7.46882 0.600537 7.33712 0.366116 7.1027C0.131696 6.86828 0 6.55034 0 6.21882C0 5.8873 0.131696 5.56936 0.366116 5.33494C0.600537 5.10052 0.918479 4.96882 1.25 4.96882H14.9L12.0333 2.10215Z" fill="#D9D9D9"></path>
  </symbol>
  <symbol fill="none" xmlns="http://www.w3.org/2000/svg" viewBox="0 0 19 37" id="submit-button">
    <path d="M0.583374 35.3333C9.78812 35.3333 17.25 27.8714 17.25 18.6667C17.25 9.46192 9.78812 2 0.583374 2" stroke="#D9D9D9" stroke-width="2.5"></path>
  </symbol>
  <symbol fill="none" xmlns="http://www.w3.org/2000/svg" viewBox="0 0 40 40" id="timer-active">
    <path fill-rule="evenodd" clip-rule="evenodd" d="M20 36.6667C28.06 36.6667 34.595 30.1934 34.595 22.2084C34.595 14.225 28.0617 7.75169 20 7.75169C11.94 7.75169 5.405 14.2234 5.405 22.2084C5.405 30.1934 11.9383 36.6667 20 36.6667ZM20 14.5784C20.6717 14.5784 21.2167 15.1184 21.2167 15.7834V21.71L24.9133 25.3734C25.0261 25.4847 25.1157 25.6173 25.1768 25.7635C25.2379 25.9097 25.2694 26.0666 25.2694 26.225C25.2694 26.3835 25.2379 26.5404 25.1768 26.6866C25.1157 26.8328 25.0261 26.9654 24.9133 27.0767C24.6841 27.3026 24.3752 27.4293 24.0533 27.4293C23.7315 27.4293 23.4225 27.3026 23.1933 27.0767L19.14 23.06C19.0275 22.9488 18.938 22.8165 18.8768 22.6706C18.8156 22.5248 18.7838 22.3682 18.7833 22.21V15.7834C18.7833 15.1167 19.3283 14.5784 20 14.5784ZM13.7333 3.90002C13.8179 4.03414 13.8749 4.1837 13.9012 4.34003C13.9275 4.49636 13.9226 4.65636 13.8866 4.81075C13.8506 4.96515 13.7844 5.11088 13.6917 5.23949C13.599 5.36811 13.4818 5.47705 13.3467 5.56002L6.86167 9.57669C6.58799 9.74629 6.25847 9.80117 5.9446 9.72941C5.63072 9.65765 5.35779 9.46504 5.185 9.19335C5.10048 9.05923 5.04342 8.90968 5.01711 8.75334C4.9908 8.59701 4.99577 8.43701 5.03173 8.28262C5.0677 8.12822 5.13394 7.9825 5.22662 7.85388C5.3193 7.72527 5.43658 7.61632 5.57167 7.53335L12.0583 3.51669C12.332 3.34708 12.6615 3.29221 12.9754 3.36397C13.2893 3.43573 13.5622 3.62834 13.735 3.90002H13.7333ZM26.2667 3.90002C26.4394 3.62879 26.7121 3.43651 27.0255 3.36477C27.339 3.29302 27.6681 3.3476 27.9417 3.51669L34.4283 7.53335C34.5634 7.61632 34.6807 7.72527 34.7734 7.85388C34.8661 7.9825 34.9323 8.12822 34.9683 8.28262C35.0042 8.43701 35.0092 8.59701 34.9829 8.75334C34.9566 8.90968 34.8995 9.05923 34.815 9.19335C34.6422 9.46504 34.3693 9.65765 34.0554 9.72941C33.7415 9.80117 33.412 9.74629 33.1383 9.57669L26.6533 5.56002C26.5181 5.47719 26.4007 5.36834 26.3078 5.23979C26.215 5.11124 26.1486 4.96553 26.1125 4.81113C26.0763 4.65672 26.0712 4.49668 26.0974 4.34028C26.1236 4.18389 26.1806 4.03424 26.265 3.90002H26.2667Z" fill="#DF7F49"></path>
  </symbol>
  <symbol fill="none" xmlns="http://www.w3.org/2000/svg" viewBox="0 0 40 40" id="timer-inactive">
    <path fill-rule="evenodd" clip-rule="evenodd" d="M13.56 2.67167C13.7355 2.95263 13.7923 3.29177 13.718 3.61459C13.6436 3.93741 13.4441 4.2175 13.1633 4.39334L6.49667 8.56C6.21554 8.73593 5.87604 8.79297 5.55285 8.71858C5.22966 8.64419 4.94926 8.44446 4.77333 8.16333C4.59741 7.88221 4.54036 7.5427 4.61475 7.21952C4.68914 6.89633 4.88887 6.61593 5.17 6.44L11.8367 2.27334C11.976 2.18624 12.131 2.12746 12.2931 2.10034C12.4551 2.07322 12.6208 2.07831 12.7809 2.1153C12.9409 2.1523 13.0921 2.22048 13.2258 2.31594C13.3595 2.41141 13.4731 2.53229 13.56 2.67167ZM26.44 2.67167C26.5269 2.53229 26.6405 2.41141 26.7742 2.31594C26.9079 2.22048 27.059 2.1523 27.2191 2.1153C27.3792 2.07831 27.5449 2.07322 27.7069 2.10034C27.869 2.12746 28.024 2.18624 28.1633 2.27334L34.83 6.44C35.1111 6.61593 35.3109 6.89633 35.3852 7.21952C35.4596 7.5427 35.4026 7.88221 35.2267 8.16333C35.0507 8.44446 34.7703 8.64419 34.4472 8.71858C34.124 8.79297 33.7845 8.73593 33.5033 8.56L26.8367 4.39334C26.5559 4.2175 26.3564 3.93741 26.282 3.61459C26.2077 3.29177 26.2645 2.95263 26.44 2.67167ZM20 7.91667C16.3533 7.91667 12.8559 9.36532 10.2773 11.9439C7.69866 14.5226 6.25 18.0199 6.25 21.6667C6.25 25.3134 7.69866 28.8108 10.2773 31.3894C12.8559 33.968 16.3533 35.4167 20 35.4167C23.6467 35.4167 27.1441 33.968 29.7227 31.3894C32.3013 28.8108 33.75 25.3134 33.75 21.6667C33.75 18.0199 32.3013 14.5226 29.7227 11.9439C27.1441 9.36532 23.6467 7.91667 20 7.91667ZM3.75 21.6667C3.75 12.6917 11.025 5.41667 20 5.41667C28.975 5.41667 36.25 12.6917 36.25 21.6667C36.25 30.6417 28.975 37.9167 20 37.9167C11.025 37.9167 3.75 30.6417 3.75 21.6667ZM20 15.4167C20.3315 15.4167 20.6495 15.5484 20.8839 15.7828C21.1183 16.0172 21.25 16.3351 21.25 16.6667V20.4167H25C25.3315 20.4167 25.6495 20.5484 25.8839 20.7828C26.1183 21.0172 26.25 21.3351 26.25 21.6667C26.25 21.9982 26.1183 22.3161 25.8839 22.5506C25.6495 22.785 25.3315 22.9167 25 22.9167H21.25V26.6667C21.25 26.9982 21.1183 27.3161 20.8839 27.5506C20.6495 27.785 20.3315 27.9167 20 27.9167C19.6685 27.9167 19.3505 27.785 19.1161 27.5506C18.8817 27.3161 18.75 26.9982 18.75 26.6667V22.9167H15C14.6685 22.9167 14.3505 22.785 14.1161 22.5506C13.8817 22.3161 13.75 21.9982 13.75 21.6667C13.75 21.3351 13.8817 21.0172 14.1161 20.7828C14.3505 20.5484 14.6685 20.4167 15 20.4167H18.75V16.6667C18.75 16.3351 18.8817 16.0172 19.1161 15.7828C19.3505 15.5484 19.6685 15.4167 20 15.4167Z" fill="#DF7F49"></path>
  </symbol>
  <symbol fill="none" xmlns="http://www.w3.org/2000/svg" viewBox="0 0 40 40" id="to light-theme_active">
    <path d="M30 20C30 22.6522 28.9464 25.1957 27.0711 27.0711C25.1957 28.9464 22.6522 30 20 30C17.3478 30 14.8043 28.9464 12.9289 27.0711C11.0536 25.1957 10 22.6522 10 20C10 17.3478 11.0536 14.8043 12.9289 12.9289C14.8043 11.0536 17.3478 10 20 10C22.6522 10 25.1957 11.0536 27.0711 12.9289C28.9464 14.8043 30 17.3478 30 20Z" fill="#D9D9D9"></path>
    <path fill-rule="evenodd" clip-rule="evenodd" d="M20 2.08334C20.3315 2.08334 20.6495 2.21504 20.8839 2.44946C21.1183 2.68388 21.25 3.00182 21.25 3.33334V5.00001C21.25 5.33153 21.1183 5.64947 20.8839 5.88389C20.6495 6.11831 20.3315 6.25001 20 6.25001C19.6685 6.25001 19.3505 6.11831 19.1161 5.88389C18.8817 5.64947 18.75 5.33153 18.75 5.00001V3.33334C18.75 3.00182 18.8817 2.68388 19.1161 2.44946C19.3505 2.21504 19.6685 2.08334 20 2.08334ZM7.33168 7.33168C7.56605 7.09759 7.88376 6.96611 8.21501 6.96611C8.54626 6.96611 8.86397 7.09759 9.09834 7.33168L9.75334 7.98501C9.98115 8.22065 10.1073 8.53635 10.1046 8.8641C10.1019 9.19185 9.9706 9.50543 9.73895 9.7373C9.5073 9.96917 9.19384 10.1008 8.8661 10.1038C8.53835 10.1068 8.22254 9.98093 7.98668 9.75334L7.33168 9.09834C7.09759 8.86397 6.96611 8.54626 6.96611 8.21501C6.96611 7.88376 7.09759 7.56605 7.33168 7.33168ZM32.6683 7.33168C32.9024 7.56605 33.0339 7.88376 33.0339 8.21501C33.0339 8.54626 32.9024 8.86397 32.6683 9.09834L32.0133 9.75334C31.7764 9.97414 31.463 10.0943 31.1391 10.0886C30.8153 10.0829 30.5063 9.95174 30.2773 9.72271C30.0483 9.49369 29.9171 9.18472 29.9114 8.86088C29.9057 8.53705 30.0259 8.22363 30.2467 7.98668L30.9017 7.33168C31.1361 7.09759 31.4538 6.96611 31.785 6.96611C32.1163 6.96611 32.434 7.09759 32.6683 7.33168ZM2.08334 20C2.08334 19.6685 2.21504 19.3505 2.44946 19.1161C2.68388 18.8817 3.00182 18.75 3.33334 18.75H5.00001C5.33153 18.75 5.64947 18.8817 5.88389 19.1161C6.11831 19.3505 6.25001 19.6685 6.25001 20C6.25001 20.3315 6.11831 20.6495 5.88389 20.8839C5.64947 21.1183 5.33153 21.25 5.00001 21.25H3.33334C3.00182 21.25 2.68388 21.1183 2.44946 20.8839C2.21504 20.6495 2.08334 20.3315 2.08334 20ZM33.75 20C33.75 19.6685 33.8817 19.3505 34.1161 19.1161C34.3505 18.8817 34.6685 18.75 35 18.75H36.6667C36.9982 18.75 37.3161 18.8817 37.5506 19.1161C37.785 19.3505 37.9167 19.6685 37.9167 20C37.9167 20.3315 37.785 20.6495 37.5506 20.8839C37.3161 21.1183 36.9982 21.25 36.6667 21.25H35C34.6685 21.25 34.3505 21.1183 34.1161 20.8839C33.8817 20.6495 33.75 20.3315 33.75 20ZM30.2467 30.2467C30.4811 30.0126 30.7988 29.8811 31.13 29.8811C31.4613 29.8811 31.779 30.0126 32.0133 30.2467L32.6683 30.9017C32.7912 31.0161 32.8897 31.1541 32.958 31.3074C33.0263 31.4608 33.063 31.6263 33.066 31.7941C33.069 31.962 33.0381 32.1287 32.9752 32.2843C32.9123 32.44 32.8188 32.5814 32.7001 32.7001C32.5814 32.8188 32.44 32.9123 32.2843 32.9752C32.1287 33.0381 31.962 33.069 31.7941 33.066C31.6263 33.063 31.4608 33.0263 31.3074 32.958C31.1541 32.8897 31.0161 32.7912 30.9017 32.6683L30.2467 32.0133C30.0126 31.779 29.8811 31.4613 29.8811 31.13C29.8811 30.7988 30.0126 30.4811 30.2467 30.2467ZM9.75334 30.2467C9.98743 30.4811 10.1189 30.7988 10.1189 31.13C10.1189 31.4613 9.98743 31.779 9.75334 32.0133L9.09834 32.6683C8.98391 32.7912 8.84591 32.8897 8.69257 32.958C8.53924 33.0263 8.37372 33.063 8.20588 33.066C8.03804 33.069 7.87133 33.0381 7.71568 32.9752C7.56003 32.9123 7.41864 32.8188 7.29995 32.7001C7.18125 32.5814 7.08767 32.44 7.02481 32.2843C6.96194 32.1287 6.93106 31.962 6.93402 31.7941C6.93699 31.6263 6.97372 31.4608 7.04204 31.3074C7.11036 31.1541 7.20887 31.0161 7.33168 30.9017L7.98501 30.2467C8.10109 30.1305 8.23893 30.0384 8.39064 29.9755C8.54235 29.9126 8.70496 29.8803 8.86918 29.8803C9.0334 29.8803 9.19601 29.9126 9.34772 29.9755C9.49942 30.0384 9.63726 30.1305 9.75334 30.2467ZM20 33.75C20.3315 33.75 20.6495 33.8817 20.8839 34.1161C21.1183 34.3505 21.25 34.6685 21.25 35V36.6667C21.25 36.9982 21.1183 37.3161 20.8839 37.5506C20.6495 37.785 20.3315 37.9167 20 37.9167C19.6685 37.9167 19.3505 37.785 19.1161 37.5506C18.8817 37.3161 18.75 36.9982 18.75 36.6667V35C18.75 34.6685 18.8817 34.3505 19.1161 34.1161C19.3505 33.8817 19.6685 33.75 20 33.75Z" fill="#D9D9D9"></path>
  </symbol>
  <symbol fill="none" xmlns="http://www.w3.org/2000/svg" viewBox="0 0 40 40" id="to light-theme_inactive">
    <path fill-rule="evenodd" clip-rule="evenodd" d="M20 2.08334C20.3315 2.08334 20.6494 2.21504 20.8839 2.44946C21.1183 2.68388 21.25 3.00182 21.25 3.33334V5.00001C21.25 5.33153 21.1183 5.64947 20.8839 5.88389C20.6494 6.11831 20.3315 6.25001 20 6.25001C19.6685 6.25001 19.3505 6.11831 19.1161 5.88389C18.8817 5.64947 18.75 5.33153 18.75 5.00001V3.33334C18.75 3.00182 18.8817 2.68388 19.1161 2.44946C19.3505 2.21504 19.6685 2.08334 20 2.08334ZM7.33165 7.33168C7.56602 7.09759 7.88373 6.96611 8.21498 6.96611C8.54623 6.96611 8.86394 7.09759 9.09831 7.33168L9.75331 7.98501C9.98112 8.22065 10.1073 8.53635 10.1046 8.8641C10.1019 9.19185 9.97057 9.50543 9.73892 9.7373C9.50727 9.96917 9.19381 10.1008 8.86606 10.1038C8.53832 10.1068 8.22251 9.98093 7.98665 9.75334L7.33165 9.09834C7.09756 8.86397 6.96608 8.54626 6.96608 8.21501C6.96608 7.88376 7.09756 7.56605 7.33165 7.33168ZM32.6683 7.33168C32.9024 7.56605 33.0339 7.88376 33.0339 8.21501C33.0339 8.54626 32.9024 8.86397 32.6683 9.09834L32.0133 9.75334C31.7764 9.97414 31.4629 10.0943 31.1391 10.0886C30.8153 10.0829 30.5063 9.95174 30.2773 9.72271C30.0483 9.49369 29.9171 9.18472 29.9114 8.86088C29.9056 8.53705 30.0258 8.22363 30.2466 7.98668L30.9016 7.33168C31.136 7.09759 31.4537 6.96611 31.785 6.96611C32.1162 6.96611 32.4339 7.09759 32.6683 7.33168ZM20 11.25C17.6793 11.25 15.4537 12.1719 13.8128 13.8128C12.1719 15.4538 11.25 17.6794 11.25 20C11.25 22.3207 12.1719 24.5463 13.8128 26.1872C15.4537 27.8281 17.6793 28.75 20 28.75C22.3206 28.75 24.5462 27.8281 26.1872 26.1872C27.8281 24.5463 28.75 22.3207 28.75 20C28.75 17.6794 27.8281 15.4538 26.1872 13.8128C24.5462 12.1719 22.3206 11.25 20 11.25ZM8.74998 20C8.74998 17.0163 9.93524 14.1548 12.045 12.0451C14.1548 9.93527 17.0163 8.75001 20 8.75001C22.9837 8.75001 25.8451 9.93527 27.9549 12.0451C30.0647 14.1548 31.25 17.0163 31.25 20C31.25 22.9837 30.0647 25.8452 27.9549 27.955C25.8451 30.0647 22.9837 31.25 20 31.25C17.0163 31.25 14.1548 30.0647 12.045 27.955C9.93524 25.8452 8.74998 22.9837 8.74998 20ZM2.08331 20C2.08331 19.6685 2.21501 19.3505 2.44943 19.1161C2.68385 18.8817 3.00179 18.75 3.33331 18.75H4.99998C5.3315 18.75 5.64944 18.8817 5.88386 19.1161C6.11828 19.3505 6.24998 19.6685 6.24998 20C6.24998 20.3315 6.11828 20.6495 5.88386 20.8839C5.64944 21.1183 5.3315 21.25 4.99998 21.25H3.33331C3.00179 21.25 2.68385 21.1183 2.44943 20.8839C2.21501 20.6495 2.08331 20.3315 2.08331 20ZM33.75 20C33.75 19.6685 33.8817 19.3505 34.1161 19.1161C34.3505 18.8817 34.6685 18.75 35 18.75H36.6666C36.9982 18.75 37.3161 18.8817 37.5505 19.1161C37.785 19.3505 37.9166 19.6685 37.9166 20C37.9166 20.3315 37.785 20.6495 37.5505 20.8839C37.3161 21.1183 36.9982 21.25 36.6666 21.25H35C34.6685 21.25 34.3505 21.1183 34.1161 20.8839C33.8817 20.6495 33.75 20.3315 33.75 20ZM30.2466 30.2467C30.481 30.0126 30.7987 29.8811 31.13 29.8811C31.4612 29.8811 31.7789 30.0126 32.0133 30.2467L32.6683 30.9017C32.7911 31.0161 32.8896 31.1541 32.9579 31.3074C33.0263 31.4608 33.063 31.6263 33.066 31.7941C33.0689 31.962 33.038 32.1287 32.9752 32.2843C32.9123 32.44 32.8187 32.5814 32.7 32.7001C32.5813 32.8188 32.44 32.9123 32.2843 32.9752C32.1287 33.0381 31.9619 33.069 31.7941 33.066C31.6263 33.063 31.4607 33.0263 31.3074 32.958C31.1541 32.8897 31.0161 32.7912 30.9016 32.6683L30.2466 32.0133C30.0126 31.779 29.8811 31.4613 29.8811 31.13C29.8811 30.7988 30.0126 30.4811 30.2466 30.2467ZM9.75331 30.2467C9.9874 30.4811 10.1189 30.7988 10.1189 31.13C10.1189 31.4613 9.9874 31.779 9.75331 32.0133L9.09831 32.6683C8.98388 32.7912 8.84588 32.8897 8.69254 32.958C8.53921 33.0263 8.37369 33.063 8.20585 33.066C8.03801 33.069 7.8713 33.0381 7.71565 32.9752C7.56 32.9123 7.41861 32.8188 7.29992 32.7001C7.18122 32.5814 7.08764 32.44 7.02477 32.2843C6.96191 32.1287 6.93103 31.962 6.93399 31.7941C6.93695 31.6263 6.97369 31.4608 7.04201 31.3074C7.11033 31.1541 7.20884 31.0161 7.33165 30.9017L7.98498 30.2467C8.10106 30.1305 8.2389 30.0384 8.39061 29.9755C8.54232 29.9126 8.70493 29.8803 8.86915 29.8803C9.03337 29.8803 9.19598 29.9126 9.34769 29.9755C9.49939 30.0384 9.63723 30.1305 9.75331 30.2467ZM20 33.75C20.3315 33.75 20.6494 33.8817 20.8839 34.1161C21.1183 34.3505 21.25 34.6685 21.25 35V36.6667C21.25 36.9982 21.1183 37.3161 20.8839 37.5506C20.6494 37.785 20.3315 37.9167 20 37.9167C19.6685 37.9167 19.3505 37.785 19.1161 37.5506C18.8817 37.3161 18.75 36.9982 18.75 36.6667V35C18.75 34.6685 18.8817 34.3505 19.1161 34.1161C19.3505 33.8817 19.6685 33.75 20 33.75Z" fill="#D9D9D9"></path>
  </symbol>
  <symbol fill="none" xmlns="http://www.w3.org/2000/svg" viewBox="0 0 40 40" id="to_dark_theme">
    <path d="M20 36.6667C29.205 36.6667 36.6667 29.205 36.6667 20C36.6667 19.2283 35.51 19.1 35.1117 19.7617C34.2621 21.1689 33.1034 22.3644 31.7234 23.2575C30.3434 24.1506 28.7782 24.7179 27.1464 24.9165C25.5147 25.1151 23.8591 24.9398 22.3051 24.4038C20.7512 23.8678 19.3395 22.9852 18.1772 21.8229C17.0148 20.6605 16.1322 19.2489 15.5962 17.6949C15.0603 16.141 14.8849 14.4854 15.0835 12.8536C15.2821 11.2219 15.8495 9.65668 16.7426 8.27665C17.6357 6.89663 18.8311 5.73793 20.2384 4.88834C20.9 4.48834 20.7717 3.33334 20 3.33334C10.795 3.33334 3.33337 10.795 3.33337 20C3.33337 29.205 10.795 36.6667 20 36.6667Z" fill="#D9D9D9"></path>
  </symbol>
  <symbol fill="none" xmlns="http://www.w3.org/2000/svg" viewBox="0 0 40 40" id="to_light_theme">
    <path d="M35.4167 20C35.4167 24.0888 33.7925 28.0101 30.9013 30.9012C28.0101 33.7924 24.0888 35.4167 20 35.4167V37.9167C29.895 37.9167 37.9167 29.895 37.9167 20H35.4167ZM20 35.4167C15.9113 35.4167 11.99 33.7924 9.09881 30.9012C6.20763 28.0101 4.58337 24.0888 4.58337 20H2.08337C2.08337 29.895 10.105 37.9167 20 37.9167V35.4167ZM4.58337 20C4.58337 15.9113 6.20763 11.99 9.09881 9.09878C11.99 6.20759 15.9113 4.58334 20 4.58334V2.08334C10.105 2.08334 2.08337 10.105 2.08337 20H4.58337ZM25.8334 23.75C23.2917 23.75 20.8542 22.7403 19.0569 20.9431C17.2597 19.1459 16.25 16.7083 16.25 14.1667H13.75C13.75 17.3714 15.0231 20.4448 17.2892 22.7109C19.5552 24.9769 22.6287 26.25 25.8334 26.25V23.75ZM34.0417 19.115C33.1894 20.5299 31.9856 21.7002 30.5473 22.5124C29.109 23.3245 27.4851 23.7509 25.8334 23.75V26.25C27.9158 26.2511 29.9631 25.7138 31.7766 24.6903C33.5901 23.6667 35.1081 22.1917 36.1834 20.4083L34.0417 19.115ZM16.25 14.1667C16.2493 12.515 16.6757 10.8911 17.4879 9.45286C18.3 8.01459 19.4703 6.81079 20.885 5.95834L19.5917 3.81834C17.8085 4.89333 16.3335 6.41109 15.31 8.22429C14.2864 10.0375 13.7491 12.0845 13.75 14.1667H16.25ZM20 4.58334C19.831 4.57936 19.6704 4.50866 19.5534 4.38668C19.4818 4.31707 19.434 4.22668 19.4167 4.12834C19.41 4.07668 19.4134 3.92668 19.5917 3.81834L20.885 5.95834C21.7234 5.45168 21.9934 4.52334 21.895 3.79334C21.7917 3.03501 21.195 2.08334 20 2.08334V4.58334ZM36.1834 20.4083C36.0734 20.5867 35.9234 20.59 35.8717 20.5833C35.7734 20.5661 35.683 20.5182 35.6134 20.4467C35.4914 20.3296 35.4207 20.169 35.4167 20H37.9167C37.9167 18.805 36.965 18.2083 36.2067 18.105C35.4767 18.0067 34.5484 18.2767 34.0417 19.115L36.1834 20.4083Z" fill="#D9D9D9"></path>
  </symbol>
  <symbol fill="none" xmlns="http://www.w3.org/2000/svg" viewBox="0 0 40 40" id="to-dark-theme_inactive">
    <path d="M35.4166 20C35.4166 24.0888 33.7924 28.0101 30.9012 30.9012C28.01 33.7924 24.0887 35.4167 20 35.4167V37.9167C29.895 37.9167 37.9166 29.895 37.9166 20H35.4166ZM20 35.4167C15.9112 35.4167 11.9899 33.7924 9.09875 30.9012C6.20756 28.0101 4.58331 24.0888 4.58331 20H2.08331C2.08331 29.895 10.105 37.9167 20 37.9167V35.4167ZM4.58331 20C4.58331 15.9113 6.20756 11.99 9.09875 9.09878C11.9899 6.20759 15.9112 4.58334 20 4.58334V2.08334C10.105 2.08334 2.08331 10.105 2.08331 20H4.58331ZM25.8333 23.75C23.2917 23.75 20.8541 22.7403 19.0569 20.9431C17.2596 19.1459 16.25 16.7083 16.25 14.1667H13.75C13.75 17.3714 15.023 20.4448 17.2891 22.7109C19.5552 24.9769 22.6286 26.25 25.8333 26.25V23.75ZM34.0416 19.115C33.1893 20.5299 31.9855 21.7002 30.5473 22.5124C29.109 23.3245 27.4851 23.7509 25.8333 23.75V26.25C27.9157 26.2511 29.963 25.7138 31.7765 24.6903C33.59 23.6667 35.1081 22.1917 36.1833 20.4083L34.0416 19.115ZM16.25 14.1667C16.2493 12.515 16.6757 10.8911 17.4878 9.45286C18.3 8.01459 19.4702 6.81079 20.885 5.95834L19.5916 3.81834C17.8085 4.89333 16.3335 6.41109 15.3099 8.22429C14.2864 10.0375 13.749 12.0845 13.75 14.1667H16.25ZM20 4.58334C19.831 4.57936 19.6704 4.50866 19.5533 4.38668C19.4817 4.31707 19.4339 4.22668 19.4166 4.12834C19.41 4.07668 19.4133 3.92668 19.5916 3.81834L20.885 5.95834C21.7233 5.45168 21.9933 4.52334 21.895 3.79334C21.7916 3.03501 21.195 2.08334 20 2.08334V4.58334ZM36.1833 20.4083C36.0733 20.5867 35.9233 20.59 35.8716 20.5833C35.7733 20.5661 35.6829 20.5182 35.6133 20.4467C35.4913 20.3296 35.4206 20.169 35.4166 20H37.9166C37.9166 18.805 36.965 18.2083 36.2066 18.105C35.4766 18.0067 34.5483 18.2767 34.0416 19.115L36.1833 20.4083Z" fill="#D9D9D9"></path>
  </symbol>
</svg>