<svg width="32" height="32" viewBox="0 0 32 32" fill="none" xmlns="http://www.w3.org/2000/svg">
<g id="Property 1=&#208;&#191;&#209;&#128;&#208;&#184; &#208;&#189;&#208;&#176;&#208;&#182;&#208;&#176;&#209;&#130;&#208;&#184;&#208;&#184; &#208;&#162;&#208;&#162;">
<g id="Group">
<path id="Vector" d="M11.9999 16C11.9999 16.3536 11.8594 16.6927 11.6094 16.9428C11.3593 17.1928 11.0202 17.3333 10.6666 17.3333C10.313 17.3333 9.97382 17.1928 9.72378 16.9428C9.47373 16.6927 9.33325 16.3536 9.33325 16C9.33325 15.6464 9.47373 15.3072 9.72378 15.0572C9.97382 14.8071 10.313 14.6667 10.6666 14.6667C11.0202 14.6667 11.3593 14.8071 11.6094 15.0572C11.8594 15.3072 11.9999 15.6464 11.9999 16ZM17.3333 16C17.3333 16.3536 17.1928 16.6927 16.9427 16.9428C16.6927 17.1928 16.3535 17.3333 15.9999 17.3333C15.6463 17.3333 15.3072 17.1928 15.0571 16.9428C14.8071 16.6927 14.6666 16.3536 14.6666 16C14.6666 15.6464 14.8071 15.3072 15.0571 15.0572C15.3072 14.8071 15.6463 14.6667 15.9999 14.6667C16.3535 14.6667 16.6927 14.8071 16.9427 15.0572C17.1928 15.3072 17.3333 15.6464 17.3333 16ZM21.3333 17.3333C21.6869 17.3333 22.026 17.1928 22.2761 16.9428C22.5261 16.6927 22.6666 16.3536 22.6666 16C22.6666 15.6464 22.5261 15.3072 22.2761 15.0572C22.026 14.8071 21.6869 14.6667 21.3333 14.6667C20.9796 14.6667 20.6405 14.8071 20.3904 15.0572C20.1404 15.3072 19.9999 15.6464 19.9999 16C19.9999 16.3536 20.1404 16.6927 20.3904 16.9428C20.6405 17.1928 20.9796 17.3333 21.3333 17.3333Z" fill="#D9D9D9"/>
<path id="Vector_2" fill-rule="evenodd" clip-rule="evenodd" d="M16 1.66666C8.08396 1.66666 1.66663 8.08399 1.66663 16C1.66663 23.916 8.08396 30.3333 16 30.3333C23.916 30.3333 30.3333 23.916 30.3333 16C30.3333 8.08399 23.916 1.66666 16 1.66666ZM3.66663 16C3.66663 12.729 4.96603 9.59195 7.27898 7.27901C9.59192 4.96606 12.729 3.66666 16 3.66666C19.271 3.66666 22.408 4.96606 24.7209 7.27901C27.0339 9.59195 28.3333 12.729 28.3333 16C28.3333 19.271 27.0339 22.408 24.7209 24.721C22.408 27.0339 19.271 28.3333 16 28.3333C12.729 28.3333 9.59192 27.0339 7.27898 24.721C4.96603 22.408 3.66663 19.271 3.66663 16Z" fill="#D9D9D9"/>
</g>
</g>
</svg>
