<svg width="16" height="16" viewBox="0 0 16 16" fill="none" xmlns="http://www.w3.org/2000/svg">
<g id="solar:confetti-outline">
<g id="Group">
<path id="Vector" fill-rule="evenodd" clip-rule="evenodd" d="M10.4006 1.60002C10.254 1.45336 10.07 1.46002 9.96929 1.47336C9.87329 1.48669 9.75862 1.51869 9.64929 1.55002L9.56595 1.57335L9.49729 1.53069C9.40789 1.47074 9.31432 1.41727 9.21729 1.37069C9.11795 1.32802 8.95062 1.27869 8.77329 1.37136C8.59995 1.46269 8.54329 1.62536 8.51995 1.72936C8.49925 1.83654 8.48588 1.94502 8.47995 2.05402L8.47329 2.13869V2.14535L8.39862 2.20736C8.30995 2.28069 8.21728 2.35602 8.15195 2.42736C8.08262 2.50336 7.97595 2.64535 8.00329 2.84402C8.03129 3.04869 8.17995 3.15469 8.27262 3.20669C8.35662 3.25336 8.46662 3.29336 8.56995 3.33202L8.64262 3.35869L8.66928 3.43135C8.70728 3.53402 8.74795 3.64469 8.79462 3.72869C8.84595 3.82202 8.95262 3.97002 9.15729 3.99802C9.35529 4.02469 9.49729 3.91802 9.57328 3.84869C9.64529 3.78335 9.72062 3.69135 9.79395 3.60202L9.85529 3.52802H9.86195L9.94728 3.52136C10.0593 3.51202 10.1773 3.50269 10.272 3.48136C10.3753 3.45802 10.5386 3.40136 10.63 3.22802C10.7226 3.05136 10.6733 2.88269 10.63 2.78336C10.5833 2.68633 10.5299 2.59276 10.47 2.50336L10.4273 2.43536L10.4513 2.35136C10.4842 2.24685 10.5096 2.14014 10.5273 2.03202C10.5406 1.93069 10.5473 1.74669 10.4006 1.60002ZM9.80129 2.20002L9.74928 2.21469L9.73595 2.21869C9.65093 2.24769 9.56073 2.25837 9.47129 2.25002C9.38248 2.2341 9.29826 2.19882 9.22462 2.14669L9.21262 2.13936L9.14595 2.09669L9.13862 2.19069L9.13729 2.20536C9.1348 2.29402 9.11391 2.38119 9.07595 2.46135C9.0314 2.5379 8.97174 2.60458 8.90062 2.65736L8.88928 2.66669L8.82929 2.71669L8.87995 2.73602L8.89329 2.74002C8.94062 2.75736 9.04662 2.79469 9.12662 2.87469C9.20662 2.95469 9.24395 3.06002 9.26062 3.10802L9.26529 3.12136L9.28462 3.17269L9.33462 3.11202L9.34329 3.10069C9.37729 3.05869 9.44395 2.97536 9.53995 2.92536C9.62011 2.88739 9.70729 2.86651 9.79595 2.86402L9.81062 2.86269L9.90395 2.85602L9.86195 2.78802L9.85462 2.77669C9.8026 2.70298 9.76733 2.61879 9.75129 2.53002C9.74296 2.44058 9.75364 2.35038 9.78262 2.26536L9.78662 2.25202L9.80129 2.20002Z" fill="#347318"/>
<path id="Vector_2" d="M6.95668 2.11337C6.99137 2.05733 7.01463 1.99498 7.02514 1.92992C7.03564 1.86486 7.03318 1.79836 7.01789 1.73425C7.00261 1.67014 6.9748 1.60969 6.93607 1.55637C6.89733 1.50304 6.84844 1.45791 6.7922 1.42355C6.73596 1.38919 6.67348 1.36628 6.60836 1.35616C6.54324 1.34603 6.47675 1.34888 6.41273 1.36454C6.34872 1.38019 6.28842 1.40835 6.23533 1.4474C6.18223 1.48644 6.13738 1.53559 6.10335 1.59203C5.93558 1.86658 5.86507 2.1896 5.90316 2.50909C5.94125 2.82857 6.08573 3.12596 6.31335 3.35337L6.37801 3.4187C6.44279 3.48336 6.48879 3.5644 6.5111 3.65317C6.53341 3.74194 6.53119 3.8351 6.50468 3.9227C6.46631 4.04965 6.47995 4.18664 6.54258 4.30354C6.60522 4.42044 6.71173 4.50766 6.83868 4.54603C6.96563 4.5844 7.10262 4.57077 7.21952 4.50813C7.33642 4.44549 7.42364 4.33898 7.46201 4.21203C7.5408 3.95132 7.54737 3.67412 7.48104 3.40996C7.41471 3.14581 7.27795 2.9046 7.08535 2.71203L7.02001 2.6467C6.95102 2.57787 6.90725 2.4878 6.89576 2.39103C6.88427 2.29426 6.90573 2.19644 6.95668 2.11337ZM5.12401 2.6267C5.09074 2.59352 5.05127 2.56722 5.00783 2.54929C4.9644 2.53137 4.91786 2.52217 4.87087 2.52224C4.82389 2.5223 4.77737 2.53161 4.73399 2.54965C4.6906 2.56769 4.65119 2.5941 4.61801 2.62737C4.58483 2.66063 4.55853 2.70011 4.54061 2.74355C4.52268 2.78698 4.51349 2.83352 4.51355 2.8805C4.51368 2.9754 4.55149 3.06635 4.61868 3.13337C4.68587 3.20038 4.77692 3.23795 4.87182 3.23783C4.96671 3.2377 5.05767 3.19989 5.12468 3.1327C5.19169 3.06551 5.22927 2.97445 5.22914 2.87956C5.22902 2.78467 5.1912 2.69371 5.12401 2.6267ZM12.1853 3.73603C12.2113 3.60599 12.1846 3.47095 12.111 3.36061C12.0375 3.25028 11.9231 3.17369 11.793 3.1477C11.663 3.12171 11.5279 3.14844 11.4176 3.22202C11.3073 3.2956 11.2307 3.40999 11.2047 3.54003L11.1087 4.02003C11.0467 4.3287 10.824 4.58003 10.526 4.68003C10.212 4.78466 9.9313 4.97043 9.71225 5.21851C9.4932 5.4666 9.34362 5.76818 9.27868 6.0927L9.18268 6.5727C9.16165 6.70061 9.19111 6.83169 9.26486 6.9383C9.33861 7.0449 9.45088 7.1187 9.578 7.14412C9.70511 7.16954 9.83712 7.1446 9.9462 7.07457C10.0553 7.00453 10.1329 6.89486 10.1627 6.7687L10.2593 6.2887C10.3207 5.98003 10.5433 5.7287 10.842 5.6287C11.156 5.52392 11.4366 5.338 11.6555 5.0898C11.8745 4.8416 12.0239 4.53993 12.0887 4.21537L12.1853 3.73603Z" fill="#347318"/>
<path id="Vector_3" fill-rule="evenodd" clip-rule="evenodd" d="M15.016 5.89464C15.186 6.26398 15.0713 6.68331 14.76 6.99464C14.5793 7.17464 14.3373 7.25664 14.122 7.29531C13.9013 7.33464 13.6687 7.33531 13.464 7.32198C13.2297 7.30645 12.9968 7.27369 12.7673 7.22398L12.7367 7.21731L12.7207 7.21331L12.7073 7.20998L12.7033 7.20931H12.702L12.782 6.88531L12.702 7.20864C12.643 7.19416 12.5891 7.16384 12.5461 7.12095C12.5031 7.07807 12.4727 7.02425 12.458 6.96531V6.96331L12.4567 6.95931L12.4533 6.94598C12.4368 6.87601 12.4226 6.80553 12.4107 6.73464C12.3785 6.5587 12.3563 6.38108 12.344 6.20264C12.3273 5.98322 12.3365 5.76259 12.3713 5.54531C12.41 5.32931 12.4913 5.08731 12.672 4.90664C12.9833 4.59531 13.4027 4.47998 13.772 4.65131C14.052 4.78064 14.2347 5.04198 14.3027 5.36398C14.6247 5.43264 14.886 5.61464 15.016 5.89464ZM13.064 6.60264C13.1827 6.62331 13.3393 6.64598 13.5067 6.65664C13.682 6.66798 13.8567 6.66531 14.0047 6.63864C14.158 6.61198 14.2453 6.56598 14.288 6.52331C14.45 6.36131 14.438 6.23331 14.4107 6.17398C14.3807 6.10998 14.2747 5.99931 14.0013 5.99998C13.9573 6.00015 13.9137 5.99162 13.8731 5.97486C13.8324 5.9581 13.7954 5.93346 13.7643 5.90235C13.7332 5.87124 13.7085 5.83427 13.6918 5.79359C13.675 5.75291 13.6665 5.70931 13.6667 5.66531C13.668 5.39198 13.5567 5.28531 13.4927 5.25598C13.4333 5.22931 13.3053 5.21598 13.1433 5.37864C13.1007 5.42131 13.0547 5.50864 13.028 5.66198C13.0028 5.82672 12.9967 5.99384 13.01 6.15998C13.0207 6.32664 13.0433 6.48398 13.064 6.60264Z" fill="#347318"/>
<path id="Vector_4" d="M13.5533 9.1533C13.6499 9.06765 13.7689 9.01146 13.8964 8.99137C14.0239 8.97129 14.1545 8.98815 14.2727 9.03997L14.4667 9.12463C14.5882 9.17777 14.7259 9.18043 14.8494 9.13205C14.973 9.08366 15.0722 8.98819 15.1253 8.86663C15.1785 8.74508 15.1811 8.60739 15.1328 8.48387C15.0844 8.36034 14.9889 8.2611 14.8673 8.20797L14.6733 8.1233C14.3803 7.99516 14.0568 7.95356 13.7409 8.00341C13.425 8.05326 13.13 8.19249 12.8907 8.40463C12.6733 8.59797 12.3567 8.62997 12.1047 8.48463L11.9633 8.40263C11.8486 8.33738 11.7126 8.32016 11.5852 8.35476C11.4578 8.38935 11.3492 8.47294 11.2832 8.58729C11.2172 8.70163 11.1991 8.83744 11.2328 8.96509C11.2666 9.09274 11.3494 9.20186 11.4633 9.26863L11.6047 9.34997C11.9092 9.52592 12.2613 9.60154 12.6112 9.56612C12.9611 9.5307 13.291 9.38604 13.554 9.15263L13.5533 9.1533ZM12.7053 10.2086C12.7386 10.1754 12.7781 10.1491 12.8215 10.1311C12.865 10.1131 12.9116 10.1039 12.9586 10.1039C13.0056 10.104 13.0521 10.1133 13.0956 10.1313C13.139 10.1493 13.1784 10.1757 13.2117 10.209C13.2449 10.2422 13.2712 10.2817 13.2892 10.3252C13.3072 10.3686 13.3164 10.4152 13.3164 10.4622C13.3163 10.5092 13.3071 10.5558 13.289 10.5992C13.271 10.6426 13.2446 10.6821 13.2113 10.7153C13.1442 10.7824 13.0531 10.8201 12.9581 10.82C12.8631 10.8199 12.7721 10.7822 12.705 10.715C12.6379 10.6478 12.6002 10.5567 12.6003 10.4617C12.6004 10.3668 12.6382 10.2757 12.7053 10.2086ZM8.61067 4.7713C8.57745 4.73808 8.53801 4.71172 8.4946 4.69374C8.45119 4.67576 8.40466 4.6665 8.35767 4.6665C8.31069 4.6665 8.26416 4.67576 8.22075 4.69374C8.17734 4.71172 8.1379 4.73808 8.10467 4.7713C8.07145 4.80452 8.04509 4.84397 8.02711 4.88738C8.00913 4.93079 7.99988 4.97731 7.99988 5.0243C7.99988 5.07129 8.00913 5.11781 8.02711 5.16122C8.04509 5.20463 8.07145 5.24408 8.10467 5.2773C8.13794 5.31052 8.17743 5.33687 8.22088 5.35484C8.26433 5.3728 8.31089 5.38203 8.35791 5.382C8.40493 5.38197 8.45148 5.37268 8.4949 5.35465C8.53833 5.33663 8.57778 5.31023 8.61101 5.27697C8.64423 5.2437 8.67058 5.20421 8.68854 5.16076C8.70651 5.11731 8.71574 5.07075 8.71571 5.02373C8.71567 4.97671 8.70638 4.93016 8.68836 4.88674C8.67034 4.84331 8.64394 4.80452 8.61067 4.7713ZM11.438 6.7713C11.4712 6.73808 11.5107 6.71172 11.5541 6.69374C11.5975 6.67576 11.644 6.6665 11.691 6.6665C11.738 6.6665 11.7845 6.67576 11.8279 6.69374C11.8713 6.71172 11.9108 6.73808 11.944 6.7713C11.9772 6.80452 12.0036 6.84397 12.0216 6.88738C12.0395 6.93079 12.0488 6.97731 12.0488 7.0243C12.0488 7.07129 12.0395 7.11781 12.0216 7.16122C12.0036 7.20463 11.9772 7.24408 11.944 7.2773C11.8768 7.3444 11.7857 7.38206 11.6908 7.382C11.5958 7.38194 11.5048 7.34415 11.4377 7.27697C11.3706 7.20978 11.3329 7.11869 11.333 7.02373C11.333 6.92878 11.3708 6.8384 11.438 6.7713Z" fill="#347318"/>
<path id="Vector_5" fill-rule="evenodd" clip-rule="evenodd" d="M6.42601 4.58997C6.81668 4.87931 7.26601 5.32997 7.81268 5.87531L10.124 8.18664C10.67 8.73331 11.12 9.18264 11.4093 9.57331C11.7093 9.97731 11.92 10.426 11.798 10.9426C11.676 11.46 11.2867 11.7666 10.838 11.994C10.404 12.214 9.80068 12.4153 9.06868 12.6593L5.60868 13.8126C4.72201 14.108 4.00201 14.348 3.44401 14.4473C2.88134 14.5473 2.31068 14.5373 1.88601 14.1133C1.46201 13.6893 1.45201 13.118 1.55201 12.5546C1.65134 11.9973 1.89134 11.2773 2.18668 10.3906L3.34001 6.93064C3.58401 6.19864 3.78534 5.59531 4.00534 5.16131C4.23201 4.71264 4.53934 4.32331 5.05668 4.20131C5.57334 4.07931 6.02201 4.29064 6.42601 4.58997ZM5.83068 5.39331C5.81919 5.38477 5.80763 5.37633 5.79601 5.36797L5.77201 5.50131C5.69688 5.9182 5.62976 6.3365 5.57068 6.75597C5.42868 7.76597 5.30934 8.98731 5.37068 9.92331C5.40734 10.49 5.52868 11.2233 5.64468 11.828C5.69971 12.1154 5.75861 12.4021 5.82134 12.688L7.57801 12.1013C7.53134 11.9646 7.47668 11.788 7.42134 11.5833C7.28868 11.09 7.15134 10.4113 7.15134 9.70331C7.15713 9.05772 7.24814 8.41573 7.42201 7.79397C7.48445 7.56531 7.55764 7.33973 7.64134 7.11797L7.13468 6.61131C6.55201 6.02931 6.15468 5.63331 5.83068 5.39331ZM4.27534 7.28664C4.39051 6.93448 4.51074 6.584 4.63601 6.23531C4.61682 6.36253 4.59837 6.48987 4.58068 6.61731C4.43668 7.63931 4.30401 8.94531 4.37268 9.98864C4.41401 10.6206 4.54534 11.404 4.66268 12.0153C4.72617 12.3461 4.79462 12.6759 4.86801 13.0046C4.17401 13.234 3.66268 13.3926 3.26934 13.4626C2.78868 13.548 2.65601 13.4686 2.59334 13.406C2.53068 13.3433 2.45134 13.2106 2.53668 12.73C2.62134 12.2533 2.83668 11.6033 3.14934 10.666L4.27534 7.28664ZM8.71268 11.724L8.52668 11.786C8.42778 11.4922 8.34653 11.1928 8.28334 10.8893C8.19951 10.4994 8.15529 10.1021 8.15134 9.70331C8.15739 9.09414 8.25125 8.48902 8.43001 7.90664L9.38734 8.86464C9.97001 9.44731 10.366 9.84464 10.606 10.1686C10.842 10.4873 10.8453 10.626 10.8247 10.7133C10.804 10.8 10.7393 10.9233 10.386 11.102C10.026 11.2846 9.49401 11.4633 8.71268 11.724Z" fill="#347318"/>
</g>
</g>
</svg>
