<svg width="40" height="40" viewBox="0 0 40 40" fill="none" xmlns="http://www.w3.org/2000/svg">
<path fill-rule="evenodd" clip-rule="evenodd" d="M20 36.6667C28.06 36.6667 34.595 30.1934 34.595 22.2084C34.595 14.225 28.0617 7.75169 20 7.75169C11.94 7.75169 5.405 14.2234 5.405 22.2084C5.405 30.1934 11.9383 36.6667 20 36.6667ZM20 14.5784C20.6717 14.5784 21.2167 15.1184 21.2167 15.7834V21.71L24.9133 25.3734C25.0261 25.4847 25.1157 25.6173 25.1768 25.7635C25.2379 25.9097 25.2694 26.0666 25.2694 26.225C25.2694 26.3835 25.2379 26.5404 25.1768 26.6866C25.1157 26.8328 25.0261 26.9654 24.9133 27.0767C24.6841 27.3026 24.3752 27.4293 24.0533 27.4293C23.7315 27.4293 23.4225 27.3026 23.1933 27.0767L19.14 23.06C19.0275 22.9488 18.938 22.8165 18.8768 22.6706C18.8156 22.5248 18.7838 22.3682 18.7833 22.21V15.7834C18.7833 15.1167 19.3283 14.5784 20 14.5784ZM13.7333 3.90002C13.8179 4.03414 13.8749 4.1837 13.9012 4.34003C13.9275 4.49636 13.9226 4.65636 13.8866 4.81075C13.8506 4.96515 13.7844 5.11088 13.6917 5.23949C13.599 5.36811 13.4818 5.47705 13.3467 5.56002L6.86167 9.57669C6.58799 9.74629 6.25847 9.80117 5.9446 9.72941C5.63072 9.65765 5.35779 9.46504 5.185 9.19335C5.10048 9.05923 5.04342 8.90968 5.01711 8.75334C4.9908 8.59701 4.99577 8.43701 5.03173 8.28262C5.0677 8.12822 5.13394 7.9825 5.22662 7.85388C5.3193 7.72527 5.43658 7.61632 5.57167 7.53335L12.0583 3.51669C12.332 3.34708 12.6615 3.29221 12.9754 3.36397C13.2893 3.43573 13.5622 3.62834 13.735 3.90002H13.7333ZM26.2667 3.90002C26.4394 3.62879 26.7121 3.43651 27.0255 3.36477C27.339 3.29302 27.6681 3.3476 27.9417 3.51669L34.4283 7.53335C34.5634 7.61632 34.6807 7.72527 34.7734 7.85388C34.8661 7.9825 34.9323 8.12822 34.9683 8.28262C35.0042 8.43701 35.0092 8.59701 34.9829 8.75334C34.9566 8.90968 34.8995 9.05923 34.815 9.19335C34.6422 9.46504 34.3693 9.65765 34.0554 9.72941C33.7415 9.80117 33.412 9.74629 33.1383 9.57669L26.6533 5.56002C26.5181 5.47719 26.4007 5.36834 26.3078 5.23979C26.215 5.11124 26.1486 4.96553 26.1125 4.81113C26.0763 4.65672 26.0712 4.49668 26.0974 4.34028C26.1236 4.18389 26.1806 4.03424 26.265 3.90002H26.2667Z" fill="CurrentColor"/>
</svg>
