<svg width="40" height="40" viewBox="0 0 40 40" fill="none" xmlns="http://www.w3.org/2000/svg">
<path fill-rule="evenodd" clip-rule="evenodd" d="M13.56 2.67167C13.7355 2.95263 13.7923 3.29177 13.718 3.61459C13.6436 3.93741 13.4441 4.2175 13.1633 4.39334L6.49667 8.56C6.21554 8.73593 5.87604 8.79297 5.55285 8.71858C5.22966 8.64419 4.94926 8.44446 4.77333 8.16333C4.59741 7.88221 4.54036 7.5427 4.61475 7.21952C4.68914 6.89633 4.88887 6.61593 5.17 6.44L11.8367 2.27334C11.976 2.18624 12.131 2.12746 12.2931 2.10034C12.4551 2.07322 12.6208 2.07831 12.7809 2.1153C12.9409 2.1523 13.0921 2.22048 13.2258 2.31594C13.3595 2.41141 13.4731 2.53229 13.56 2.67167ZM26.44 2.67167C26.5269 2.53229 26.6405 2.41141 26.7742 2.31594C26.9079 2.22048 27.059 2.1523 27.2191 2.1153C27.3792 2.07831 27.5449 2.07322 27.7069 2.10034C27.869 2.12746 28.024 2.18624 28.1633 2.27334L34.83 6.44C35.1111 6.61593 35.3109 6.89633 35.3852 7.21952C35.4596 7.5427 35.4026 7.88221 35.2267 8.16333C35.0507 8.44446 34.7703 8.64419 34.4472 8.71858C34.124 8.79297 33.7845 8.73593 33.5033 8.56L26.8367 4.39334C26.5559 4.2175 26.3564 3.93741 26.282 3.61459C26.2077 3.29177 26.2645 2.95263 26.44 2.67167ZM20 7.91667C16.3533 7.91667 12.8559 9.36532 10.2773 11.9439C7.69866 14.5226 6.25 18.0199 6.25 21.6667C6.25 25.3134 7.69866 28.8108 10.2773 31.3894C12.8559 33.968 16.3533 35.4167 20 35.4167C23.6467 35.4167 27.1441 33.968 29.7227 31.3894C32.3013 28.8108 33.75 25.3134 33.75 21.6667C33.75 18.0199 32.3013 14.5226 29.7227 11.9439C27.1441 9.36532 23.6467 7.91667 20 7.91667ZM3.75 21.6667C3.75 12.6917 11.025 5.41667 20 5.41667C28.975 5.41667 36.25 12.6917 36.25 21.6667C36.25 30.6417 28.975 37.9167 20 37.9167C11.025 37.9167 3.75 30.6417 3.75 21.6667ZM20 15.4167C20.3315 15.4167 20.6495 15.5484 20.8839 15.7828C21.1183 16.0172 21.25 16.3351 21.25 16.6667V20.4167H25C25.3315 20.4167 25.6495 20.5484 25.8839 20.7828C26.1183 21.0172 26.25 21.3351 26.25 21.6667C26.25 21.9982 26.1183 22.3161 25.8839 22.5506C25.6495 22.785 25.3315 22.9167 25 22.9167H21.25V26.6667C21.25 26.9982 21.1183 27.3161 20.8839 27.5506C20.6495 27.785 20.3315 27.9167 20 27.9167C19.6685 27.9167 19.3505 27.785 19.1161 27.5506C18.8817 27.3161 18.75 26.9982 18.75 26.6667V22.9167H15C14.6685 22.9167 14.3505 22.785 14.1161 22.5506C13.8817 22.3161 13.75 21.9982 13.75 21.6667C13.75 21.3351 13.8817 21.0172 14.1161 20.7828C14.3505 20.5484 14.6685 20.4167 15 20.4167H18.75V16.6667C18.75 16.3351 18.8817 16.0172 19.1161 15.7828C19.3505 15.5484 19.6685 15.4167 20 15.4167Z" fill="#DF7F49"/>
</svg>
