<svg width="40" height="40" viewBox="0 0 40 40" fill="none" xmlns="http://www.w3.org/2000/svg">
<path fill-rule="evenodd" clip-rule="evenodd" d="M20 2.08334C20.3315 2.08334 20.6494 2.21504 20.8839 2.44946C21.1183 2.68388 21.25 3.00182 21.25 3.33334V5.00001C21.25 5.33153 21.1183 5.64947 20.8839 5.88389C20.6494 6.11831 20.3315 6.25001 20 6.25001C19.6685 6.25001 19.3505 6.11831 19.1161 5.88389C18.8817 5.64947 18.75 5.33153 18.75 5.00001V3.33334C18.75 3.00182 18.8817 2.68388 19.1161 2.44946C19.3505 2.21504 19.6685 2.08334 20 2.08334ZM7.33165 7.33168C7.56602 7.09759 7.88373 6.96611 8.21498 6.96611C8.54623 6.96611 8.86394 7.09759 9.09831 7.33168L9.75331 7.98501C9.98112 8.22065 10.1073 8.53635 10.1046 8.8641C10.1019 9.19185 9.97057 9.50543 9.73892 9.7373C9.50727 9.96917 9.19381 10.1008 8.86606 10.1038C8.53832 10.1068 8.22251 9.98093 7.98665 9.75334L7.33165 9.09834C7.09756 8.86397 6.96608 8.54626 6.96608 8.21501C6.96608 7.88376 7.09756 7.56605 7.33165 7.33168ZM32.6683 7.33168C32.9024 7.56605 33.0339 7.88376 33.0339 8.21501C33.0339 8.54626 32.9024 8.86397 32.6683 9.09834L32.0133 9.75334C31.7764 9.97414 31.4629 10.0943 31.1391 10.0886C30.8153 10.0829 30.5063 9.95174 30.2773 9.72271C30.0483 9.49369 29.9171 9.18472 29.9114 8.86088C29.9056 8.53705 30.0258 8.22363 30.2466 7.98668L30.9016 7.33168C31.136 7.09759 31.4537 6.96611 31.785 6.96611C32.1162 6.96611 32.4339 7.09759 32.6683 7.33168ZM20 11.25C17.6793 11.25 15.4537 12.1719 13.8128 13.8128C12.1719 15.4538 11.25 17.6794 11.25 20C11.25 22.3207 12.1719 24.5463 13.8128 26.1872C15.4537 27.8281 17.6793 28.75 20 28.75C22.3206 28.75 24.5462 27.8281 26.1872 26.1872C27.8281 24.5463 28.75 22.3207 28.75 20C28.75 17.6794 27.8281 15.4538 26.1872 13.8128C24.5462 12.1719 22.3206 11.25 20 11.25ZM8.74998 20C8.74998 17.0163 9.93524 14.1548 12.045 12.0451C14.1548 9.93527 17.0163 8.75001 20 8.75001C22.9837 8.75001 25.8451 9.93527 27.9549 12.0451C30.0647 14.1548 31.25 17.0163 31.25 20C31.25 22.9837 30.0647 25.8452 27.9549 27.955C25.8451 30.0647 22.9837 31.25 20 31.25C17.0163 31.25 14.1548 30.0647 12.045 27.955C9.93524 25.8452 8.74998 22.9837 8.74998 20ZM2.08331 20C2.08331 19.6685 2.21501 19.3505 2.44943 19.1161C2.68385 18.8817 3.00179 18.75 3.33331 18.75H4.99998C5.3315 18.75 5.64944 18.8817 5.88386 19.1161C6.11828 19.3505 6.24998 19.6685 6.24998 20C6.24998 20.3315 6.11828 20.6495 5.88386 20.8839C5.64944 21.1183 5.3315 21.25 4.99998 21.25H3.33331C3.00179 21.25 2.68385 21.1183 2.44943 20.8839C2.21501 20.6495 2.08331 20.3315 2.08331 20ZM33.75 20C33.75 19.6685 33.8817 19.3505 34.1161 19.1161C34.3505 18.8817 34.6685 18.75 35 18.75H36.6666C36.9982 18.75 37.3161 18.8817 37.5505 19.1161C37.785 19.3505 37.9166 19.6685 37.9166 20C37.9166 20.3315 37.785 20.6495 37.5505 20.8839C37.3161 21.1183 36.9982 21.25 36.6666 21.25H35C34.6685 21.25 34.3505 21.1183 34.1161 20.8839C33.8817 20.6495 33.75 20.3315 33.75 20ZM30.2466 30.2467C30.481 30.0126 30.7987 29.8811 31.13 29.8811C31.4612 29.8811 31.7789 30.0126 32.0133 30.2467L32.6683 30.9017C32.7911 31.0161 32.8896 31.1541 32.9579 31.3074C33.0263 31.4608 33.063 31.6263 33.066 31.7941C33.0689 31.962 33.038 32.1287 32.9752 32.2843C32.9123 32.44 32.8187 32.5814 32.7 32.7001C32.5813 32.8188 32.44 32.9123 32.2843 32.9752C32.1287 33.0381 31.9619 33.069 31.7941 33.066C31.6263 33.063 31.4607 33.0263 31.3074 32.958C31.1541 32.8897 31.0161 32.7912 30.9016 32.6683L30.2466 32.0133C30.0126 31.779 29.8811 31.4613 29.8811 31.13C29.8811 30.7988 30.0126 30.4811 30.2466 30.2467ZM9.75331 30.2467C9.9874 30.4811 10.1189 30.7988 10.1189 31.13C10.1189 31.4613 9.9874 31.779 9.75331 32.0133L9.09831 32.6683C8.98388 32.7912 8.84588 32.8897 8.69254 32.958C8.53921 33.0263 8.37369 33.063 8.20585 33.066C8.03801 33.069 7.8713 33.0381 7.71565 32.9752C7.56 32.9123 7.41861 32.8188 7.29992 32.7001C7.18122 32.5814 7.08764 32.44 7.02477 32.2843C6.96191 32.1287 6.93103 31.962 6.93399 31.7941C6.93695 31.6263 6.97369 31.4608 7.04201 31.3074C7.11033 31.1541 7.20884 31.0161 7.33165 30.9017L7.98498 30.2467C8.10106 30.1305 8.2389 30.0384 8.39061 29.9755C8.54232 29.9126 8.70493 29.8803 8.86915 29.8803C9.03337 29.8803 9.19598 29.9126 9.34769 29.9755C9.49939 30.0384 9.63723 30.1305 9.75331 30.2467ZM20 33.75C20.3315 33.75 20.6494 33.8817 20.8839 34.1161C21.1183 34.3505 21.25 34.6685 21.25 35V36.6667C21.25 36.9982 21.1183 37.3161 20.8839 37.5506C20.6494 37.785 20.3315 37.9167 20 37.9167C19.6685 37.9167 19.3505 37.785 19.1161 37.5506C18.8817 37.3161 18.75 36.9982 18.75 36.6667V35C18.75 34.6685 18.8817 34.3505 19.1161 34.1161C19.3505 33.8817 19.6685 33.75 20 33.75Z" fill="#D9D9D9"/>
</svg>
