<svg width="40" height="40" viewBox="0 0 40 40" fill="none" xmlns="http://www.w3.org/2000/svg">
<path d="M20 36.6667C29.205 36.6667 36.6667 29.205 36.6667 20C36.6667 19.2283 35.51 19.1 35.1117 19.7617C34.2621 21.1689 33.1034 22.3644 31.7234 23.2575C30.3434 24.1506 28.7782 24.7179 27.1464 24.9165C25.5147 25.1151 23.8591 24.9398 22.3051 24.4038C20.7512 23.8678 19.3395 22.9852 18.1772 21.8229C17.0148 20.6605 16.1322 19.2489 15.5962 17.6949C15.0603 16.141 14.8849 14.4854 15.0835 12.8536C15.2821 11.2219 15.8495 9.65668 16.7426 8.27665C17.6357 6.89663 18.8311 5.73793 20.2384 4.88834C20.9 4.48834 20.7717 3.33334 20 3.33334C10.795 3.33334 3.33337 10.795 3.33337 20C3.33337 29.205 10.795 36.6667 20 36.6667Z" fill="#D9D9D9"/>
</svg>
