<svg width="40" height="40" viewBox="0 0 40 40" fill="none" xmlns="http://www.w3.org/2000/svg">
<path fill-rule="evenodd" clip-rule="evenodd" d="M28.02 26.048C28.0383 26.0662 28.0566 26.0846 28.0748 26.1033C28.7977 26.8429 29.3669 27.8623 29.9087 29.0362C30.7492 30.8574 31.1651 32.6531 30.714 34.2906C30.2221 36.0761 28.885 37.0641 27.5971 37.5753C26.3695 38.0625 24.9717 38.2159 23.7726 38.2739C22.8654 38.3177 21.9068 38.3104 21.0828 38.3041C20.8119 38.302 20.5556 38.3 20.3204 38.3C20.085 38.3 19.8287 38.302 19.5577 38.3041C18.7333 38.3104 17.7738 38.3177 16.8611 38.2739C15.6496 38.2158 14.2509 38.0619 13.0068 37.5853C11.7164 37.091 10.374 36.1552 9.76679 34.4522C9.19323 32.8436 9.45753 31.0363 10.1737 29.1744L10.1982 29.1105L10.2265 29.0483C10.35 28.7767 10.4681 28.5133 10.5813 28.2608C10.9827 27.3652 11.3227 26.6069 11.6223 26.1069C11.6967 25.9829 11.7892 25.8372 11.904 25.6839C10.5302 25.039 9.45644 24.1827 8.66443 23.0742C8.03571 22.1943 7.65665 21.2487 7.42437 20.3054C7.31415 20.3021 7.21212 20.3 7.11015 20.3C5.50434 20.3 3.99016 19.4728 3.02518 18.759C2.5032 18.3729 2.00743 17.9218 1.61591 17.4447C1.42066 17.2068 1.21716 16.921 1.0528 16.5969C0.902102 16.2997 0.699951 15.8069 0.699951 15.1985C0.699951 14.5995 0.896578 14.1115 1.03651 13.8243C1.19204 13.5051 1.38553 13.2176 1.5741 12.9737C1.95252 12.4841 2.43672 12.008 2.95486 11.5928C3.89486 10.8397 5.4367 9.89846 7.11015 9.89846C7.34653 9.89846 7.57854 9.91539 7.80511 9.94771C8.40305 8.26725 9.34532 6.73679 10.6151 5.45606C12.9755 3.07526 16.3254 1.70001 20.2975 1.70001C24.2697 1.70001 27.6196 3.07526 29.98 5.45606C31.188 6.67451 32.0996 8.119 32.7003 9.70365C32.7631 9.70123 32.8263 9.70001 32.8898 9.70001C34.5632 9.70001 36.105 10.6413 37.045 11.3944C37.5632 11.8095 38.0474 12.2856 38.4258 12.7752C38.6144 13.0192 38.8079 13.3066 38.9634 13.6258C39.1033 13.913 39.2999 14.4011 39.2999 15C39.2999 15.6084 39.0978 16.1012 38.9471 16.3984C38.7827 16.7226 38.5792 17.0084 38.384 17.2463C37.9925 17.7234 37.4967 18.1744 36.9747 18.5605C36.0968 19.2099 34.7644 19.9532 33.322 20.082C33.1267 21.0763 32.7748 22.0906 32.1294 23.0349C31.2014 24.3928 29.8423 25.3704 28.02 26.048ZM30.9639 20.0825C31.1478 19.3802 31.2264 18.6167 31.257 17.8007C31.547 17.8414 31.8913 17.8292 32.2679 17.816C32.4673 17.8089 32.6756 17.8016 32.8898 17.8016C33.1064 17.8016 33.3317 17.7719 33.5604 17.7182C35.1954 17.3346 37 15.7268 37 15C37 14.2409 35.0314 12.3542 33.3436 12.0436C33.1894 12.0152 33.0376 12 32.8898 12C32.2042 12 31.5775 12.2717 31.1176 12.6742C30.9891 11.8562 30.7737 11.0709 30.4758 10.3298C28.9787 6.60551 25.3975 4.00001 20.2975 4.00001C14.9896 4.00001 11.3268 6.82244 9.94647 10.7911C9.65271 11.6358 9.46233 12.5323 9.38148 13.4646C8.97612 12.7874 8.16228 12.2423 7.2244 12.201C7.18651 12.1993 7.14842 12.1985 7.11015 12.1985C5.34459 12.1985 2.99995 14.37 2.99995 15.1985C2.99995 16.0239 5.32779 17.9859 7.09111 17.9999C7.09746 18 7.10381 18 7.11015 18C7.32427 18 7.53264 18.0074 7.73198 18.0144C8.44778 18.0397 9.04711 18.0608 9.37797 17.7226C9.42822 18.5808 9.53452 19.3817 9.75601 20.1153C10.5893 22.8754 13.0532 24.6828 20.2976 25C27.8615 24.6815 30.2364 22.8611 30.9639 20.0825ZM21.1554 36.0043C25.2516 36.0354 30.6248 36.0763 27.8204 30C26.3266 26.7636 25.5226 26.8893 23.4395 27.2151C22.6262 27.3423 21.618 27.5 20.2975 27.5C17.6616 27.5 16.2152 27.1086 15.3252 26.8677C14.7759 26.719 14.4385 26.6277 14.1641 26.7213C13.7274 26.8701 13.4504 27.4873 12.7323 29.0867C12.609 29.3613 12.4727 29.6649 12.3204 30C9.98324 36.0765 15.3874 36.0354 19.4856 36.0043C19.7712 36.0021 20.0505 36 20.3204 36C20.59 36 20.869 36.0021 21.1543 36.0043H21.1548H21.1554Z" fill="#D9D9D9"/>
<path d="M13 12.0474L16 12.7225M17.0225 12.9526L16 12.7225M26.0338 12L23 12.6827M22.0113 12.9052L23 12.6827M16 12.7225V14.5M23 12.6827V14.5M17.0225 19V19C17.6476 19.6395 18.5041 20 19.3984 20H19.4578C20.1376 20 20.8023 19.8 21.3691 19.4249L22.0113 19" stroke="#D9D9D9" stroke-width="2.3" stroke-linecap="round"/>
</svg>
