<svg width="20" height="20" viewBox="0 0 20 20" fill="none" xmlns="http://www.w3.org/2000/svg">
<path d="M10.0455 5C10.2866 5 10.5178 5.10057 10.6883 5.27958C10.8588 5.45859 10.9545 5.70138 10.9545 5.95455V8.81818H13.6818C13.9229 8.81818 14.1542 8.91875 14.3246 9.09776C14.4951 9.27677 14.5909 9.51957 14.5909 9.77273C14.5909 10.0259 14.4951 10.2687 14.3246 10.4477C14.1542 10.6267 13.9229 10.7273 13.6818 10.7273H10.9545V13.5909C10.9545 13.8441 10.8588 14.0869 10.6883 14.2659C10.5178 14.4449 10.2866 14.5455 10.0455 14.5455C9.80435 14.5455 9.57312 14.4449 9.40263 14.2659C9.23214 14.0869 9.13636 13.8441 9.13636 13.5909V10.7273H6.40909C6.16798 10.7273 5.93675 10.6267 5.76627 10.4477C5.59578 10.2687 5.5 10.0259 5.5 9.77273C5.5 9.51957 5.59578 9.27677 5.76627 9.09776C5.93675 8.91875 6.16798 8.81818 6.40909 8.81818H9.13636V5.95455C9.13636 5.70138 9.23214 5.45859 9.40263 5.27958C9.57312 5.10057 9.80435 5 10.0455 5Z" fill="#D9D9D9" fill-opacity="0.4"/>
</svg>
