<svg width="16" height="12" viewBox="0 0 16 12" fill="none" xmlns="http://www.w3.org/2000/svg">
<path d="M14.7167 2.71664C14.8395 2.6022 14.938 2.4642 15.0063 2.31087C15.0747 2.15754 15.1114 1.99201 15.1143 1.82418C15.1173 1.65634 15.0864 1.48962 15.0236 1.33398C14.9607 1.17833 14.8671 1.03694 14.7484 0.918242C14.6297 0.799544 14.4883 0.705969 14.3327 0.6431C14.177 0.580232 14.0103 0.549357 13.8425 0.552319C13.6747 0.55528 13.5091 0.592017 13.3558 0.660336C13.2025 0.728656 13.0645 0.827161 12.95 0.949972L5.50003 8.39997L3.05003 5.94997C2.81307 5.72917 2.49966 5.60897 2.17583 5.61468C1.85199 5.62039 1.54301 5.75158 1.31399 5.9806C1.08497 6.20962 0.953784 6.5186 0.948071 6.84244C0.942357 7.16627 1.06256 7.47968 1.28336 7.71664L4.6167 11.05C4.85107 11.2841 5.16878 11.4155 5.50003 11.4155C5.83128 11.4155 6.14899 11.2841 6.38336 11.05L14.7167 2.71664Z" fill="#4BAB29"/>
</svg>
