<svg width="16" height="16" viewBox="0 0 16 16" fill="none" xmlns="http://www.w3.org/2000/svg">
<g id="solar:alarm-outline">
<path id="Vector" fill-rule="evenodd" clip-rule="evenodd" d="M5.424 1.06864C5.49421 1.18103 5.51693 1.31668 5.48718 1.44581C5.45743 1.57494 5.37764 1.68698 5.26533 1.75731L2.59867 3.42398C2.48621 3.49435 2.35041 3.51716 2.22114 3.48741C2.09186 3.45765 1.9797 3.37776 1.90933 3.26531C1.83896 3.15286 1.81615 3.01706 1.8459 2.88778C1.87566 2.75851 1.95555 2.64635 2.068 2.57598L4.73467 0.90931C4.79038 0.874472 4.85241 0.850958 4.91722 0.840111C4.98203 0.829265 5.04834 0.831298 5.11236 0.846096C5.17638 0.860894 5.23686 0.888166 5.29033 0.926352C5.3438 0.964538 5.38923 1.01289 5.424 1.06864ZM10.576 1.06864C10.6108 1.01289 10.6562 0.964538 10.7097 0.926352C10.7631 0.888166 10.8236 0.860894 10.8876 0.846096C10.9517 0.831298 11.018 0.829265 11.0828 0.840111C11.1476 0.850958 11.2096 0.874472 11.2653 0.90931L13.932 2.57598C14.0445 2.64635 14.1243 2.75851 14.1541 2.88778C14.1839 3.01706 14.161 3.15286 14.0907 3.26531C14.0203 3.37776 13.9081 3.45765 13.7789 3.48741C13.6496 3.51716 13.5138 3.49435 13.4013 3.42398L10.7347 1.75731C10.6224 1.68698 10.5426 1.57494 10.5128 1.44581C10.4831 1.31668 10.5058 1.18103 10.576 1.06864ZM8 3.16664C6.54131 3.16664 5.14236 3.74611 4.11091 4.77756C3.07946 5.80901 2.5 7.20795 2.5 8.66664C2.5 10.1253 3.07946 11.5243 4.11091 12.5557C5.14236 13.5872 6.54131 14.1666 8 14.1666C9.45869 14.1666 10.8576 13.5872 11.8891 12.5557C12.9205 11.5243 13.5 10.1253 13.5 8.66664C13.5 7.20795 12.9205 5.80901 11.8891 4.77756C10.8576 3.74611 9.45869 3.16664 8 3.16664ZM1.5 8.66664C1.5 5.07664 4.41 2.16664 8 2.16664C11.59 2.16664 14.5 5.07664 14.5 8.66664C14.5 12.2566 11.59 15.1666 8 15.1666C4.41 15.1666 1.5 12.2566 1.5 8.66664ZM8 5.49998C8.13261 5.49998 8.25979 5.55265 8.35355 5.64642C8.44732 5.74019 8.5 5.86737 8.5 5.99998V8.45998L10.02 9.97998C10.0691 10.0258 10.1085 10.081 10.1359 10.1423C10.1632 10.2036 10.1779 10.2698 10.1791 10.337C10.1802 10.4041 10.1679 10.4708 10.1427 10.533C10.1176 10.5953 10.0802 10.6519 10.0327 10.6993C9.98521 10.7468 9.92866 10.7842 9.8664 10.8094C9.80414 10.8345 9.73745 10.8469 9.67032 10.8457C9.60318 10.8445 9.53697 10.8298 9.47564 10.8025C9.41431 10.7752 9.35911 10.7358 9.31333 10.6866L7.64667 9.01998C7.55287 8.9263 7.50012 8.79921 7.5 8.66664V5.99998C7.5 5.86737 7.55268 5.74019 7.64645 5.64642C7.74022 5.55265 7.86739 5.49998 8 5.49998Z" fill="#DF7F49"/>
</g>
</svg>
