<svg width="40" height="40" viewBox="0 0 40 40" fill="none" xmlns="http://www.w3.org/2000/svg">
<path fill-rule="evenodd" clip-rule="evenodd" d="M2.08337 20C2.08337 10.105 10.105 2.08331 20 2.08331C20.3316 2.08331 20.6495 2.21501 20.8839 2.44943C21.1183 2.68385 21.25 3.00179 21.25 3.33331C21.25 3.66483 21.1183 3.98278 20.8839 4.2172C20.6495 4.45162 20.3316 4.58331 20 4.58331C16.9509 4.58331 13.9703 5.48748 11.435 7.18149C8.89974 8.87549 6.92375 11.2832 5.7569 14.1003C4.59005 16.9173 4.28475 20.0171 4.8796 23.0076C5.47446 25.9982 6.94275 28.7451 9.09881 30.9012C11.2549 33.0573 14.0019 34.5256 16.9924 35.1204C19.9829 35.7153 23.0827 35.41 25.8997 34.2431C28.7168 33.0763 31.1245 31.1003 32.8185 28.565C34.5125 26.0298 35.4167 23.0491 35.4167 20C35.4167 19.6685 35.5484 19.3505 35.7828 19.1161C36.0172 18.8817 36.3352 18.75 36.6667 18.75C36.9982 18.75 37.3162 18.8817 37.5506 19.1161C37.785 19.3505 37.9167 19.6685 37.9167 20C37.9167 29.895 29.895 37.9166 20 37.9166C10.105 37.9166 2.08337 29.895 2.08337 20ZM27.95 3.79331C29.0499 2.72373 30.5266 2.13006 32.0608 2.14069C33.5949 2.15133 35.0633 2.76541 36.1482 3.85014C37.2332 4.93488 37.8476 6.40308 37.8585 7.93724C37.8694 9.4714 37.2761 10.9482 36.2067 12.0483L25.1267 23.13C24.5084 23.7466 24.12 24.1366 23.6884 24.4733C23.1786 24.8709 22.627 25.2118 22.0434 25.49C21.5484 25.725 21.0267 25.8983 20.1984 26.175L15.3567 27.7883C14.9187 27.9342 14.4487 27.9553 13.9993 27.8491C13.55 27.743 13.1391 27.5139 12.8126 27.1874C12.4862 26.8609 12.257 26.45 12.1509 26.0007C12.0448 25.5514 12.0658 25.0814 12.2117 24.6433L13.825 19.8016C14.1017 18.9716 14.275 18.4516 14.51 17.9566C14.7884 17.3733 15.13 16.8233 15.5267 16.3116C15.8634 15.8783 16.2517 15.4916 16.87 14.8733L27.95 3.79331ZM34.4384 5.55998C33.8124 4.93426 32.9635 4.58276 32.0784 4.58276C31.1933 4.58276 30.3444 4.93426 29.7184 5.55998L29.0917 6.18831C29.1284 6.34831 29.1817 6.53831 29.255 6.75165C29.4934 7.43998 29.9467 8.34665 30.8 9.19998C31.6297 10.0329 32.671 10.6236 33.8117 10.9083L34.4384 10.2816C35.0641 9.65563 35.4156 8.80675 35.4156 7.92165C35.4156 7.03654 35.0641 6.18599 34.4384 5.55998ZM31.8417 12.8783C30.7922 12.4259 29.8385 11.7777 29.0317 10.9683C28.2222 10.1615 27.574 9.20785 27.1217 8.15831L18.695 16.5833C18.0017 17.2783 17.7284 17.5533 17.4984 17.85C17.2122 18.2167 16.9669 18.6135 16.7667 19.0333C16.605 19.3716 16.4817 19.7383 16.17 20.67L15.4517 22.8283L17.1717 24.55L19.33 23.83C20.2634 23.5183 20.6284 23.395 20.9684 23.2333C21.3867 23.0333 21.785 22.7883 22.1517 22.5016C22.4467 22.27 22.7217 21.9983 23.4167 21.305L31.8417 12.8783Z" fill="#D9D9D9"/>
</svg>
