<svg width="40" height="40" viewBox="0 0 40 40" fill="none" xmlns="http://www.w3.org/2000/svg">
<path d="M18 8.41663C18.3316 8.41663 18.6495 8.54832 18.8839 8.78274C19.1183 9.01716 19.25 9.33511 19.25 9.66663V19.6666C19.25 19.9981 19.1183 20.3161 18.8839 20.5505C18.6495 20.7849 18.3316 20.9166 18 20.9166C17.6685 20.9166 17.3506 20.7849 17.1162 20.5505C16.8817 20.3161 16.75 19.9981 16.75 19.6666V9.66663C16.75 9.33511 16.8817 9.01716 17.1162 8.78274C17.3506 8.54832 17.6685 8.41663 18 8.41663ZM18 26.3333C18.4421 26.3333 18.866 26.1577 19.1786 25.8451C19.4911 25.5326 19.6667 25.1087 19.6667 24.6666C19.6667 24.2246 19.4911 23.8007 19.1786 23.4881C18.866 23.1756 18.4421 23 18 23C17.558 23 17.1341 23.1756 16.8215 23.4881C16.509 23.8007 16.3334 24.2246 16.3334 24.6666C16.3334 25.1087 16.509 25.5326 16.8215 25.8451C17.1341 26.1577 17.558 26.3333 18 26.3333Z" fill="currentColor"/>
<path fill-rule="evenodd" clip-rule="evenodd" d="M0.083374 18C0.083374 8.10498 8.10504 0.083313 18 0.083313C27.895 0.083313 35.9167 8.10498 35.9167 18C35.9167 27.895 27.895 35.9166 18 35.9166C8.10504 35.9166 0.083374 27.895 0.083374 18ZM18 2.58331C13.9113 2.58331 9.99 4.20756 7.09881 7.09875C4.20763 9.98994 2.58337 13.9112 2.58337 18C2.58337 22.0887 4.20763 26.01 7.09881 28.9012C9.99 31.7924 13.9113 33.4166 18 33.4166C22.0888 33.4166 26.0101 31.7924 28.9013 28.9012C31.7925 26.01 33.4167 22.0887 33.4167 18C33.4167 13.9112 31.7925 9.98994 28.9013 7.09875C26.0101 4.20756 22.0888 2.58331 18 2.58331Z" fill="currentColor"/>
</svg>
