<svg width="16" height="17" viewBox="0 0 16 17" fill="none" xmlns="http://www.w3.org/2000/svg">
<g id="solar:bill-list-outline">
<path id="Vector" fill-rule="evenodd" clip-rule="evenodd" d="M4.73272 1.43335H11.2667C11.9447 1.43335 12.4114 1.43335 12.8041 1.56935C13.1711 1.69896 13.5032 1.91147 13.7747 2.19036C14.0462 2.46925 14.2497 2.807 14.3694 3.17735C14.5001 3.57535 14.4994 4.04868 14.4994 4.75068V14.1827C14.4994 15.16 13.3481 15.7414 12.5901 15.0473C12.5657 15.0241 12.5334 15.0111 12.4997 15.0111C12.4661 15.0111 12.4337 15.0241 12.4094 15.0473L12.0867 15.342C11.4681 15.9087 10.5307 15.9087 9.91206 15.342C9.80008 15.2375 9.65259 15.1793 9.49939 15.1793C9.34619 15.1793 9.1987 15.2375 9.08672 15.342C8.46806 15.9087 7.53072 15.9087 6.91206 15.342C6.80008 15.2375 6.65259 15.1793 6.49939 15.1793C6.34619 15.1793 6.1987 15.2375 6.08672 15.342C5.46806 15.9087 4.53072 15.9087 3.91206 15.342L3.59006 15.0473C3.56571 15.0239 3.53321 15.0108 3.49939 15.0108C3.46557 15.0108 3.43307 15.0239 3.40872 15.0473C2.65072 15.7407 1.49939 15.16 1.49939 14.1827V4.75135C1.49939 4.04868 1.49939 3.57535 1.62939 3.17735C1.74904 2.80697 1.95252 2.4692 2.22402 2.1903C2.49551 1.91141 2.8277 1.69891 3.19472 1.56935C3.58806 1.43268 4.05472 1.43335 4.73272 1.43335ZM4.83006 2.43335C4.01606 2.43335 3.73539 2.44002 3.52339 2.51402C3.30198 2.5932 3.10177 2.7223 2.9383 2.89133C2.77482 3.06035 2.65247 3.26475 2.58072 3.48868C2.50672 3.71468 2.50072 4.01202 2.50072 4.84668V14.1827C2.50072 14.2627 2.54006 14.3107 2.59006 14.334C2.61287 14.3449 2.6383 14.349 2.66339 14.346C2.69045 14.3417 2.71543 14.3288 2.73472 14.3093C2.94333 14.1173 3.21651 14.0107 3.50006 14.0107C3.7836 14.0107 4.05678 14.1173 4.26539 14.3093L4.58739 14.604C4.69937 14.7086 4.84686 14.7667 5.00006 14.7667C5.15326 14.7667 5.30075 14.7086 5.41272 14.604C5.70902 14.331 6.09717 14.1795 6.50006 14.1795C6.90295 14.1795 7.29109 14.331 7.58739 14.604C7.69937 14.7086 7.84686 14.7667 8.00006 14.7667C8.15326 14.7667 8.30075 14.7086 8.41272 14.604C8.70902 14.331 9.09717 14.1795 9.50006 14.1795C9.90295 14.1795 10.2911 14.331 10.5874 14.604C10.6994 14.7086 10.8469 14.7667 11.0001 14.7667C11.1533 14.7667 11.3007 14.7086 11.4127 14.604L11.7347 14.3093C11.9433 14.1173 12.2165 14.0107 12.5001 14.0107C12.7836 14.0107 13.0568 14.1173 13.2654 14.3093C13.2941 14.336 13.3187 14.344 13.3374 14.346C13.3623 14.3489 13.3874 14.3448 13.4101 14.334C13.4601 14.3107 13.5001 14.262 13.5001 14.1827V4.84668C13.5001 4.01202 13.4934 3.71468 13.4201 3.48868C13.3482 3.26459 13.2257 3.06007 13.062 2.89103C12.8982 2.72199 12.6977 2.59298 12.4761 2.51402C12.2647 2.44068 11.9841 2.43402 11.1701 2.43402L4.83006 2.43335ZM4.16672 5.60002C4.16672 5.46741 4.2194 5.34023 4.31317 5.24646C4.40694 5.15269 4.53411 5.10002 4.66672 5.10002H5.00006C5.13266 5.10002 5.25984 5.15269 5.35361 5.24646C5.44738 5.34023 5.50006 5.46741 5.50006 5.60002C5.50006 5.73262 5.44738 5.8598 5.35361 5.95357C5.25984 6.04734 5.13266 6.10002 5.00006 6.10002H4.66672C4.53411 6.10002 4.40694 6.04734 4.31317 5.95357C4.2194 5.8598 4.16672 5.73262 4.16672 5.60002ZM6.50006 5.60002C6.50006 5.46741 6.55274 5.34023 6.6465 5.24646C6.74027 5.15269 6.86745 5.10002 7.00006 5.10002H11.3334C11.466 5.10002 11.5932 5.15269 11.6869 5.24646C11.7807 5.34023 11.8334 5.46741 11.8334 5.60002C11.8334 5.73262 11.7807 5.8598 11.6869 5.95357C11.5932 6.04734 11.466 6.10002 11.3334 6.10002H7.00006C6.86745 6.10002 6.74027 6.04734 6.6465 5.95357C6.55274 5.8598 6.50006 5.73262 6.50006 5.60002ZM4.16672 7.93335C4.16672 7.80074 4.2194 7.67356 4.31317 7.5798C4.40694 7.48603 4.53411 7.43335 4.66672 7.43335H5.00006C5.13266 7.43335 5.25984 7.48603 5.35361 7.5798C5.44738 7.67356 5.50006 7.80074 5.50006 7.93335C5.50006 8.06596 5.44738 8.19313 5.35361 8.2869C5.25984 8.38067 5.13266 8.43335 5.00006 8.43335H4.66672C4.53411 8.43335 4.40694 8.38067 4.31317 8.2869C4.2194 8.19313 4.16672 8.06596 4.16672 7.93335ZM6.50006 7.93335C6.50006 7.80074 6.55274 7.67356 6.6465 7.5798C6.74027 7.48603 6.86745 7.43335 7.00006 7.43335H11.3334C11.466 7.43335 11.5932 7.48603 11.6869 7.5798C11.7807 7.67356 11.8334 7.80074 11.8334 7.93335C11.8334 8.06596 11.7807 8.19313 11.6869 8.2869C11.5932 8.38067 11.466 8.43335 11.3334 8.43335H7.00006C6.86745 8.43335 6.74027 8.38067 6.6465 8.2869C6.55274 8.19313 6.50006 8.06596 6.50006 7.93335ZM4.16672 10.2667C4.16672 10.1341 4.2194 10.0069 4.31317 9.91313C4.40694 9.81936 4.53411 9.76668 4.66672 9.76668H5.00006C5.13266 9.76668 5.25984 9.81936 5.35361 9.91313C5.44738 10.0069 5.50006 10.1341 5.50006 10.2667C5.50006 10.3993 5.44738 10.5265 5.35361 10.6202C5.25984 10.714 5.13266 10.7667 5.00006 10.7667H4.66672C4.53411 10.7667 4.40694 10.714 4.31317 10.6202C4.2194 10.5265 4.16672 10.3993 4.16672 10.2667ZM6.50006 10.2667C6.50006 10.1341 6.55274 10.0069 6.6465 9.91313C6.74027 9.81936 6.86745 9.76668 7.00006 9.76668H11.3334C11.466 9.76668 11.5932 9.81936 11.6869 9.91313C11.7807 10.0069 11.8334 10.1341 11.8334 10.2667C11.8334 10.3993 11.7807 10.5265 11.6869 10.6202C11.5932 10.714 11.466 10.7667 11.3334 10.7667H7.00006C6.86745 10.7667 6.74027 10.714 6.6465 10.6202C6.55274 10.5265 6.50006 10.3993 6.50006 10.2667Z" fill="#FF2424"/>
</g>
</svg>
