<svg width="16" height="16" viewBox="0 0 16 16" fill="none" xmlns="http://www.w3.org/2000/svg">
<g id="solar:smile-circle-outline" clip-path="url(#clip0_365_632)">
<g id="Group">
<path id="Vector" fill-rule="evenodd" clip-rule="evenodd" d="M7.99998 1.83337C6.36448 1.83337 4.79596 2.48307 3.63949 3.63955C2.48301 4.79602 1.83331 6.36454 1.83331 8.00004C1.83331 9.63554 2.48301 11.2041 3.63949 12.3605C4.79596 13.517 6.36448 14.1667 7.99998 14.1667C9.63548 14.1667 11.204 13.517 12.3605 12.3605C13.5169 11.2041 14.1666 9.63554 14.1666 8.00004C14.1666 6.36454 13.5169 4.79602 12.3605 3.63955C11.204 2.48307 9.63548 1.83337 7.99998 1.83337ZM0.833313 8.00004C0.833313 4.04204 4.04198 0.833374 7.99998 0.833374C11.958 0.833374 15.1666 4.04204 15.1666 8.00004C15.1666 11.958 11.958 15.1667 7.99998 15.1667C4.04198 15.1667 0.833313 11.958 0.833313 8.00004ZM5.59798 10.3687C5.63713 10.3159 5.6863 10.2714 5.74268 10.2376C5.79906 10.2038 5.86155 10.1815 5.92656 10.1719C5.99157 10.1623 6.05784 10.1656 6.12157 10.1817C6.1853 10.1977 6.24525 10.2262 6.29798 10.2654C6.78331 10.6254 7.36931 10.8334 7.99998 10.8334C8.63065 10.8334 9.21665 10.6247 9.70198 10.2654C9.75455 10.2245 9.81476 10.1945 9.87909 10.1772C9.94341 10.1598 10.0105 10.1556 10.0765 10.1646C10.1425 10.1735 10.2061 10.1956 10.2634 10.2295C10.3208 10.2634 10.3708 10.3084 10.4105 10.3619C10.4502 10.4154 10.4788 10.4763 10.4947 10.541C10.5105 10.6056 10.5133 10.6729 10.5028 10.7386C10.4923 10.8044 10.4688 10.8674 10.4336 10.924C10.3985 10.9806 10.3523 11.0295 10.298 11.068C9.63447 11.5641 8.82844 11.8326 7.99998 11.8334C7.17152 11.8326 6.36549 11.5641 5.70198 11.068C5.59546 10.9891 5.52467 10.8711 5.50517 10.7399C5.48566 10.6088 5.51905 10.4752 5.59798 10.3687Z" fill="#4BAB29"/>
<path id="Vector_2" d="M10.6666 7C10.6666 7.552 10.368 8 9.99998 8C9.63198 8 9.33331 7.552 9.33331 7C9.33331 6.448 9.63198 6 9.99998 6C10.368 6 10.6666 6.448 10.6666 7ZM6.66665 7C6.66665 7.552 6.36798 8 5.99998 8C5.63198 8 5.33331 7.552 5.33331 7C5.33331 6.448 5.63198 6 5.99998 6C6.36798 6 6.66665 6.448 6.66665 7Z" fill="#4BAB29"/>
</g>
</g>
<defs>
<clipPath id="clip0_365_632">
<rect width="16" height="16" fill="white"/>
</clipPath>
</defs>
</svg>
