<svg width="40" height="40" viewBox="0 0 40 40" fill="none" xmlns="http://www.w3.org/2000/svg">
<path d="M30 20C30 22.6522 28.9464 25.1957 27.0711 27.0711C25.1957 28.9464 22.6522 30 20 30C17.3478 30 14.8043 28.9464 12.9289 27.0711C11.0536 25.1957 10 22.6522 10 20C10 17.3478 11.0536 14.8043 12.9289 12.9289C14.8043 11.0536 17.3478 10 20 10C22.6522 10 25.1957 11.0536 27.0711 12.9289C28.9464 14.8043 30 17.3478 30 20Z" fill="#D9D9D9"/>
<path fill-rule="evenodd" clip-rule="evenodd" d="M20 2.08334C20.3315 2.08334 20.6495 2.21504 20.8839 2.44946C21.1183 2.68388 21.25 3.00182 21.25 3.33334V5.00001C21.25 5.33153 21.1183 5.64947 20.8839 5.88389C20.6495 6.11831 20.3315 6.25001 20 6.25001C19.6685 6.25001 19.3505 6.11831 19.1161 5.88389C18.8817 5.64947 18.75 5.33153 18.75 5.00001V3.33334C18.75 3.00182 18.8817 2.68388 19.1161 2.44946C19.3505 2.21504 19.6685 2.08334 20 2.08334ZM7.33168 7.33168C7.56605 7.09759 7.88376 6.96611 8.21501 6.96611C8.54626 6.96611 8.86397 7.09759 9.09834 7.33168L9.75334 7.98501C9.98115 8.22065 10.1073 8.53635 10.1046 8.8641C10.1019 9.19185 9.9706 9.50543 9.73895 9.7373C9.5073 9.96917 9.19384 10.1008 8.8661 10.1038C8.53835 10.1068 8.22254 9.98093 7.98668 9.75334L7.33168 9.09834C7.09759 8.86397 6.96611 8.54626 6.96611 8.21501C6.96611 7.88376 7.09759 7.56605 7.33168 7.33168ZM32.6683 7.33168C32.9024 7.56605 33.0339 7.88376 33.0339 8.21501C33.0339 8.54626 32.9024 8.86397 32.6683 9.09834L32.0133 9.75334C31.7764 9.97414 31.463 10.0943 31.1391 10.0886C30.8153 10.0829 30.5063 9.95174 30.2773 9.72271C30.0483 9.49369 29.9171 9.18472 29.9114 8.86088C29.9057 8.53705 30.0259 8.22363 30.2467 7.98668L30.9017 7.33168C31.1361 7.09759 31.4538 6.96611 31.785 6.96611C32.1163 6.96611 32.434 7.09759 32.6683 7.33168ZM2.08334 20C2.08334 19.6685 2.21504 19.3505 2.44946 19.1161C2.68388 18.8817 3.00182 18.75 3.33334 18.75H5.00001C5.33153 18.75 5.64947 18.8817 5.88389 19.1161C6.11831 19.3505 6.25001 19.6685 6.25001 20C6.25001 20.3315 6.11831 20.6495 5.88389 20.8839C5.64947 21.1183 5.33153 21.25 5.00001 21.25H3.33334C3.00182 21.25 2.68388 21.1183 2.44946 20.8839C2.21504 20.6495 2.08334 20.3315 2.08334 20ZM33.75 20C33.75 19.6685 33.8817 19.3505 34.1161 19.1161C34.3505 18.8817 34.6685 18.75 35 18.75H36.6667C36.9982 18.75 37.3161 18.8817 37.5506 19.1161C37.785 19.3505 37.9167 19.6685 37.9167 20C37.9167 20.3315 37.785 20.6495 37.5506 20.8839C37.3161 21.1183 36.9982 21.25 36.6667 21.25H35C34.6685 21.25 34.3505 21.1183 34.1161 20.8839C33.8817 20.6495 33.75 20.3315 33.75 20ZM30.2467 30.2467C30.4811 30.0126 30.7988 29.8811 31.13 29.8811C31.4613 29.8811 31.779 30.0126 32.0133 30.2467L32.6683 30.9017C32.7912 31.0161 32.8897 31.1541 32.958 31.3074C33.0263 31.4608 33.063 31.6263 33.066 31.7941C33.069 31.962 33.0381 32.1287 32.9752 32.2843C32.9123 32.44 32.8188 32.5814 32.7001 32.7001C32.5814 32.8188 32.44 32.9123 32.2843 32.9752C32.1287 33.0381 31.962 33.069 31.7941 33.066C31.6263 33.063 31.4608 33.0263 31.3074 32.958C31.1541 32.8897 31.0161 32.7912 30.9017 32.6683L30.2467 32.0133C30.0126 31.779 29.8811 31.4613 29.8811 31.13C29.8811 30.7988 30.0126 30.4811 30.2467 30.2467ZM9.75334 30.2467C9.98743 30.4811 10.1189 30.7988 10.1189 31.13C10.1189 31.4613 9.98743 31.779 9.75334 32.0133L9.09834 32.6683C8.98391 32.7912 8.84591 32.8897 8.69257 32.958C8.53924 33.0263 8.37372 33.063 8.20588 33.066C8.03804 33.069 7.87133 33.0381 7.71568 32.9752C7.56003 32.9123 7.41864 32.8188 7.29995 32.7001C7.18125 32.5814 7.08767 32.44 7.02481 32.2843C6.96194 32.1287 6.93106 31.962 6.93402 31.7941C6.93699 31.6263 6.97372 31.4608 7.04204 31.3074C7.11036 31.1541 7.20887 31.0161 7.33168 30.9017L7.98501 30.2467C8.10109 30.1305 8.23893 30.0384 8.39064 29.9755C8.54235 29.9126 8.70496 29.8803 8.86918 29.8803C9.0334 29.8803 9.19601 29.9126 9.34772 29.9755C9.49942 30.0384 9.63726 30.1305 9.75334 30.2467ZM20 33.75C20.3315 33.75 20.6495 33.8817 20.8839 34.1161C21.1183 34.3505 21.25 34.6685 21.25 35V36.6667C21.25 36.9982 21.1183 37.3161 20.8839 37.5506C20.6495 37.785 20.3315 37.9167 20 37.9167C19.6685 37.9167 19.3505 37.785 19.1161 37.5506C18.8817 37.3161 18.75 36.9982 18.75 36.6667V35C18.75 34.6685 18.8817 34.3505 19.1161 34.1161C19.3505 33.8817 19.6685 33.75 20 33.75Z" fill="#D9D9D9"/>
</svg>
