<svg width="40" height="40" viewBox="0 0 40 40" fill="none" xmlns="http://www.w3.org/2000/svg">
<path d="M35.4166 20C35.4166 24.0888 33.7924 28.0101 30.9012 30.9012C28.01 33.7924 24.0887 35.4167 20 35.4167V37.9167C29.895 37.9167 37.9166 29.895 37.9166 20H35.4166ZM20 35.4167C15.9112 35.4167 11.9899 33.7924 9.09875 30.9012C6.20756 28.0101 4.58331 24.0888 4.58331 20H2.08331C2.08331 29.895 10.105 37.9167 20 37.9167V35.4167ZM4.58331 20C4.58331 15.9113 6.20756 11.99 9.09875 9.09878C11.9899 6.20759 15.9112 4.58334 20 4.58334V2.08334C10.105 2.08334 2.08331 10.105 2.08331 20H4.58331ZM25.8333 23.75C23.2917 23.75 20.8541 22.7403 19.0569 20.9431C17.2596 19.1459 16.25 16.7083 16.25 14.1667H13.75C13.75 17.3714 15.023 20.4448 17.2891 22.7109C19.5552 24.9769 22.6286 26.25 25.8333 26.25V23.75ZM34.0416 19.115C33.1893 20.5299 31.9855 21.7002 30.5473 22.5124C29.109 23.3245 27.4851 23.7509 25.8333 23.75V26.25C27.9157 26.2511 29.963 25.7138 31.7765 24.6903C33.59 23.6667 35.1081 22.1917 36.1833 20.4083L34.0416 19.115ZM16.25 14.1667C16.2493 12.515 16.6757 10.8911 17.4878 9.45286C18.3 8.01459 19.4702 6.81079 20.885 5.95834L19.5916 3.81834C17.8085 4.89333 16.3335 6.41109 15.3099 8.22429C14.2864 10.0375 13.749 12.0845 13.75 14.1667H16.25ZM20 4.58334C19.831 4.57936 19.6704 4.50866 19.5533 4.38668C19.4817 4.31707 19.4339 4.22668 19.4166 4.12834C19.41 4.07668 19.4133 3.92668 19.5916 3.81834L20.885 5.95834C21.7233 5.45168 21.9933 4.52334 21.895 3.79334C21.7916 3.03501 21.195 2.08334 20 2.08334V4.58334ZM36.1833 20.4083C36.0733 20.5867 35.9233 20.59 35.8716 20.5833C35.7733 20.5661 35.6829 20.5182 35.6133 20.4467C35.4913 20.3296 35.4206 20.169 35.4166 20H37.9166C37.9166 18.805 36.965 18.2083 36.2066 18.105C35.4766 18.0067 34.5483 18.2767 34.0416 19.115L36.1833 20.4083Z" fill="#D9D9D9"/>
</svg>
