<svg width="40" height="40" viewBox="0 0 40 40" fill="none" xmlns="http://www.w3.org/2000/svg">
<path d="M35.4167 20C35.4167 24.0888 33.7925 28.0101 30.9013 30.9012C28.0101 33.7924 24.0888 35.4167 20 35.4167V37.9167C29.895 37.9167 37.9167 29.895 37.9167 20H35.4167ZM20 35.4167C15.9113 35.4167 11.99 33.7924 9.09881 30.9012C6.20763 28.0101 4.58337 24.0888 4.58337 20H2.08337C2.08337 29.895 10.105 37.9167 20 37.9167V35.4167ZM4.58337 20C4.58337 15.9113 6.20763 11.99 9.09881 9.09878C11.99 6.20759 15.9113 4.58334 20 4.58334V2.08334C10.105 2.08334 2.08337 10.105 2.08337 20H4.58337ZM25.8334 23.75C23.2917 23.75 20.8542 22.7403 19.0569 20.9431C17.2597 19.1459 16.25 16.7083 16.25 14.1667H13.75C13.75 17.3714 15.0231 20.4448 17.2892 22.7109C19.5552 24.9769 22.6287 26.25 25.8334 26.25V23.75ZM34.0417 19.115C33.1894 20.5299 31.9856 21.7002 30.5473 22.5124C29.109 23.3245 27.4851 23.7509 25.8334 23.75V26.25C27.9158 26.2511 29.9631 25.7138 31.7766 24.6903C33.5901 23.6667 35.1081 22.1917 36.1834 20.4083L34.0417 19.115ZM16.25 14.1667C16.2493 12.515 16.6757 10.8911 17.4879 9.45286C18.3 8.01459 19.4703 6.81079 20.885 5.95834L19.5917 3.81834C17.8085 4.89333 16.3335 6.41109 15.31 8.22429C14.2864 10.0375 13.7491 12.0845 13.75 14.1667H16.25ZM20 4.58334C19.831 4.57936 19.6704 4.50866 19.5534 4.38668C19.4818 4.31707 19.434 4.22668 19.4167 4.12834C19.41 4.07668 19.4134 3.92668 19.5917 3.81834L20.885 5.95834C21.7234 5.45168 21.9934 4.52334 21.895 3.79334C21.7917 3.03501 21.195 2.08334 20 2.08334V4.58334ZM36.1834 20.4083C36.0734 20.5867 35.9234 20.59 35.8717 20.5833C35.7734 20.5661 35.683 20.5182 35.6134 20.4467C35.4914 20.3296 35.4207 20.169 35.4167 20H37.9167C37.9167 18.805 36.965 18.2083 36.2067 18.105C35.4767 18.0067 34.5484 18.2767 34.0417 19.115L36.1834 20.4083Z" fill="#D9D9D9"/>
</svg>
