<svg width="16" height="16" viewBox="0 0 16 16" fill="none" xmlns="http://www.w3.org/2000/svg">
<path fill-rule="evenodd" clip-rule="evenodd" d="M9.33333 1.83331C9.11232 1.83331 8.90036 1.92111 8.74408 2.07739C8.5878 2.23367 8.5 2.44563 8.5 2.66665C8.5 2.88766 8.5878 3.09962 8.74408 3.2559C8.90036 3.41218 9.11232 3.49998 9.33333 3.49998C9.55435 3.49998 9.76631 3.41218 9.92259 3.2559C10.0789 3.09962 10.1667 2.88766 10.1667 2.66665C10.1667 2.44563 10.0789 2.23367 9.92259 2.07739C9.76631 1.92111 9.55435 1.83331 9.33333 1.83331ZM7.5 2.66665C7.5 2.18042 7.69315 1.7141 8.03697 1.37028C8.38079 1.02647 8.8471 0.833313 9.33333 0.833313C9.81956 0.833313 10.2859 1.02647 10.6297 1.37028C10.9735 1.7141 11.1667 2.18042 11.1667 2.66665C11.1667 3.15288 10.9735 3.61919 10.6297 3.96301C10.2859 4.30683 9.81956 4.49998 9.33333 4.49998C8.8471 4.49998 8.38079 4.30683 8.03697 3.96301C7.69315 3.61919 7.5 3.15288 7.5 2.66665ZM7.27933 5.67065C7.13924 5.55871 6.97684 5.478 6.80302 5.43392C6.6292 5.38985 6.44797 5.38342 6.27146 5.41508C6.09495 5.44673 5.92725 5.51574 5.77958 5.61747C5.63191 5.71921 5.50768 5.85132 5.41521 6.00497C5.32275 6.15861 5.26418 6.33024 5.24343 6.50836C5.22269 6.68648 5.24024 6.86697 5.29492 7.03776C5.34959 7.20854 5.44013 7.36567 5.56047 7.49862C5.6808 7.63157 5.82816 7.73727 5.99267 7.80865L8.05267 8.70798C8.47864 8.89395 8.81375 9.24087 8.98486 9.67303C9.15598 10.1052 9.1492 10.5875 8.966 11.0146L8.45933 12.1966C8.40406 12.3137 8.30556 12.4047 8.18453 12.4506C8.06351 12.4966 7.9294 12.4937 7.81041 12.4428C7.69142 12.3918 7.59682 12.2967 7.54651 12.1775C7.49621 12.0582 7.49411 11.9241 7.54067 11.8033L8.04733 10.62C8.1264 10.4355 8.12928 10.2272 8.05534 10.0406C7.9814 9.85401 7.83664 9.70424 7.65267 9.62398L5.59267 8.72531C5.29788 8.59693 5.03391 8.40708 4.81839 8.16848C4.60288 7.92987 4.44079 7.648 4.34296 7.34171C4.24514 7.03543 4.21384 6.71179 4.25115 6.39243C4.28846 6.07308 4.39352 5.76537 4.55931 5.48988C4.7251 5.21439 4.9478 4.97747 5.21251 4.79497C5.47722 4.61247 5.77785 4.48858 6.09429 4.43161C6.41073 4.37463 6.73568 4.38586 7.04743 4.46457C7.35918 4.54327 7.65053 4.68763 7.902 4.88798L9.34133 6.03398C9.44934 6.11992 9.58331 6.16669 9.72133 6.16665H12.3333C12.4659 6.16665 12.5931 6.21933 12.6869 6.31309C12.7807 6.40686 12.8333 6.53404 12.8333 6.66665C12.8333 6.79925 12.7807 6.92643 12.6869 7.0202C12.5931 7.11397 12.4659 7.16665 12.3333 7.16665H9.72133C9.35685 7.1666 9.00316 7.04298 8.718 6.81598L7.28 5.67065H7.27933ZM4 10.5C3.60218 10.5 3.22064 10.658 2.93934 10.9393C2.65804 11.2206 2.5 11.6022 2.5 12C2.5 12.3978 2.65804 12.7793 2.93934 13.0606C3.22064 13.3419 3.60218 13.5 4 13.5C4.39782 13.5 4.77936 13.3419 5.06066 13.0606C5.34196 12.7793 5.5 12.3978 5.5 12C5.5 11.6022 5.34196 11.2206 5.06066 10.9393C4.77936 10.658 4.39782 10.5 4 10.5ZM1.5 12C1.5 11.3369 1.76339 10.7011 2.23223 10.2322C2.70107 9.76337 3.33696 9.49998 4 9.49998C4.66304 9.49998 5.29893 9.76337 5.76777 10.2322C6.23661 10.7011 6.5 11.3369 6.5 12C6.5 12.663 6.23661 13.2989 5.76777 13.7677C5.29893 14.2366 4.66304 14.5 4 14.5C3.33696 14.5 2.70107 14.2366 2.23223 13.7677C1.76339 13.2989 1.5 12.663 1.5 12ZM12 10.5C11.6022 10.5 11.2206 10.658 10.9393 10.9393C10.658 11.2206 10.5 11.6022 10.5 12C10.5 12.3978 10.658 12.7793 10.9393 13.0606C11.2206 13.3419 11.6022 13.5 12 13.5C12.3978 13.5 12.7794 13.3419 13.0607 13.0606C13.342 12.7793 13.5 12.3978 13.5 12C13.5 11.6022 13.342 11.2206 13.0607 10.9393C12.7794 10.658 12.3978 10.5 12 10.5ZM9.5 12C9.5 11.3369 9.76339 10.7011 10.2322 10.2322C10.7011 9.76337 11.337 9.49998 12 9.49998C12.663 9.49998 13.2989 9.76337 13.7678 10.2322C14.2366 10.7011 14.5 11.3369 14.5 12C14.5 12.663 14.2366 13.2989 13.7678 13.7677C13.2989 14.2366 12.663 14.5 12 14.5C11.337 14.5 10.7011 14.2366 10.2322 13.7677C9.76339 13.2989 9.5 12.663 9.5 12Z" fill="#D9D9D9"/>
</svg>
