<svg width="16" height="16" viewBox="0 0 16 16" fill="none" xmlns="http://www.w3.org/2000/svg">
<g clip-path="url(#clip0_74_122)">
<path fill-rule="evenodd" clip-rule="evenodd" d="M11.4467 2.17868C11.2254 1.95762 10.9254 1.83345 10.6127 1.83345C10.2999 1.83345 9.99994 1.95762 9.77868 2.17868C9.40001 2.55735 9.20668 3.23868 9.34135 3.72668C9.40135 3.94335 9.44268 4.20335 9.41935 4.46601C9.39601 4.73068 9.30335 5.02868 9.06601 5.26601L5.26601 9.06601C5.02868 9.30335 4.73068 9.39601 4.46601 9.41935C4.21668 9.43721 3.96615 9.4108 3.72601 9.34135C3.23801 9.20668 2.55735 9.40001 2.17935 9.77868C2.0654 9.88711 1.9743 10.0172 1.9114 10.1614C1.84851 10.3056 1.81508 10.4609 1.8131 10.6182C1.81112 10.7754 1.84062 10.9315 1.89987 11.0772C1.95912 11.2229 2.04692 11.3553 2.15809 11.4666C2.26927 11.5779 2.40158 11.6658 2.54724 11.7251C2.6929 11.7845 2.84897 11.8141 3.00625 11.8123C3.16353 11.8104 3.31885 11.7771 3.46307 11.7143C3.60729 11.6515 3.73749 11.5605 3.84601 11.4467C3.89241 11.4002 3.94752 11.3633 4.00818 11.3381C4.06883 11.3129 4.13386 11.2999 4.19954 11.2999C4.26522 11.2998 4.33028 11.3127 4.39098 11.3377C4.45169 11.3628 4.50686 11.3996 4.55335 11.446C4.59984 11.4924 4.63673 11.5475 4.66192 11.6082C4.68711 11.6688 4.70011 11.7339 4.70017 11.7995C4.70024 11.8652 4.68736 11.9303 4.66228 11.991C4.6372 12.0517 4.60041 12.1069 4.55401 12.1533C4.44197 12.2623 4.35269 12.3924 4.29135 12.5361C4.23002 12.6798 4.19786 12.8343 4.19674 12.9905C4.19561 13.1468 4.22555 13.3017 4.28482 13.4463C4.34408 13.5909 4.43149 13.7222 4.54196 13.8327C4.65243 13.9432 4.78375 14.0307 4.92831 14.09C5.07287 14.1493 5.22778 14.1794 5.38403 14.1783C5.54029 14.1772 5.69477 14.1451 5.83851 14.0839C5.98226 14.0226 6.11239 13.9333 6.22135 13.8213C6.60001 13.4427 6.79335 12.7613 6.65868 12.2733C6.58931 12.0334 6.5629 11.7831 6.58068 11.534C6.60401 11.2693 6.69668 10.9713 6.93401 10.734L10.734 6.93401C10.9713 6.69668 11.2693 6.60401 11.534 6.58068C11.7834 6.56285 12.0339 6.58926 12.274 6.65868C12.762 6.79335 13.4427 6.60001 13.8207 6.22135C14.0252 5.99709 14.1355 5.70263 14.1286 5.39916C14.1217 5.0957 13.998 4.80658 13.7835 4.5919C13.5689 4.37721 13.2798 4.25349 12.9763 4.24643C12.6729 4.23938 12.3784 4.34954 12.154 4.55401C12.0602 4.6479 11.933 4.70068 11.8003 4.70074C11.6675 4.70081 11.5402 4.64815 11.4463 4.55435C11.3525 4.46055 11.2997 4.3333 11.2996 4.20058C11.2996 4.06787 11.3522 3.94057 11.446 3.84668C11.5556 3.73717 11.6424 3.60715 11.7017 3.46405C11.761 3.32095 11.7915 3.16757 11.7915 3.01268C11.7915 2.85779 11.761 2.70441 11.7017 2.56131C11.6424 2.41821 11.5562 2.2882 11.4467 2.17868ZM12.782 3.21801C12.824 2.77156 12.7272 2.32304 12.5049 1.93358C12.2827 1.54412 11.9457 1.23268 11.54 1.0417C11.1343 0.850723 10.6796 0.789506 10.2378 0.866393C9.79601 0.94328 9.38869 1.15453 9.07135 1.47135C8.45868 2.08468 8.13935 3.13068 8.37801 3.99335C8.41668 4.13335 8.43335 4.26935 8.42335 4.37801C8.41401 4.48468 8.38335 4.53401 8.35868 4.55935L4.55868 8.35935C4.53401 8.38401 4.48468 8.41401 4.37801 8.42335C4.24814 8.43052 4.118 8.41518 3.99335 8.37801C3.13068 8.13935 2.08401 8.45868 1.47135 9.07135C1.15453 9.38869 0.94328 9.79601 0.866393 10.2378C0.789506 10.6796 0.850723 11.1343 1.0417 11.54C1.23268 11.9457 1.54412 12.2827 1.93358 12.5049C2.32304 12.7272 2.77156 12.824 3.21801 12.782C3.17568 13.2286 3.27218 13.6774 3.49437 14.0671C3.71655 14.4568 4.05358 14.7685 4.45946 14.9595C4.86534 15.1506 5.32029 15.2117 5.76221 15.1346C6.20413 15.0575 6.61148 14.8459 6.92868 14.5287C7.54135 13.9153 7.86068 12.8693 7.62201 12.0067C7.58486 11.882 7.56953 11.7519 7.57668 11.622C7.58601 11.5153 7.61668 11.466 7.64135 11.4407L11.4413 7.64068C11.466 7.61601 11.5153 7.58601 11.622 7.57668C11.7307 7.56668 11.866 7.58335 12.0067 7.62201C12.8693 7.86068 13.916 7.54135 14.528 6.92868C14.8452 6.61152 15.0567 6.20423 15.1338 5.76238C15.211 5.32054 15.1499 4.86566 14.9589 4.45982C14.7679 4.05398 14.4564 3.71694 14.0668 3.4947C13.6772 3.27246 13.2286 3.17583 12.782 3.21801Z" fill="#D9D9D9"/>
</g>
<defs>
<clipPath id="clip0_74_122">
<rect width="16" height="16" fill="white"/>
</clipPath>
</defs>
</svg>
