<svg width="16" height="16" viewBox="0 0 16 16" fill="none" xmlns="http://www.w3.org/2000/svg">
<path fill-rule="evenodd" clip-rule="evenodd" d="M8.44602 1.00666C8.67135 0.877518 8.93002 0.818382 9.18909 0.836784C9.44815 0.855187 9.69587 0.950296 9.90068 1.10999C11.1327 2.03333 12.5007 3.62999 12.5007 5.87133C12.5007 7.69266 11.7033 8.87533 10.686 9.58466C9.69468 10.2753 8.52135 10.5 7.73335 10.5C6.77338 10.4856 5.84452 10.1573 5.08868 9.56532C4.18468 8.84533 3.50002 7.66533 3.50002 5.87199C3.50002 4.25599 4.43735 3.21733 5.22935 2.68666C5.84268 2.27466 6.75735 2.54266 6.87735 3.37999C6.92068 3.68666 7.07868 3.90466 7.19202 3.97866C7.20535 3.98733 7.21468 3.99199 7.22202 3.99533C7.24691 3.97289 7.26826 3.94682 7.28535 3.91799C7.60668 3.41333 7.73535 2.69266 7.73535 2.25933C7.73535 1.71266 8.02402 1.24799 8.44602 1.00666ZM7.23268 3.99866C7.23338 3.99877 7.23406 3.999 7.23468 3.99933L7.23268 3.99866ZM8.94135 1.87599C8.87611 1.91589 8.82266 1.97242 8.78646 2.03978C8.75026 2.10713 8.73262 2.18291 8.73535 2.25933C8.73535 2.81599 8.58335 3.74133 8.12868 4.45533C7.96335 4.71399 7.73002 4.91333 7.42935 4.97799C7.13135 5.04199 6.85602 4.95399 6.64535 4.81599C6.23868 4.55066 5.96202 4.04533 5.88735 3.52199C5.88659 3.51581 5.88502 3.50976 5.88268 3.50399L5.88002 3.49999C5.88002 3.49999 5.87868 3.49799 5.87335 3.49599C5.86468 3.49266 5.83268 3.48533 5.78535 3.51733C5.17402 3.92733 4.49935 4.69066 4.49935 5.87133C4.49935 7.37999 5.05935 8.26466 5.71068 8.78333C6.28979 9.23442 6.99942 9.48585 7.73335 9.49999C8.36802 9.49999 9.32802 9.31199 10.1147 8.76399C10.8747 8.23466 11.5 7.35266 11.5 5.87133C11.5 4.07133 10.4027 2.73599 9.30068 1.90999C9.16735 1.80999 9.04335 1.81799 8.94135 1.87599ZM10.144 6.18799C10.2069 6.20685 10.2655 6.23792 10.3164 6.27942C10.3673 6.32092 10.4095 6.37204 10.4407 6.42986C10.4718 6.48768 10.4913 6.55107 10.4979 6.61641C10.5045 6.68175 10.4982 6.74776 10.4793 6.81066C10.2993 7.40799 9.55668 8.49999 8.00002 8.49999C7.86741 8.49999 7.74023 8.44731 7.64646 8.35355C7.55269 8.25978 7.50002 8.1326 7.50002 7.99999C7.50002 7.86738 7.55269 7.74021 7.64646 7.64644C7.74023 7.55267 7.86741 7.49999 8.00002 7.49999C9.00402 7.49999 9.43335 6.81466 9.52135 6.52266C9.55957 6.39573 9.64664 6.28918 9.7634 6.22642C9.88016 6.16366 10.0171 6.14984 10.144 6.18799ZM2.20868 9.79933C2.23503 9.73918 2.27297 9.68481 2.32033 9.63932C2.36769 9.59384 2.42355 9.55813 2.48472 9.53423C2.54588 9.51034 2.61115 9.49872 2.6768 9.50005C2.74246 9.50138 2.8072 9.51564 2.86735 9.54199L6.20068 11C6.26087 11.0263 6.31529 11.0642 6.36083 11.1115C6.40637 11.1589 6.44214 11.2147 6.4661 11.2759C6.49005 11.3371 6.50173 11.4023 6.50046 11.468C6.49919 11.5337 6.48499 11.5985 6.45868 11.6587C6.43237 11.7188 6.39447 11.7733 6.34713 11.8188C6.29979 11.8643 6.24394 11.9001 6.18278 11.9241C6.12162 11.948 6.05634 11.9597 5.99066 11.9584C5.92499 11.9572 5.8602 11.943 5.80002 11.9167L2.46668 10.458C2.40648 10.4317 2.35204 10.3938 2.30648 10.3465C2.26093 10.2991 2.22515 10.2433 2.20119 10.1821C2.17723 10.121 2.16556 10.0557 2.16684 9.98998C2.16813 9.9243 2.18235 9.85951 2.20868 9.79933ZM13.7913 9.79933C13.8177 9.85947 13.832 9.92422 13.8333 9.98987C13.8346 10.0555 13.823 10.1208 13.7991 10.182C13.7752 10.2431 13.7395 10.299 13.694 10.3463C13.6485 10.3937 13.5942 10.4316 13.534 10.458L2.86735 15.1247C2.74642 15.1747 2.61072 15.1753 2.48935 15.1263C2.36799 15.0774 2.27064 14.9829 2.2182 14.863C2.16576 14.7431 2.16241 14.6074 2.20886 14.4851C2.25532 14.3628 2.34788 14.2635 2.46668 14.2087L13.1333 9.54199C13.2547 9.48897 13.3922 9.48629 13.5156 9.53454C13.639 9.58279 13.7381 9.67802 13.7913 9.79933ZM9.20868 12.862C9.23503 12.8018 9.27297 12.7475 9.32033 12.702C9.36769 12.6565 9.42355 12.6208 9.48472 12.5969C9.54588 12.573 9.61115 12.5614 9.6768 12.5627C9.74246 12.5641 9.8072 12.5783 9.86735 12.6047L13.534 14.2087C13.5955 14.2341 13.6513 14.2715 13.6981 14.3187C13.7449 14.366 13.7818 14.4221 13.8067 14.4838C13.8316 14.5455 13.8439 14.6115 13.8429 14.678C13.8419 14.7445 13.8277 14.8102 13.8011 14.8711C13.7744 14.932 13.7359 14.987 13.6877 15.0329C13.6395 15.0788 13.5827 15.1145 13.5205 15.1381C13.4583 15.1618 13.392 15.1727 13.3256 15.1704C13.2591 15.1681 13.1937 15.1525 13.1333 15.1247L9.46668 13.5207C9.40648 13.4944 9.35204 13.4565 9.30648 13.4091C9.26093 13.3618 9.22515 13.306 9.20119 13.2448C9.17723 13.1836 9.16556 13.1183 9.16684 13.0526C9.16813 12.987 9.18235 12.9222 9.20868 12.862Z" fill="#D9D9D9"/>
</svg>
