<svg width="16" height="16" viewBox="0 0 16 16" fill="none" xmlns="http://www.w3.org/2000/svg">
<path fill-rule="evenodd" clip-rule="evenodd" d="M11.2513 1.73202L11.2347 1.76269L11.184 1.85469L11.7613 2.20268L11.8133 2.10802L11.8293 2.08002L11.802 2.06335L11.2813 1.75002L11.2513 1.73202ZM11.47 3.19468L10.4887 2.60335L8.71201 3.47669C8.01364 3.80791 7.47279 4.3995 7.20534 5.12469L7.24468 5.10469C7.6382 4.90796 8.07984 4.82808 8.51734 4.87451C8.95484 4.92095 9.36988 5.09174 9.71334 5.36669C10.058 5.64269 10.52 5.72469 10.9393 5.58535L11.6427 5.35069L11.636 5.26202L11.47 3.19468ZM12.6413 5.86002C12.6716 5.76889 12.6749 5.67095 12.6507 5.57802C12.6507 5.49068 12.648 5.40269 12.6427 5.31535L12.6327 5.18669L12.458 3.00869L12.6947 2.58069C12.7345 2.51184 12.7715 2.44134 12.8053 2.36935C12.8407 2.29202 12.8793 2.18668 12.8853 2.05802C12.8932 1.88627 12.8478 1.71628 12.7553 1.57135C12.6959 1.48115 12.6196 1.40328 12.5307 1.34202C12.4652 1.29652 12.3978 1.25382 12.3287 1.21402L12.318 1.20735L11.7853 0.886018C11.7135 0.841663 11.6401 0.799859 11.5653 0.760685C11.4641 0.707967 11.3532 0.676437 11.2393 0.668018C11.0595 0.657383 10.881 0.705335 10.7307 0.804685C10.6364 0.868721 10.5561 0.951286 10.4947 1.04735C10.4513 1.11268 10.4073 1.19269 10.3667 1.26602L10.1513 1.65469L8.26667 2.58135L8.15468 2.63668C7.07068 3.19335 6.30668 4.24002 6.07734 5.45868C6.07068 5.49202 6.06468 5.52735 6.05468 5.58535L6.05401 5.59002L6.03401 5.70602C5.85464 6.70341 5.36601 7.61908 4.63734 8.32335L4.10134 8.85069C3.76534 9.18135 3.49468 9.44735 3.29201 9.67735C3.08534 9.91069 2.91868 10.1394 2.81868 10.402C2.68675 10.749 2.63988 11.1226 2.68199 11.4914C2.72409 11.8603 2.85394 12.2137 3.06068 12.522C3.21801 12.7554 3.43268 12.9394 3.68668 13.118C3.93534 13.2934 4.25934 13.488 4.66001 13.73L5.13534 14.0167C5.53601 14.2574 5.86001 14.4527 6.13001 14.59C6.40468 14.73 6.66734 14.834 6.94668 14.86C7.31316 14.8931 7.68202 14.8318 8.01811 14.682C8.3542 14.5321 8.64633 14.2987 8.86668 14.004C9.03601 13.7814 9.14201 13.5167 9.23201 13.2154C9.32067 12.9187 9.40601 12.5414 9.51201 12.072L9.68201 11.324L9.70801 11.2107C9.93886 10.2262 10.4748 9.33981 11.2393 8.67802L11.2433 8.67469L11.3373 8.59135C12.1076 7.88285 12.5747 6.90443 12.6413 5.86002ZM11.5307 6.44202L11.2553 6.53402C10.8906 6.65556 10.5013 6.68384 10.1228 6.6163C9.74436 6.54876 9.38884 6.38755 9.08868 6.14735C8.89434 5.99183 8.65952 5.89523 8.412 5.86901C8.16448 5.84278 7.91462 5.88801 7.69201 5.99935L6.90134 6.39469C6.63813 7.3584 6.13066 8.23787 5.42801 8.94802L5.34134 9.03469L4.81534 9.55069C4.46334 9.89735 4.21734 10.1394 4.04134 10.3387C3.86601 10.5374 3.79001 10.66 3.75268 10.7587C3.60068 11.1587 3.65268 11.612 3.88934 11.9634C3.94734 12.0487 4.04734 12.15 4.26201 12.3C4.47801 12.4527 4.77134 12.6294 5.19201 12.8827L5.63534 13.1494C6.05601 13.4034 6.34934 13.5794 6.58334 13.6987C6.81668 13.8174 6.94734 13.856 7.04001 13.8647C7.43068 13.9014 7.81868 13.7314 8.06934 13.4007C8.13201 13.3187 8.19601 13.188 8.27401 12.9287C8.35134 12.6687 8.43001 12.3247 8.54068 11.8334L8.70734 11.1L8.73534 10.9787C9.00426 9.83496 9.61431 8.79992 10.4847 8.01068L10.576 7.93002L10.5787 7.92735L10.664 7.85202C11.0783 7.47171 11.3785 6.98344 11.5307 6.44202Z" fill="#D9D9D9"/>
</svg>
