<svg width="16" height="16" viewBox="0 0 16 16" fill="none" xmlns="http://www.w3.org/2000/svg">
<g clip-path="url(#clip0_74_135)">
<path fill-rule="evenodd" clip-rule="evenodd" d="M15.1667 4.66664C15.1664 4.08888 15.0355 3.51864 14.7839 2.99858C14.5322 2.47851 14.1662 2.02206 13.7133 1.66335C13.2603 1.30465 12.7322 1.05296 12.1683 0.927119C11.6044 0.801274 11.0193 0.804524 10.4569 0.936625C9.89441 1.06873 9.36909 1.32626 8.92017 1.68998C8.47126 2.05369 8.11037 2.51418 7.86448 3.03701C7.61859 3.55984 7.49407 4.13149 7.50022 4.70923C7.50637 5.28696 7.64304 5.85583 7.9 6.37331C7.90433 6.38167 7.90726 6.39067 7.90867 6.39998V6.40464L7.71067 7.14664C7.66839 7.30482 7.66847 7.47134 7.7109 7.62948C7.75333 7.78762 7.83661 7.93181 7.95239 8.04759C8.06816 8.16337 8.21236 8.24665 8.3705 8.28908C8.52864 8.3315 8.69515 8.33158 8.85333 8.28931L9.59533 8.09064C9.594 8.09064 9.59467 8.09064 9.59533 8.09064H9.6C9.60935 8.09223 9.61837 8.09538 9.62667 8.09998C10.2112 8.3906 10.8602 8.52715 11.5123 8.49668C12.1643 8.46621 12.7978 8.26973 13.3526 7.92587C13.9075 7.58201 14.3654 7.10215 14.6828 6.53178C15.0003 5.9614 15.1668 5.31941 15.1667 4.66664ZM11.3333 1.83331C11.7603 1.83359 12.1817 1.93037 12.5661 2.11642C12.9504 2.30247 13.2877 2.57299 13.5528 2.90774C13.8178 3.24249 14.0038 3.63282 14.0968 4.04957C14.1898 4.46631 14.1874 4.89868 14.0898 5.31437C13.9922 5.73005 13.8019 6.1183 13.5331 6.45009C13.2643 6.78188 12.9241 7.04863 12.5377 7.23041C12.1513 7.41218 11.7289 7.50428 11.3019 7.49982C10.8749 7.49536 10.4545 7.39445 10.072 7.20464C9.84504 7.08936 9.58379 7.06091 9.33733 7.12464L8.70667 7.29331L8.87533 6.66264C8.93913 6.41619 8.91068 6.15492 8.79533 5.92798C8.58054 5.49593 8.47964 5.01619 8.50218 4.53423C8.52473 4.05227 8.66999 3.58404 8.92418 3.17394C9.17837 2.76384 9.53309 2.42545 9.95469 2.19083C10.3763 1.95622 10.8508 1.83316 11.3333 1.83331Z" fill="#D9D9D9"/>
<path fill-rule="evenodd" clip-rule="evenodd" d="M2.00464 4.27131C3.12464 3.15131 5.0153 3.23664 5.79464 4.63398L6.22797 5.40931C6.73664 6.32131 6.51997 7.47264 5.77464 8.22731C5.73061 8.29407 5.70655 8.37201 5.7053 8.45198C5.69664 8.62264 5.7573 9.01798 6.36997 9.62998C6.98197 10.242 7.37664 10.3033 7.54797 10.2946C7.62793 10.2934 7.70588 10.2693 7.77264 10.2253C8.52664 9.47998 9.67864 9.26331 10.5906 9.77198L11.366 10.2053C12.7633 10.9853 12.8486 12.8753 11.7286 13.9946C11.1293 14.5946 10.3326 15.1266 9.39664 15.1613C8.00997 15.2146 5.70597 14.856 3.42464 12.5746C1.14397 10.294 0.785303 7.99064 0.83797 6.60331C0.873303 5.66664 1.40597 4.86998 2.00464 4.27131ZM4.92197 5.12131C4.52197 4.40531 3.44864 4.24131 2.71197 4.97864C2.1953 5.49531 1.85864 6.06531 1.8373 6.64064C1.7933 7.79798 2.0793 9.81531 4.13197 11.868C6.1853 13.9213 8.20197 14.2066 9.35864 14.1626C9.93397 14.1406 10.5053 13.8046 11.0213 13.288C11.7586 12.5506 11.5946 11.4773 10.8786 11.078L10.1033 10.6453C9.6213 10.3766 8.9433 10.468 8.46864 10.944C8.42197 10.9906 8.12397 11.268 7.59664 11.2933C7.05664 11.32 6.40264 11.0773 5.6633 10.3373C4.92264 9.59731 4.67997 8.94331 4.70664 8.40264C4.73197 7.87531 5.00997 7.57798 5.05597 7.53198C5.53197 7.05598 5.6233 6.37864 5.35464 5.89664L4.92197 5.12131Z" fill="#D9D9D9"/>
</g>
<defs>
<clipPath id="clip0_74_135">
<rect width="16" height="16" fill="white"/>
</clipPath>
</defs>
</svg>
