<svg width="16" height="16" viewBox="0 0 16 16" fill="none" xmlns="http://www.w3.org/2000/svg">
<path d="M5.83337 8.66669C5.83337 8.53408 5.7807 8.4069 5.68693 8.31313C5.59316 8.21937 5.46598 8.16669 5.33337 8.16669C5.20077 8.16669 5.07359 8.21937 4.97982 8.31313C4.88605 8.4069 4.83337 8.53408 4.83337 8.66669V11.3334C4.83337 11.466 4.88605 11.5931 4.97982 11.6869C5.07359 11.7807 5.20077 11.8334 5.33337 11.8334C5.46598 11.8334 5.59316 11.7807 5.68693 11.6869C5.7807 11.5931 5.83337 11.466 5.83337 11.3334V8.66669ZM10.6667 8.16669C10.7993 8.16669 10.9265 8.21937 11.0203 8.31313C11.114 8.4069 11.1667 8.53408 11.1667 8.66669V11.3334C11.1667 11.466 11.114 11.5931 11.0203 11.6869C10.9265 11.7807 10.7993 11.8334 10.6667 11.8334C10.5341 11.8334 10.4069 11.7807 10.3132 11.6869C10.2194 11.5931 10.1667 11.466 10.1667 11.3334V8.66669C10.1667 8.53408 10.2194 8.4069 10.3132 8.31313C10.4069 8.21937 10.5341 8.16669 10.6667 8.16669ZM8.50004 8.66669C8.50004 8.53408 8.44736 8.4069 8.35359 8.31313C8.25983 8.21937 8.13265 8.16669 8.00004 8.16669C7.86743 8.16669 7.74026 8.21937 7.64649 8.31313C7.55272 8.4069 7.50004 8.53408 7.50004 8.66669V11.3334C7.50004 11.466 7.55272 11.5931 7.64649 11.6869C7.74026 11.7807 7.86743 11.8334 8.00004 11.8334C8.13265 11.8334 8.25983 11.7807 8.35359 11.6869C8.44736 11.5931 8.50004 11.466 8.50004 11.3334V8.66669Z" fill="#D9D9D9"/>
<path fill-rule="evenodd" clip-rule="evenodd" d="M11.516 2.31533C11.1987 2.19133 10.8433 2.17067 10.388 2.16733C10.2934 1.96765 10.1441 1.79892 9.95741 1.68078C9.7707 1.56264 9.55428 1.49995 9.33333 1.5H6.66667C6.44579 1.49989 6.22943 1.56248 6.04273 1.6805C5.85603 1.79852 5.70666 1.96711 5.612 2.16667C5.156 2.17067 4.80133 2.19133 4.484 2.31533C4.10518 2.46351 3.77573 2.71534 3.53333 3.042C3.28867 3.37067 3.17333 3.79333 3.016 4.374L2.59733 5.90933C2.33482 6.04126 2.10485 6.22979 1.924 6.46133C1.50933 6.99267 1.436 7.62533 1.51 8.35067C1.58133 9.05467 1.80333 9.94133 2.08067 11.0507L2.098 11.122C2.274 11.8233 2.416 12.3933 2.58533 12.838C2.762 13.302 2.98667 13.682 3.356 13.9707C3.726 14.2593 4.14933 14.384 4.642 14.444C5.114 14.5 5.702 14.5 6.42533 14.5H9.57467C10.298 14.5 10.8853 14.5 11.358 14.4433C11.8513 14.3847 12.274 14.2593 12.6433 13.97C13.0133 13.682 13.2373 13.302 13.414 12.838C13.584 12.3933 13.726 11.8233 13.9013 11.1213L13.9193 11.0513C14.1967 9.94133 14.418 9.05467 14.49 8.35133C14.5633 7.62467 14.49 6.99267 14.0753 6.46133C13.8947 6.22987 13.6649 6.04135 13.4027 5.90933L12.984 4.374C12.826 3.79333 12.7107 3.37067 12.4667 3.04133C12.2242 2.71492 11.8947 2.46333 11.516 2.31533ZM4.848 3.24667C4.99467 3.18933 5.172 3.17267 5.61267 3.168C5.80067 3.56133 6.202 3.83333 6.666 3.83333H9.33267C9.798 3.83333 10.1993 3.56133 10.3873 3.168C10.828 3.17267 11.0053 3.18933 11.152 3.24667C11.356 3.32667 11.5333 3.462 11.664 3.638C11.7813 3.796 11.85 4.01667 12.044 4.728L12.28 5.59267C11.588 5.5 10.6947 5.5 9.58467 5.5H6.41467C5.30533 5.5 4.412 5.5 3.72 5.59267L3.956 4.728C4.14933 4.01667 4.21867 3.796 4.336 3.638C4.46654 3.46207 4.64398 3.32645 4.848 3.24667ZM6.66667 2.5C6.62246 2.5 6.58007 2.51756 6.54882 2.54882C6.51756 2.58007 6.5 2.62246 6.5 2.66667C6.5 2.71087 6.51756 2.75326 6.54882 2.78452C6.58007 2.81577 6.62246 2.83333 6.66667 2.83333H9.33333C9.37754 2.83333 9.41993 2.81577 9.45119 2.78452C9.48244 2.75326 9.5 2.71087 9.5 2.66667C9.5 2.62246 9.48244 2.58007 9.45119 2.54882C9.41993 2.51756 9.37754 2.5 9.33333 2.5H6.66667ZM2.71267 7.07667C2.89867 6.83867 3.19267 6.67867 3.79933 6.59067C4.42 6.50133 5.26133 6.5 6.45667 6.5H9.54333C10.7387 6.5 11.5793 6.50133 12.2 6.59067C12.8073 6.67867 13.1013 6.83867 13.2873 7.07733C13.4733 7.31533 13.5573 7.63867 13.4947 8.24933C13.4313 8.87333 13.2287 9.68933 12.9387 10.8493C12.754 11.588 12.6253 12.1 12.48 12.4827C12.3387 12.852 12.2007 13.0473 12.028 13.1827C11.8553 13.3173 11.632 13.4033 11.2393 13.4507C10.8327 13.4993 10.306 13.5 9.54333 13.5H6.45667C5.694 13.5 5.16667 13.4993 4.76067 13.4507C4.36733 13.404 4.14467 13.3173 3.972 13.1827C3.79867 13.0473 3.66067 12.852 3.52 12.4827C3.37467 12.1 3.246 11.588 3.06067 10.8493C2.77133 9.68933 2.568 8.87333 2.50467 8.24933C2.44267 7.63867 2.52667 7.31467 2.71267 7.07667Z" fill="#D9D9D9"/>
</svg>
