<svg width="16" height="16" viewBox="0 0 16 16" fill="none" xmlns="http://www.w3.org/2000/svg">
<path fill-rule="evenodd" clip-rule="evenodd" d="M8.01334 9.958C7.81868 9.958 7.62001 9.988 7.45201 10.0533C7.35202 10.0905 7.2598 10.1459 7.18001 10.2167C7.11641 10.2733 7.06535 10.3425 7.0301 10.42C6.99486 10.4975 6.9762 10.5815 6.97534 10.6667C6.97534 10.8833 7.09068 11.0347 7.18001 11.116C7.26868 11.198 7.37001 11.248 7.45201 11.28C7.62068 11.3453 7.81868 11.3747 8.01334 11.3747C8.20668 11.3747 8.40534 11.3453 8.57334 11.28C8.65667 11.248 8.75734 11.198 8.84668 11.116C8.9101 11.0594 8.96101 10.9903 8.99614 10.9129C9.03127 10.8355 9.04985 10.7516 9.05068 10.6667C9.04985 10.5815 9.03122 10.4975 8.99597 10.42C8.96072 10.3425 8.90964 10.2732 8.84601 10.2167C8.76621 10.1459 8.67399 10.0905 8.57401 10.0533C8.3944 9.98799 8.20445 9.95569 8.01334 9.958Z" fill="#D9D9D9"/>
<path d="M9.35796 8.43065C9.4673 8.25332 9.68463 8.04132 10.0113 8.04132C10.3366 8.04132 10.554 8.25332 10.664 8.43065C10.7786 8.61599 10.8333 8.84065 10.8333 9.06265C10.8333 9.28399 10.7786 9.50932 10.664 9.69399C10.554 9.87132 10.3373 10.0833 10.0106 10.0833C9.68463 10.0833 9.4673 9.87132 9.3573 9.69399C9.24387 9.50312 9.18528 9.28467 9.18796 9.06265C9.18796 8.84065 9.24263 8.61599 9.35796 8.43065ZM6.01063 8.04199C5.6853 8.04199 5.46796 8.25332 5.3573 8.43065C5.24376 8.62172 5.18516 8.84042 5.18796 9.06265C5.18796 9.28399 5.24263 9.50932 5.35796 9.69399C5.46796 9.87132 5.68463 10.0833 6.0113 10.0833C6.33663 10.0833 6.55396 9.87132 6.66463 9.69399C6.77863 9.50865 6.8333 9.28399 6.8333 9.06265C6.8333 8.84065 6.77863 8.61599 6.66396 8.43065C6.55396 8.25332 6.3373 8.04199 6.01063 8.04199Z" fill="#D9D9D9"/>
<path fill-rule="evenodd" clip-rule="evenodd" d="M4.06331 2.83331C3.65398 2.83331 3.18331 2.95265 2.80598 3.27731C2.41464 3.61398 2.17998 4.12531 2.17998 4.79131V6.04331C2.18064 6.23931 2.21398 6.63198 2.32598 6.95931C2.36264 7.06665 2.42064 7.20865 2.51864 7.33731C2.34422 7.69354 2.23581 8.07842 2.19864 8.47331C2.16464 8.78465 2.16398 9.11198 2.16931 9.41398C1.72931 9.56731 1.27264 9.75665 1.06264 9.89265C0.954871 9.9661 0.880065 10.0788 0.854184 10.2066C0.828302 10.3344 0.853394 10.4673 0.924106 10.5769C0.994819 10.6865 1.10555 10.7641 1.23269 10.7932C1.35983 10.8223 1.4933 10.8006 1.60464 10.7326C1.68198 10.6826 1.91131 10.5773 2.21264 10.4626C2.25864 10.782 2.35131 11.0726 2.48131 11.3373C2.36559 11.4097 2.25091 11.4837 2.13731 11.5593C2.08216 11.5949 2.03456 11.6411 1.99724 11.6951C1.95992 11.7491 1.9336 11.81 1.9198 11.8742C1.90599 11.9384 1.90497 12.0047 1.91678 12.0693C1.92859 12.1339 1.95301 12.1955 1.98864 12.2506C2.02428 12.3058 2.07042 12.3534 2.12445 12.3907C2.17848 12.428 2.23933 12.4544 2.30352 12.4682C2.36772 12.482 2.434 12.483 2.4986 12.4712C2.56319 12.4594 2.62482 12.4349 2.67998 12.3993L2.76731 12.342C2.85464 12.2853 2.95531 12.2193 3.06464 12.1526C3.45798 12.554 3.94598 12.864 4.45264 13.0973C5.63998 13.644 7.04598 13.8333 7.99998 13.8333C8.95398 13.8333 10.36 13.6433 11.5473 13.0973C12.054 12.864 12.5426 12.554 12.9353 12.1526C13.0446 12.2193 13.1453 12.2853 13.2326 12.342L13.32 12.3993C13.4314 12.4713 13.5668 12.496 13.6964 12.4682C13.8261 12.4403 13.9394 12.362 14.0113 12.2506C14.0833 12.1393 14.108 12.0038 14.0802 11.8742C14.0523 11.7445 13.974 11.6313 13.8626 11.5593L13.7873 11.51C13.714 11.462 13.6226 11.402 13.5186 11.3373C13.6486 11.0733 13.742 10.782 13.788 10.4626C14.0893 10.5773 14.318 10.6826 14.396 10.7326C14.5073 10.8006 14.6408 10.8223 14.7679 10.7932C14.8951 10.7641 15.0058 10.6865 15.0765 10.5769C15.1472 10.4673 15.1723 10.3344 15.1464 10.2066C15.1206 10.0788 15.0458 9.9661 14.938 9.89265C14.728 9.75665 14.2713 9.56731 13.8306 9.41398C13.8405 9.0999 13.8307 8.78551 13.8013 8.47265C13.7641 8.07798 13.6557 7.69332 13.4813 7.33731C13.5793 7.20865 13.6373 7.06665 13.6746 6.95931C13.7674 6.66268 13.8164 6.35409 13.82 6.04331V4.79198C13.82 4.12531 13.5853 3.61465 13.194 3.27731C12.8173 2.95265 12.346 2.83331 11.9366 2.83331C11.6646 2.83331 11.3833 2.93798 11.156 3.03998C10.9105 3.15539 10.6707 3.28243 10.4373 3.42065L10.2953 3.50265L10.294 3.50331C10.118 3.60531 9.96198 3.69665 9.82265 3.76798C9.75641 3.80281 9.68831 3.83397 9.61864 3.86131C9.60508 3.8664 9.59129 3.87085 9.57731 3.87465C9.43268 3.87307 9.28834 3.86149 9.14531 3.83998L9.03731 3.82665C8.69313 3.78531 8.34661 3.7666 7.99998 3.77065C7.48531 3.77065 7.19331 3.79798 6.96264 3.82665L6.85464 3.83998C6.71162 3.86149 6.56727 3.87308 6.42264 3.87465C6.40867 3.87084 6.39488 3.86639 6.38131 3.86131C6.31157 3.83415 6.24346 3.80299 6.17731 3.76798C6.01816 3.68344 5.86101 3.59519 5.70598 3.50331L5.56264 3.42065C5.32947 3.28267 5.08987 3.15586 4.84465 3.04065C4.61731 2.93798 4.33531 2.83331 4.06331 2.83331ZM4.10798 11.7426C4.33064 11.9106 4.58731 12.0586 4.87065 12.1893C5.89065 12.6586 7.14531 12.8333 7.99998 12.8333C8.85464 12.8333 10.1086 12.6586 11.1293 12.1893C11.4126 12.0586 11.6693 11.9106 11.892 11.7426C11.7685 11.7213 11.6576 11.6543 11.5811 11.555C11.5047 11.4557 11.4683 11.3313 11.4792 11.2065C11.4901 11.0817 11.5475 10.9655 11.64 10.8809C11.7325 10.7964 11.8533 10.7496 11.9786 10.75C12.1966 10.75 12.42 10.8046 12.6266 10.88C12.7355 10.6514 12.7996 10.404 12.8153 10.1513C12.6825 10.1147 12.5462 10.0919 12.4086 10.0833C12.276 10.0833 12.1489 10.0306 12.0551 9.93687C11.9613 9.8431 11.9086 9.71592 11.9086 9.58331C11.9086 9.45071 11.9613 9.32353 12.0551 9.22976C12.1489 9.13599 12.276 9.08331 12.4086 9.08331C12.5386 9.08331 12.6853 9.10331 12.8333 9.13131C12.8333 8.94731 12.8273 8.76665 12.8073 8.58131C12.7606 8.15131 12.6386 7.76931 12.3513 7.42998C12.2355 7.295 12.1041 7.17416 11.96 7.06998C11.853 6.99148 11.7816 6.87369 11.7615 6.74254C11.7413 6.61139 11.7741 6.47762 11.8526 6.37065C11.9311 6.26368 12.0489 6.19227 12.1801 6.17214C12.3112 6.15201 12.445 6.18481 12.552 6.26331C12.632 6.32198 12.7066 6.38198 12.7773 6.44331C12.8066 6.29131 12.82 6.13198 12.82 6.04065V4.79198C12.82 4.37465 12.6826 4.15665 12.5413 4.03531C12.3866 3.90198 12.1666 3.83331 11.9366 3.83331C11.89 3.83331 11.7726 3.85931 11.5673 3.95198C11.376 4.03865 11.162 4.15731 10.936 4.28731C10.8931 4.31215 10.8502 4.33704 10.8073 4.36198C10.6286 4.46531 10.444 4.57265 10.2806 4.65665C10.1773 4.70998 10.07 4.76065 9.96664 4.79931C9.8485 4.84619 9.72303 4.87192 9.59598 4.87531C9.39894 4.87457 9.20221 4.85964 9.00731 4.83065L8.91598 4.81931C8.61205 4.7829 8.30605 4.76664 7.99998 4.77065C7.52798 4.77065 7.27664 4.79531 7.08464 4.81931L6.99264 4.83065C6.82598 4.85265 6.65198 4.87465 6.40398 4.87465C6.26198 4.87465 6.12931 4.83465 6.03398 4.79931C5.92635 4.75804 5.82128 4.7104 5.71931 4.65665C5.55598 4.57265 5.37131 4.46531 5.19265 4.36198L5.06398 4.28731C4.83798 4.15731 4.62398 4.03798 4.43264 3.95198C4.22731 3.85865 4.10998 3.83331 4.06331 3.83331C3.83398 3.83331 3.61331 3.90198 3.45864 4.03531C3.31731 4.15665 3.17998 4.37531 3.17998 4.79198V6.03998C3.17998 6.13131 3.19331 6.29065 3.22264 6.44265C3.29398 6.38131 3.36931 6.32131 3.44798 6.26265C3.50094 6.22378 3.56105 6.19572 3.62486 6.18007C3.68867 6.16443 3.75494 6.16151 3.81987 6.17148C3.88481 6.18144 3.94715 6.2041 4.00334 6.23816C4.05952 6.27222 4.10844 6.31701 4.14731 6.36998C4.18618 6.42295 4.21424 6.48305 4.22988 6.54686C4.24553 6.61067 4.24845 6.67694 4.23848 6.74188C4.22851 6.80682 4.20585 6.86916 4.1718 6.92534C4.13774 6.98152 4.09294 7.03044 4.03998 7.06931C3.87998 7.18665 3.75131 7.30731 3.64864 7.42931C3.36198 7.76931 3.23931 8.15065 3.19264 8.58065C3.17264 8.76598 3.16598 8.94731 3.16598 9.13065C3.31464 9.10198 3.46131 9.08265 3.59131 9.08265C3.72392 9.08265 3.8511 9.13532 3.94486 9.22909C4.03863 9.32286 4.09131 9.45004 4.09131 9.58265C4.09131 9.71525 4.03863 9.84243 3.94486 9.9362C3.8511 10.03 3.72392 10.0826 3.59131 10.0826C3.52064 10.0826 3.38331 10.1026 3.18464 10.1506C3.20264 10.416 3.26798 10.658 3.37331 10.8793C3.58017 10.7989 3.79942 10.7549 4.02131 10.7493C4.14663 10.749 4.2675 10.7957 4.36 10.8802C4.45249 10.9648 4.50987 11.081 4.52077 11.2058C4.53167 11.3307 4.4953 11.455 4.41885 11.5543C4.3424 11.6536 4.23145 11.7213 4.10798 11.7426Z" fill="#D9D9D9"/>
</svg>
