<svg width="16" height="16" viewBox="0 0 16 16" fill="none" xmlns="http://www.w3.org/2000/svg">
<path fill-rule="evenodd" clip-rule="evenodd" d="M7.77337 3.83331C7.21604 3.83331 6.85737 4.22798 6.85737 4.60665C6.85737 4.73925 6.80469 4.86643 6.71092 4.9602C6.61716 5.05397 6.48998 5.10665 6.35737 5.10665C6.22476 5.10665 6.09758 5.05397 6.00382 4.9602C5.91005 4.86643 5.85737 4.73925 5.85737 4.60665C5.85737 3.57798 6.7667 2.83331 7.77337 2.83331C8.78004 2.83331 9.68937 3.57798 9.68937 4.60665C9.68937 5.05998 9.52404 5.48265 9.22937 5.80265C9.13604 5.90465 9.03337 6.00598 8.93937 6.09931L8.89004 6.14731C8.78773 6.24625 8.68965 6.34945 8.59604 6.45665C8.54616 6.51418 8.50049 6.57523 8.45937 6.63931C8.84416 6.7115 9.21025 6.8612 9.53537 7.07931L14.4907 10.4193C15.124 10.846 15.2954 11.5506 15.0754 12.1446C14.8587 12.7286 14.2814 13.1666 13.5314 13.1666H2.46804C1.7267 13.1666 1.15204 12.7366 0.930704 12.16C0.70537 11.5733 0.864037 10.8726 1.4827 10.438L6.2127 7.10998C6.56606 6.86329 6.97017 6.69882 7.39537 6.62865C7.46537 6.29065 7.65737 6.01665 7.83404 5.80865C7.9487 5.67398 8.07404 5.54798 8.1867 5.43665L8.24004 5.38331C8.33537 5.28998 8.41804 5.20798 8.49337 5.12598C8.6147 4.99398 8.68937 4.81398 8.68937 4.60598C8.68937 4.22798 8.3307 3.83331 7.77337 3.83331ZM8.9767 7.90798C8.64989 7.69175 8.26518 7.5797 7.87337 7.58665C7.48548 7.58858 7.10721 7.70754 6.78804 7.92798L2.05804 11.2553C1.82737 11.4173 1.79737 11.6273 1.8647 11.8013C1.9347 11.9846 2.13337 12.1666 2.46804 12.1666H13.5314C13.8707 12.1666 14.0687 11.982 14.138 11.7966C14.2027 11.6206 14.1694 11.4086 13.9314 11.2486L8.9767 7.90798Z" fill="#D9D9D9"/>
</svg>
