<svg width="16" height="16" viewBox="0 0 16 16" fill="none" xmlns="http://www.w3.org/2000/svg">
<path fill-rule="evenodd" clip-rule="evenodd" d="M5.29671 1.5H10.7034C11.6147 1.5 12.35 1.5 12.928 1.578C13.528 1.658 14.0334 1.83133 14.4347 2.232C14.836 2.63333 15.008 3.13867 15.0894 3.73867C15.1667 4.31667 15.1667 5.052 15.1667 5.96333V6.70333C15.1667 7.61467 15.1667 8.35 15.0894 8.928C15.008 9.528 14.836 10.0333 14.4347 10.4347C14.0334 10.836 13.528 11.008 12.928 11.0893C12.35 11.1667 11.6147 11.1667 10.7034 11.1667H8.50004V12.3067L12.158 13.5253C12.2204 13.5461 12.278 13.5789 12.3277 13.6219C12.3773 13.665 12.418 13.7173 12.4474 13.7761C12.4768 13.8348 12.4944 13.8988 12.499 13.9643C12.5037 14.0299 12.4955 14.0957 12.4747 14.158C12.454 14.2203 12.4211 14.278 12.3781 14.3276C12.3351 14.3773 12.2827 14.418 12.224 14.4474C12.1652 14.4768 12.1012 14.4943 12.0357 14.499C11.9702 14.5037 11.9044 14.4954 11.842 14.4747L8.00004 13.1933L4.15804 14.4733C4.09509 14.497 4.028 14.5077 3.96081 14.5049C3.89361 14.502 3.82768 14.4856 3.76696 14.4567C3.70624 14.4278 3.65199 14.3869 3.60744 14.3365C3.56289 14.2861 3.52897 14.2273 3.5077 14.1634C3.48643 14.0996 3.47825 14.0322 3.48366 13.9652C3.48906 13.8981 3.50794 13.8329 3.53915 13.7733C3.57037 13.7137 3.61328 13.661 3.66532 13.6184C3.71737 13.5758 3.77747 13.5442 3.84204 13.5253L7.50004 12.3053V11.1667H5.29671C4.38537 11.1667 3.65004 11.1667 3.07204 11.0893C2.47204 11.008 1.96671 10.836 1.56537 10.4347C1.16404 10.0333 0.992041 9.528 0.911374 8.928C0.833374 8.35 0.833374 7.61467 0.833374 6.70333V5.96333C0.833374 5.052 0.833374 4.31667 0.911374 3.73867C0.991374 3.13867 1.16471 2.63333 1.56537 2.232C1.96671 1.83067 2.47204 1.65867 3.07204 1.578C3.65004 1.5 4.38537 1.5 5.29671 1.5ZM3.20537 2.56867C2.71604 2.63467 2.45737 2.75533 2.27271 2.93933C2.08804 3.124 1.96804 3.38267 1.90204 3.87267C1.83471 4.37467 1.83337 5.04267 1.83337 6V6.66667C1.83337 7.62333 1.83471 8.29133 1.90204 8.79467C1.96804 9.284 2.08871 9.54267 2.27271 9.72733C2.45737 9.912 2.71604 10.032 3.20604 10.098C3.70871 10.1653 4.37671 10.1667 5.33337 10.1667H10.6667C11.6234 10.1667 12.2907 10.1653 12.7947 10.098C13.284 10.032 13.5427 9.91133 13.7274 9.72733C13.912 9.54267 14.032 9.284 14.098 8.794C14.1654 8.29067 14.1667 7.62333 14.1667 6.66667V6C14.1667 5.04333 14.1654 4.37533 14.098 3.872C14.032 3.38267 13.9114 3.124 13.7274 2.93933C13.5427 2.75467 13.284 2.63467 12.794 2.56867C12.2907 2.50133 11.6234 2.5 10.6667 2.5H5.33337C4.37671 2.5 3.70871 2.50133 3.20537 2.56867Z" fill="#D9D9D9"/>
</svg>
