<svg width="16" height="16" viewBox="0 0 16 16" fill="none" xmlns="http://www.w3.org/2000/svg">
<path fill-rule="evenodd" clip-rule="evenodd" d="M10.4006 1.60002C10.254 1.45336 10.07 1.46002 9.96929 1.47336C9.87329 1.48669 9.75862 1.51869 9.64929 1.55002L9.56595 1.57335L9.49729 1.53069C9.40789 1.47074 9.31432 1.41727 9.21729 1.37069C9.11795 1.32802 8.95062 1.27869 8.77329 1.37136C8.59995 1.46269 8.54329 1.62536 8.51995 1.72936C8.49925 1.83654 8.48588 1.94502 8.47995 2.05402L8.47329 2.13869V2.14535L8.39862 2.20736C8.30995 2.28069 8.21728 2.35602 8.15195 2.42736C8.08262 2.50336 7.97595 2.64535 8.00329 2.84402C8.03129 3.04869 8.17995 3.15469 8.27262 3.20669C8.35662 3.25336 8.46662 3.29336 8.56995 3.33202L8.64262 3.35869L8.66928 3.43135C8.70728 3.53402 8.74795 3.64469 8.79462 3.72869C8.84595 3.82202 8.95262 3.97002 9.15729 3.99802C9.35529 4.02469 9.49729 3.91802 9.57328 3.84869C9.64529 3.78335 9.72062 3.69135 9.79395 3.60202L9.85529 3.52802H9.86195L9.94728 3.52136C10.0593 3.51202 10.1773 3.50269 10.272 3.48136C10.3753 3.45802 10.5386 3.40136 10.63 3.22802C10.7226 3.05136 10.6733 2.88269 10.63 2.78336C10.5833 2.68633 10.5299 2.59276 10.47 2.50336L10.4273 2.43536L10.4513 2.35136C10.4842 2.24685 10.5096 2.14014 10.5273 2.03202C10.5406 1.93069 10.5473 1.74669 10.4006 1.60002ZM9.80129 2.20002L9.74928 2.21469L9.73595 2.21869C9.65093 2.24769 9.56073 2.25837 9.47129 2.25002C9.38248 2.2341 9.29826 2.19882 9.22462 2.14669L9.21262 2.13936L9.14595 2.09669L9.13862 2.19069L9.13729 2.20536C9.1348 2.29402 9.11391 2.38119 9.07595 2.46135C9.0314 2.5379 8.97174 2.60458 8.90062 2.65736L8.88928 2.66669L8.82929 2.71669L8.87995 2.73602L8.89329 2.74002C8.94062 2.75736 9.04662 2.79469 9.12662 2.87469C9.20662 2.95469 9.24395 3.06002 9.26062 3.10802L9.26529 3.12136L9.28462 3.17269L9.33462 3.11202L9.34329 3.10069C9.37729 3.05869 9.44395 2.97536 9.53995 2.92536C9.62011 2.88739 9.70729 2.86651 9.79595 2.86402L9.81062 2.86269L9.90395 2.85602L9.86195 2.78802L9.85462 2.77669C9.8026 2.70298 9.76733 2.61879 9.75129 2.53002C9.74296 2.44058 9.75364 2.35038 9.78262 2.26536L9.78662 2.25202L9.80129 2.20002Z" fill="#D9D9D9"/>
<path d="M6.95668 2.11337C6.99137 2.05733 7.01463 1.99498 7.02514 1.92992C7.03564 1.86486 7.03318 1.79836 7.01789 1.73425C7.00261 1.67014 6.9748 1.60969 6.93607 1.55637C6.89733 1.50304 6.84844 1.45791 6.7922 1.42355C6.73596 1.38919 6.67348 1.36628 6.60836 1.35616C6.54324 1.34603 6.47675 1.34888 6.41273 1.36454C6.34872 1.38019 6.28842 1.40835 6.23533 1.4474C6.18223 1.48644 6.13738 1.53559 6.10335 1.59203C5.93558 1.86658 5.86507 2.1896 5.90316 2.50909C5.94125 2.82857 6.08573 3.12596 6.31335 3.35337L6.37801 3.4187C6.44279 3.48336 6.48879 3.5644 6.5111 3.65317C6.53341 3.74194 6.53119 3.8351 6.50468 3.9227C6.46631 4.04965 6.47995 4.18664 6.54258 4.30354C6.60522 4.42044 6.71173 4.50766 6.83868 4.54603C6.96563 4.5844 7.10262 4.57077 7.21952 4.50813C7.33642 4.44549 7.42364 4.33898 7.46201 4.21203C7.5408 3.95132 7.54737 3.67412 7.48104 3.40996C7.41471 3.14581 7.27795 2.9046 7.08535 2.71203L7.02001 2.6467C6.95102 2.57787 6.90725 2.4878 6.89576 2.39103C6.88427 2.29426 6.90573 2.19644 6.95668 2.11337ZM5.12401 2.6267C5.09074 2.59352 5.05127 2.56722 5.00783 2.54929C4.9644 2.53137 4.91786 2.52217 4.87087 2.52224C4.82389 2.5223 4.77737 2.53161 4.73399 2.54965C4.6906 2.56769 4.65119 2.5941 4.61801 2.62737C4.58483 2.66063 4.55853 2.70011 4.54061 2.74355C4.52268 2.78698 4.51349 2.83352 4.51355 2.8805C4.51368 2.9754 4.55149 3.06635 4.61868 3.13337C4.68587 3.20038 4.77692 3.23795 4.87182 3.23783C4.96671 3.2377 5.05767 3.19989 5.12468 3.1327C5.19169 3.06551 5.22927 2.97445 5.22914 2.87956C5.22902 2.78467 5.1912 2.69371 5.12401 2.6267ZM12.1853 3.73603C12.2113 3.60599 12.1846 3.47095 12.111 3.36061C12.0375 3.25028 11.9231 3.17369 11.793 3.1477C11.663 3.12171 11.5279 3.14844 11.4176 3.22202C11.3073 3.2956 11.2307 3.40999 11.2047 3.54003L11.1087 4.02003C11.0467 4.3287 10.824 4.58003 10.526 4.68003C10.212 4.78466 9.9313 4.97043 9.71225 5.21851C9.4932 5.4666 9.34362 5.76818 9.27868 6.0927L9.18268 6.5727C9.16165 6.70061 9.19111 6.83169 9.26486 6.9383C9.33861 7.0449 9.45088 7.1187 9.578 7.14412C9.70511 7.16954 9.83712 7.1446 9.9462 7.07457C10.0553 7.00453 10.1329 6.89486 10.1627 6.7687L10.2593 6.2887C10.3207 5.98003 10.5433 5.7287 10.842 5.6287C11.156 5.52392 11.4366 5.338 11.6555 5.0898C11.8745 4.8416 12.0239 4.53993 12.0887 4.21537L12.1853 3.73603Z" fill="#D9D9D9"/>
<path fill-rule="evenodd" clip-rule="evenodd" d="M15.016 5.8947C15.186 6.26404 15.0713 6.68337 14.76 6.9947C14.5793 7.1747 14.3373 7.2567 14.122 7.29537C13.9013 7.3347 13.6687 7.33537 13.464 7.32204C13.2297 7.30651 12.9968 7.27375 12.7673 7.22404L12.7367 7.21737L12.7207 7.21337L12.7073 7.21004L12.7033 7.20937H12.702L12.782 6.88537L12.702 7.2087C12.643 7.19422 12.5891 7.1639 12.5461 7.12101C12.5031 7.07813 12.4727 7.02431 12.458 6.96537V6.96337L12.4567 6.95937L12.4533 6.94604C12.4368 6.87607 12.4226 6.80559 12.4107 6.7347C12.3785 6.55876 12.3563 6.38114 12.344 6.2027C12.3273 5.98328 12.3365 5.76266 12.3713 5.54537C12.41 5.32937 12.4913 5.08737 12.672 4.9067C12.9833 4.59537 13.4027 4.48004 13.772 4.65137C14.052 4.7807 14.2347 5.04204 14.3027 5.36404C14.6247 5.4327 14.886 5.6147 15.016 5.8947ZM13.064 6.6027C13.1827 6.62337 13.3393 6.64604 13.5067 6.6567C13.682 6.66804 13.8567 6.66537 14.0047 6.6387C14.158 6.61204 14.2453 6.56604 14.288 6.52337C14.45 6.36137 14.438 6.23337 14.4107 6.17404C14.3807 6.11004 14.2747 5.99937 14.0013 6.00004C13.9573 6.00021 13.9137 5.99168 13.8731 5.97492C13.8324 5.95817 13.7954 5.93352 13.7643 5.90241C13.7332 5.8713 13.7085 5.83433 13.6918 5.79365C13.675 5.75297 13.6665 5.70937 13.6667 5.66537C13.668 5.39204 13.5567 5.28537 13.4927 5.25604C13.4333 5.22937 13.3053 5.21604 13.1433 5.3787C13.1007 5.42137 13.0547 5.5087 13.028 5.66204C13.0028 5.82678 12.9967 5.9939 13.01 6.16004C13.0207 6.3267 13.0433 6.48404 13.064 6.6027Z" fill="#D9D9D9"/>
<path d="M13.5533 9.15336C13.6499 9.06771 13.7689 9.01152 13.8964 8.99143C14.0239 8.97135 14.1545 8.98821 14.2727 9.04003L14.4667 9.12469C14.5882 9.17783 14.7259 9.18049 14.8494 9.13211C14.973 9.08372 15.0722 8.98825 15.1253 8.86669C15.1785 8.74514 15.1811 8.60745 15.1328 8.48393C15.0844 8.3604 14.9889 8.26116 14.8673 8.20803L14.6733 8.12336C14.3803 7.99522 14.0568 7.95362 13.7409 8.00347C13.425 8.05332 13.13 8.19255 12.8907 8.40469C12.6733 8.59803 12.3567 8.63003 12.1047 8.48469L11.9633 8.40269C11.8486 8.33744 11.7126 8.32023 11.5852 8.35482C11.4578 8.38941 11.3492 8.473 11.2832 8.58735C11.2172 8.70169 11.1991 8.83751 11.2328 8.96515C11.2666 9.0928 11.3494 9.20192 11.4633 9.26869L11.6047 9.35003C11.9092 9.52598 12.2613 9.6016 12.6112 9.56619C12.9611 9.53077 13.291 9.3861 13.554 9.15269L13.5533 9.15336ZM12.7053 10.2087C12.7386 10.1755 12.7781 10.1491 12.8215 10.1312C12.865 10.1132 12.9116 10.104 12.9586 10.104C13.0056 10.104 13.0521 10.1133 13.0956 10.1313C13.139 10.1494 13.1784 10.1758 13.2117 10.209C13.2449 10.2423 13.2712 10.2818 13.2892 10.3252C13.3072 10.3687 13.3164 10.4152 13.3164 10.4623C13.3163 10.5093 13.3071 10.5558 13.289 10.5993C13.271 10.6427 13.2446 10.6821 13.2113 10.7154C13.1442 10.7825 13.0531 10.8201 12.9581 10.8201C12.8631 10.82 12.7721 10.7822 12.705 10.715C12.6379 10.6478 12.6002 10.5567 12.6003 10.4618C12.6004 10.3668 12.6382 10.2758 12.7053 10.2087ZM8.61067 4.77136C8.57745 4.73814 8.53801 4.71178 8.4946 4.6938C8.45119 4.67582 8.40466 4.66656 8.35767 4.66656C8.31069 4.66656 8.26416 4.67582 8.22075 4.6938C8.17734 4.71178 8.1379 4.73814 8.10467 4.77136C8.07145 4.80459 8.04509 4.84403 8.02711 4.88744C8.00913 4.93085 7.99988 4.97737 7.99988 5.02436C7.99988 5.07135 8.00913 5.11787 8.02711 5.16128C8.04509 5.20469 8.07145 5.24414 8.10467 5.27736C8.13794 5.31059 8.17743 5.33693 8.22088 5.3549C8.26433 5.37286 8.31089 5.38209 8.35791 5.38206C8.40493 5.38203 8.45148 5.37274 8.4949 5.35472C8.53833 5.33669 8.57778 5.3103 8.61101 5.27703C8.64423 5.24376 8.67058 5.20427 8.68854 5.16082C8.70651 5.11737 8.71574 5.07081 8.71571 5.02379C8.71567 4.97677 8.70638 4.93022 8.68836 4.8868C8.67034 4.84337 8.64394 4.80459 8.61067 4.77136ZM11.438 6.77136C11.4712 6.73814 11.5107 6.71178 11.5541 6.6938C11.5975 6.67582 11.644 6.66657 11.691 6.66657C11.738 6.66657 11.7845 6.67582 11.8279 6.6938C11.8713 6.71178 11.9108 6.73814 11.944 6.77136C11.9772 6.80459 12.0036 6.84403 12.0216 6.88744C12.0395 6.93085 12.0488 6.97737 12.0488 7.02436C12.0488 7.07135 12.0395 7.11787 12.0216 7.16128C12.0036 7.20469 11.9772 7.24414 11.944 7.27736C11.8768 7.34446 11.7857 7.38212 11.6908 7.38206C11.5958 7.382 11.5048 7.34422 11.4377 7.27703C11.3706 7.20984 11.3329 7.11875 11.333 7.02379C11.333 6.92884 11.3708 6.83846 11.438 6.77136Z" fill="#D9D9D9"/>
<path fill-rule="evenodd" clip-rule="evenodd" d="M6.42601 4.59003C6.81668 4.87937 7.26601 5.33003 7.81268 5.87537L10.124 8.1867C10.67 8.73337 11.12 9.1827 11.4093 9.57337C11.7093 9.97737 11.92 10.426 11.798 10.9427C11.676 11.46 11.2867 11.7667 10.838 11.994C10.404 12.214 9.80068 12.4154 9.06868 12.6594L5.60868 13.8127C4.72201 14.108 4.00201 14.348 3.44401 14.4474C2.88134 14.5474 2.31068 14.5374 1.88601 14.1134C1.46201 13.6894 1.45201 13.118 1.55201 12.5547C1.65134 11.9974 1.89134 11.2774 2.18668 10.3907L3.34001 6.9307C3.58401 6.1987 3.78534 5.59537 4.00534 5.16137C4.23201 4.7127 4.53934 4.32337 5.05668 4.20137C5.57334 4.07937 6.02201 4.2907 6.42601 4.59003ZM5.83068 5.39337C5.81919 5.38484 5.80763 5.37639 5.79601 5.36803L5.77201 5.50137C5.69688 5.91826 5.62976 6.33656 5.57068 6.75603C5.42868 7.76603 5.30934 8.98737 5.37068 9.92337C5.40734 10.49 5.52868 11.2234 5.64468 11.828C5.69971 12.1155 5.75861 12.4022 5.82134 12.688L7.57801 12.1014C7.53134 11.9647 7.47668 11.788 7.42134 11.5834C7.28868 11.09 7.15134 10.4114 7.15134 9.70337C7.15713 9.05778 7.24814 8.41579 7.42201 7.79403C7.48445 7.56538 7.55764 7.33979 7.64134 7.11803L7.13468 6.61137C6.55201 6.02937 6.15468 5.63337 5.83068 5.39337ZM4.27534 7.2867C4.39051 6.93454 4.51074 6.58406 4.63601 6.23537C4.61682 6.36259 4.59837 6.48993 4.58068 6.61737C4.43668 7.63937 4.30401 8.94537 4.37268 9.9887C4.41401 10.6207 4.54534 11.404 4.66268 12.0154C4.72617 12.3462 4.79462 12.676 4.86801 13.0047C4.17401 13.234 3.66268 13.3927 3.26934 13.4627C2.78868 13.548 2.65601 13.4687 2.59334 13.406C2.53068 13.3434 2.45134 13.2107 2.53668 12.73C2.62134 12.2534 2.83668 11.6034 3.14934 10.666L4.27534 7.2867ZM8.71268 11.724L8.52668 11.786C8.42778 11.4923 8.34653 11.1928 8.28334 10.8894C8.19951 10.4995 8.15529 10.1021 8.15134 9.70337C8.15739 9.0942 8.25125 8.48908 8.43001 7.9067L9.38734 8.8647C9.97001 9.44737 10.366 9.8447 10.606 10.1687C10.842 10.4874 10.8453 10.626 10.8247 10.7134C10.804 10.8 10.7393 10.9234 10.386 11.102C10.026 11.2847 9.49401 11.4634 8.71268 11.724Z" fill="#D9D9D9"/>
</svg>
