<svg width="16" height="16" viewBox="0 0 16 16" fill="none" xmlns="http://www.w3.org/2000/svg">
<g clip-path="url(#clip0_74_217)">
<path fill-rule="evenodd" clip-rule="evenodd" d="M8.00004 1.83331C6.36454 1.83331 4.79602 2.48301 3.63955 3.63949C2.48307 4.79596 1.83337 6.36448 1.83337 7.99998C1.83337 9.63548 2.48307 11.204 3.63955 12.3605C4.79602 13.5169 6.36454 14.1666 8.00004 14.1666C9.63554 14.1666 11.2041 13.5169 12.3605 12.3605C13.517 11.204 14.1667 9.63548 14.1667 7.99998C14.1667 6.36448 13.517 4.79596 12.3605 3.63949C11.2041 2.48301 9.63554 1.83331 8.00004 1.83331ZM0.833374 7.99998C0.833374 4.04198 4.04204 0.833313 8.00004 0.833313C11.958 0.833313 15.1667 4.04198 15.1667 7.99998C15.1667 11.958 11.958 15.1666 8.00004 15.1666C4.04204 15.1666 0.833374 11.958 0.833374 7.99998ZM8.00004 3.49998C8.13265 3.49998 8.25983 3.55266 8.35359 3.64643C8.44736 3.74019 8.50004 3.86737 8.50004 3.99998V4.21131C9.58671 4.40598 10.5 5.22265 10.5 6.33331C10.5 6.46592 10.4474 6.5931 10.3536 6.68687C10.2598 6.78063 10.1326 6.83331 10 6.83331C9.86743 6.83331 9.74026 6.78063 9.64649 6.68687C9.55272 6.5931 9.50004 6.46592 9.50004 6.33331C9.50004 5.88131 9.12404 5.40198 8.50004 5.23131V7.54465C9.58671 7.73931 10.5 8.55598 10.5 9.66665C10.5 10.7773 9.58671 11.594 8.50004 11.7886V12C8.50004 12.1326 8.44736 12.2598 8.35359 12.3535C8.25983 12.4473 8.13265 12.5 8.00004 12.5C7.86743 12.5 7.74026 12.4473 7.64649 12.3535C7.55272 12.2598 7.50004 12.1326 7.50004 12V11.7886C6.41337 11.594 5.50004 10.7773 5.50004 9.66665C5.50004 9.53404 5.55272 9.40686 5.64649 9.31309C5.74026 9.21933 5.86743 9.16665 6.00004 9.16665C6.13265 9.16665 6.25983 9.21933 6.35359 9.31309C6.44736 9.40686 6.50004 9.53404 6.50004 9.66665C6.50004 10.1186 6.87604 10.598 7.50004 10.768V8.45531C6.41337 8.26065 5.50004 7.44398 5.50004 6.33331C5.50004 5.22265 6.41337 4.40598 7.50004 4.21131V3.99998C7.50004 3.86737 7.55272 3.74019 7.64649 3.64643C7.74026 3.55266 7.86743 3.49998 8.00004 3.49998ZM7.50004 5.23131C6.87604 5.40198 6.50004 5.88131 6.50004 6.33331C6.50004 6.78531 6.87604 7.26465 7.50004 7.43465V5.23131ZM8.50004 8.56465V10.7686C9.12404 10.598 9.50004 10.1193 9.50004 9.66665C9.50004 9.21465 9.12404 8.73465 8.50004 8.56465Z" fill="#D9D9D9"/>
</g>
<defs>
<clipPath id="clip0_74_217">
<rect width="16" height="16" fill="white"/>
</clipPath>
</defs>
</svg>
