<svg width="16" height="16" viewBox="0 0 16 16" fill="none" xmlns="http://www.w3.org/2000/svg">
<path fill-rule="evenodd" clip-rule="evenodd" d="M3.44404 1.5H3.47537C3.65271 1.5 3.76071 1.5 3.85537 1.50467C4.80563 1.5515 5.70452 1.95003 6.37726 2.62278C7.05001 3.29553 7.44854 4.19441 7.49537 5.14467C7.50004 5.23933 7.50004 5.34733 7.50004 5.52467V12.5C7.50004 13.0304 7.28933 13.5391 6.91425 13.9142C6.53918 14.2893 6.03047 14.5 5.50004 14.5C4.96961 14.5 4.4609 14.2893 4.08583 13.9142C3.71075 13.5391 3.50004 13.0304 3.50004 12.5V8.2C3.50004 8.1558 3.48248 8.11341 3.45123 8.08215C3.41997 8.05089 3.37758 8.03333 3.33337 8.03333C2.67033 8.03333 2.03445 7.76994 1.56561 7.3011C1.09677 6.83226 0.833374 6.19637 0.833374 5.53333V4.11067C0.833374 4.00867 0.833374 3.93867 0.836707 3.87733C0.86723 3.25757 1.12715 2.67131 1.56591 2.23254C2.00468 1.79377 2.59095 1.53386 3.21071 1.50333C3.27204 1.5 3.34204 1.5 3.44404 1.5ZM3.45804 2.5C3.33604 2.5 3.29337 2.5 3.26004 2.502C2.88809 2.52025 2.53623 2.67621 2.27291 2.93954C2.00959 3.20286 1.85363 3.55472 1.83537 3.92667C1.83337 3.96 1.83337 4.00333 1.83337 4.12533V5.53333C1.83337 5.93116 1.99141 6.31269 2.27271 6.59399C2.55402 6.8753 2.93555 7.03333 3.33337 7.03333C3.97737 7.03333 4.50004 7.556 4.50004 8.2V11.5H6.50004V5.54133C6.50004 5.342 6.50004 5.26067 6.49671 5.19467C6.46231 4.49211 6.1678 3.82746 5.67048 3.33002C5.17316 2.83258 4.50859 2.53791 3.80604 2.50333C3.73937 2.5 3.65804 2.5 3.45871 2.5H3.45804ZM6.50004 12.5H4.50004C4.50004 12.7652 4.6054 13.0196 4.79293 13.2071C4.98047 13.3946 5.23482 13.5 5.50004 13.5C5.76526 13.5 6.01961 13.3946 6.20715 13.2071C6.39468 13.0196 6.50004 12.7652 6.50004 12.5ZM12.74 2.502C12.6741 2.49996 12.608 2.49929 12.542 2.5C12.342 2.5 12.2607 2.5 12.1947 2.50333C11.4921 2.53774 10.8275 2.83224 10.3301 3.32956C9.83262 3.82688 9.53795 4.49145 9.50337 5.194C9.50004 5.26067 9.50004 5.342 9.50004 5.54133V11.5H11.5V8.2C11.5 7.556 12.0227 7.03333 12.6667 7.03333C13.0645 7.03333 13.4461 6.8753 13.7274 6.59399C14.0087 6.31269 14.1667 5.93116 14.1667 5.53333V4.12467C14.1667 4.00267 14.1667 3.96 14.1647 3.92667C14.1465 3.55472 13.9905 3.20286 13.7272 2.93954C13.4638 2.67621 13.112 2.52025 12.74 2.502ZM11.5 12.5H9.50004C9.50004 12.7652 9.6054 13.0196 9.79293 13.2071C9.98047 13.3946 10.2348 13.5 10.5 13.5C10.7653 13.5 11.0196 13.3946 11.2071 13.2071C11.3947 13.0196 11.5 12.7652 11.5 12.5ZM12.556 1.5C12.658 1.5 12.728 1.5 12.7894 1.50333C13.4091 1.53386 13.9954 1.79377 14.4342 2.23254C14.8729 2.67131 15.1329 3.25757 15.1634 3.87733C15.1667 3.93867 15.1667 4.00867 15.1667 4.11067V5.53333C15.1667 6.19637 14.9033 6.83226 14.4345 7.3011C13.9656 7.76994 13.3297 8.03333 12.6667 8.03333C12.6225 8.03333 12.5801 8.05089 12.5489 8.08215C12.5176 8.11341 12.5 8.1558 12.5 8.2V12.5C12.5 13.0304 12.2893 13.5391 11.9143 13.9142C11.5392 14.2893 11.0305 14.5 10.5 14.5C9.96961 14.5 9.4609 14.2893 9.08583 13.9142C8.71075 13.5391 8.50004 13.0304 8.50004 12.5V5.52467C8.50004 5.34733 8.50004 5.23933 8.50471 5.14467C8.55154 4.19441 8.95007 3.29553 9.62282 2.62278C10.2956 1.95003 11.1945 1.5515 12.1447 1.50467C12.2394 1.5 12.3474 1.5 12.5247 1.5H12.556ZM3.00004 3.5C3.13265 3.5 3.25983 3.55268 3.35359 3.64645C3.44736 3.74021 3.50004 3.86739 3.50004 4V5.66667C3.50004 5.79927 3.44736 5.92645 3.35359 6.02022C3.25983 6.11399 3.13265 6.16667 3.00004 6.16667C2.86743 6.16667 2.74026 6.11399 2.64649 6.02022C2.55272 5.92645 2.50004 5.79927 2.50004 5.66667V4C2.50004 3.86739 2.55272 3.74021 2.64649 3.64645C2.74026 3.55268 2.86743 3.5 3.00004 3.5ZM13 3.5C13.1326 3.5 13.2598 3.55268 13.3536 3.64645C13.4474 3.74021 13.5 3.86739 13.5 4V5.66667C13.5 5.79927 13.4474 5.92645 13.3536 6.02022C13.2598 6.11399 13.1326 6.16667 13 6.16667C12.8674 6.16667 12.7403 6.11399 12.6465 6.02022C12.5527 5.92645 12.5 5.79927 12.5 5.66667V4C12.5 3.86739 12.5527 3.74021 12.6465 3.64645C12.7403 3.55268 12.8674 3.5 13 3.5Z" fill="#D9D9D9"/>
</svg>
