<svg width="16" height="16" viewBox="0 0 16 16" fill="none" xmlns="http://www.w3.org/2000/svg">
<path d="M4.99997 6.00002V8.00002M3.99997 7.00002H5.99997M6.77664 3.18669L7.11131 3.42269C7.37117 3.60653 7.68165 3.70526 7.99997 3.70526C8.31829 3.70526 8.62878 3.60653 8.88864 3.42269L9.22331 3.18602C9.70088 2.84805 10.2716 2.66659 10.8566 2.66669H11.2646C11.5346 2.66669 11.8066 2.68335 12.0606 2.77335C13.6493 3.33735 14.7413 5.39669 14.6626 10.0687C14.6466 11.01 14.4266 12.05 13.5773 12.456C13.2876 12.5953 12.9701 12.6673 12.6486 12.6667C12.2873 12.6726 11.9323 12.5712 11.6286 12.3754C11.0186 11.976 10.5726 11.3087 9.92597 10.974C9.53666 10.7721 9.10453 10.6667 8.66597 10.6667H7.33331C6.89464 10.6667 6.46264 10.772 6.07331 10.9734C5.42664 11.3094 4.97997 11.976 4.37131 12.3754C4.06761 12.5712 3.71264 12.6726 3.35131 12.6667C3.02983 12.6673 2.71237 12.5953 2.42264 12.456C1.57331 12.05 1.35331 11.0094 1.33731 10.0687C1.25797 5.39669 2.35064 3.33735 3.93931 2.77335C4.19331 2.68335 4.46664 2.66669 4.73531 2.66669H5.14331C5.72864 2.66669 6.29931 2.84802 6.77664 3.18669Z" stroke="#D9D9D9" stroke-linecap="round"/>
<path d="M12.6666 6.83337C12.6666 6.96598 12.6139 7.09316 12.5202 7.18693C12.4264 7.2807 12.2992 7.33337 12.1666 7.33337C12.034 7.33337 11.9068 7.2807 11.8131 7.18693C11.7193 7.09316 11.6666 6.96598 11.6666 6.83337C11.6666 6.70077 11.7193 6.57359 11.8131 6.47982C11.9068 6.38605 12.034 6.33337 12.1666 6.33337C12.2992 6.33337 12.4264 6.38605 12.5202 6.47982C12.6139 6.57359 12.6666 6.70077 12.6666 6.83337ZM10.6666 6.83337C10.6666 6.96598 10.6139 7.09316 10.5202 7.18693C10.4264 7.2807 10.2992 7.33337 10.1666 7.33337C10.034 7.33337 9.90684 7.2807 9.81307 7.18693C9.7193 7.09316 9.66663 6.96598 9.66663 6.83337C9.66663 6.70077 9.7193 6.57359 9.81307 6.47982C9.90684 6.38605 10.034 6.33337 10.1666 6.33337C10.2992 6.33337 10.4264 6.38605 10.5202 6.47982C10.6139 6.57359 10.6666 6.70077 10.6666 6.83337ZM11.1666 5.33337C11.2992 5.33337 11.4264 5.38605 11.5202 5.47982C11.6139 5.57359 11.6666 5.70077 11.6666 5.83337C11.6666 5.96598 11.6139 6.09316 11.5202 6.18693C11.4264 6.2807 11.2992 6.33337 11.1666 6.33337C11.034 6.33337 10.9068 6.2807 10.8131 6.18693C10.7193 6.09316 10.6666 5.96598 10.6666 5.83337C10.6666 5.70077 10.7193 5.57359 10.8131 5.47982C10.9068 5.38605 11.034 5.33337 11.1666 5.33337ZM11.1666 7.33337C11.2323 7.33337 11.2973 7.34631 11.358 7.37143C11.4186 7.39656 11.4738 7.43339 11.5202 7.47982C11.5666 7.52625 11.6034 7.58137 11.6286 7.64203C11.6537 7.70269 11.6666 7.76771 11.6666 7.83337C11.6666 7.89903 11.6537 7.96405 11.6286 8.02472C11.6034 8.08538 11.5666 8.1405 11.5202 8.18693C11.4738 8.23336 11.4186 8.27019 11.358 8.29531C11.2973 8.32044 11.2323 8.33337 11.1666 8.33337C11.034 8.33337 10.9068 8.2807 10.8131 8.18693C10.7193 8.09316 10.6666 7.96598 10.6666 7.83337C10.6666 7.70077 10.7193 7.57359 10.8131 7.47982C10.9068 7.38605 11.034 7.33337 11.1666 7.33337Z" fill="#D9D9D9"/>
</svg>
