<svg width="16" height="16" viewBox="0 0 16 16" fill="none" xmlns="http://www.w3.org/2000/svg">
<g clip-path="url(#clip0_74_215)">
<path fill-rule="evenodd" clip-rule="evenodd" d="M3.71871 3.56198C2.8184 4.43032 2.20344 5.55192 1.95544 6.77792C1.70744 8.00391 1.83813 9.27634 2.33017 10.4263C2.8222 11.5763 3.65232 12.5495 4.71034 13.2167C5.76837 13.8839 7.00428 14.2136 8.25404 14.162C8.11671 13.554 8.09804 12.7366 8.51604 11.9493C8.95071 11.13 9.85071 10.7746 10.5127 10.612C10.9274 10.5116 11.3515 10.4548 11.778 10.4426H11.8067C12.922 10.4306 13.424 10.068 13.6907 9.72265C13.9187 9.42665 14.004 9.13131 14.092 8.83198L14.1254 8.71731C14.234 7.80193 14.1353 6.87385 13.8366 6.00177C13.538 5.12969 13.047 4.33595 12.4 3.67931C12.3943 3.70159 12.3883 3.72381 12.382 3.74598C12.2734 4.14198 12.0987 4.54731 11.908 4.83665C11.7374 5.09531 11.4067 5.35665 11.132 5.55398C10.9387 5.68953 10.7379 5.81416 10.5307 5.92731C10.3787 6.01531 10.242 6.09398 10.1107 6.18065C9.82271 6.37131 9.60004 6.57598 9.45004 6.88465C9.40086 6.98657 9.39251 7.10344 9.42671 7.21131C9.47671 7.39265 9.51071 7.59665 9.51071 7.80398C9.51204 8.23665 9.29137 8.58798 9.00871 8.81598C8.72087 9.04561 8.3629 9.1694 7.99471 9.16665C6.35804 9.14865 5.35137 7.81998 5.21871 6.34265C5.16537 5.75531 4.90804 5.16065 4.58271 4.64131C4.33811 4.24864 4.04811 3.88681 3.71871 3.56198ZM4.49671 2.92465C4.84969 3.28515 5.16262 3.6828 5.43004 4.11065C5.80204 4.70398 6.14271 5.45198 6.21471 6.25331C6.31471 7.37331 7.02337 8.15598 8.00537 8.16665C8.14145 8.16685 8.27364 8.1213 8.38071 8.03731C8.47804 7.95931 8.51137 7.87731 8.51071 7.80665C8.51071 7.70265 8.49337 7.58798 8.46271 7.47665C8.36404 7.13494 8.39515 6.76882 8.55004 6.44865C8.80671 5.91931 9.18737 5.59198 9.55937 5.34665C9.71871 5.24131 9.88404 5.14665 10.0327 5.05998L10.0927 5.02665C10.2627 4.92798 10.4127 4.83998 10.548 4.74198C10.8354 4.53531 11.0174 4.37065 11.0727 4.28598C11.1947 4.10198 11.3314 3.79665 11.418 3.48131C11.4867 3.23198 11.5054 3.03998 11.4994 2.92131C10.4709 2.21078 9.25006 1.83119 8.00004 1.83331C6.7483 1.83136 5.52589 2.21216 4.49671 2.92465ZM15.12 8.82665C15.1514 8.55531 15.1674 8.27998 15.1674 7.99998C15.1674 4.04198 11.9587 0.833313 8.00071 0.833313C4.04271 0.833313 0.833374 4.04198 0.833374 7.99998C0.833374 11.958 4.04204 15.1666 8.00004 15.1666C11.64 15.1666 14.6467 12.4526 15.106 8.93731C15.1157 8.90235 15.1264 8.86767 15.138 8.83331L15.12 8.82665ZM13.2707 11.2046C12.8734 11.35 12.3947 11.4366 11.818 11.4426H11.7974L11.7374 11.4446C11.4054 11.4588 11.0757 11.5053 10.7527 11.5833C10.1514 11.7306 9.62404 11.9966 9.40004 12.418C9.09604 12.9906 9.14004 13.6133 9.25337 14.0393C10.0814 13.8672 10.8653 13.5268 11.5564 13.0391C12.2474 12.5515 12.831 11.9271 13.2707 11.2046Z" fill="#D9D9D9"/>
</g>
<defs>
<clipPath id="clip0_74_215">
<rect width="16" height="16" fill="white"/>
</clipPath>
</defs>
</svg>
