<svg width="16" height="16" viewBox="0 0 16 16" fill="none" xmlns="http://www.w3.org/2000/svg">
<path fill-rule="evenodd" clip-rule="evenodd" d="M2.16663 6.76198C2.16663 3.49598 4.76996 0.833313 7.99996 0.833313C11.23 0.833313 13.8333 3.49598 13.8333 6.76198C13.8333 8.33865 13.384 10.032 12.5893 11.4946C11.796 12.9553 10.6373 14.2246 9.18663 14.9026C8.81517 15.0765 8.41007 15.1665 7.99996 15.1665C7.58985 15.1665 7.18475 15.0765 6.81329 14.9026C5.36263 14.2246 4.20396 12.956 3.41063 11.4946C2.61596 10.032 2.16663 8.33865 2.16663 6.76198ZM7.99996 1.83331C5.33863 1.83331 3.16663 4.03131 3.16663 6.76198C3.16663 8.15998 3.56863 9.68998 4.28929 11.0173C5.01063 12.346 6.03063 13.4333 7.23596 13.9966C7.47497 14.1086 7.73568 14.1667 7.99963 14.1667C8.26357 14.1667 8.52428 14.1086 8.76329 13.9966C9.96929 13.4333 10.9893 12.346 11.7106 11.0173C12.4313 9.69065 12.8333 8.15998 12.8333 6.76198C12.8333 4.03131 10.6613 1.83331 7.99996 1.83331ZM7.99996 5.16665C7.80298 5.16665 7.60792 5.20544 7.42593 5.28083C7.24395 5.35621 7.07859 5.4667 6.9393 5.60599C6.80001 5.74527 6.68952 5.91063 6.61414 6.09262C6.53876 6.27461 6.49996 6.46966 6.49996 6.66665C6.49996 6.86363 6.53876 7.05868 6.61414 7.24067C6.68952 7.42266 6.80001 7.58802 6.9393 7.72731C7.07859 7.86659 7.24395 7.97708 7.42593 8.05247C7.60792 8.12785 7.80298 8.16665 7.99996 8.16665C8.39778 8.16665 8.77931 8.00861 9.06062 7.72731C9.34192 7.446 9.49996 7.06447 9.49996 6.66665C9.49996 6.26882 9.34192 5.88729 9.06062 5.60599C8.77931 5.32468 8.39778 5.16665 7.99996 5.16665ZM5.49996 6.66665C5.49996 6.00361 5.76335 5.36772 6.23219 4.89888C6.70103 4.43004 7.33692 4.16665 7.99996 4.16665C8.663 4.16665 9.29889 4.43004 9.76773 4.89888C10.2366 5.36772 10.5 6.00361 10.5 6.66665C10.5 7.32969 10.2366 7.96557 9.76773 8.43441C9.29889 8.90325 8.663 9.16665 7.99996 9.16665C7.33692 9.16665 6.70103 8.90325 6.23219 8.43441C5.76335 7.96557 5.49996 7.32969 5.49996 6.66665Z" fill="#D9D9D9"/>
</svg>
