<svg width="16" height="16" viewBox="0 0 16 16" fill="none" xmlns="http://www.w3.org/2000/svg">
<path fill-rule="evenodd" clip-rule="evenodd" d="M11.9073 2.10869L12.014 2.14469L12.8153 2.41135C13.124 2.51469 13.3953 2.60469 13.6093 2.70469C13.8413 2.81269 14.054 2.95135 14.2167 3.17735C14.3793 3.40269 14.444 3.64869 14.4733 3.90269C14.5 4.13802 14.5 4.42335 14.5 4.74935V10.224C14.5 10.6894 14.5 11.082 14.464 11.3927C14.4267 11.7154 14.3427 12.034 14.1073 12.2914C13.968 12.4439 13.7987 12.566 13.61 12.65C13.2913 12.7914 12.9627 12.77 12.6447 12.704C12.338 12.64 11.966 12.516 11.5247 12.3687L11.496 12.3594C10.7493 12.11 10.4927 12.0327 10.2447 12.0414C10.1456 12.0447 10.0471 12.0579 9.95067 12.0807C9.70867 12.1374 9.482 12.28 8.82667 12.7167L7.90533 13.3314L7.812 13.3934C7.104 13.866 6.612 14.194 6.036 14.2714C5.46067 14.3487 4.89933 14.1614 4.09267 13.8914L3.986 13.856L3.18467 13.5894C2.876 13.486 2.60467 13.396 2.39067 13.296C2.15867 13.188 1.946 13.0494 1.78333 12.8227C1.62067 12.5974 1.556 12.352 1.52667 12.0974C1.5 11.862 1.5 11.5774 1.5 11.2514V5.77669C1.5 5.31069 1.5 4.91802 1.536 4.60802C1.57333 4.28535 1.65733 3.96669 1.89267 3.70935C2.03198 3.55683 2.20129 3.43472 2.39 3.35069C2.70867 3.20869 3.038 3.23002 3.35533 3.29669C3.662 3.36002 4.034 3.48469 4.47533 3.63202L4.504 3.64135C5.25067 3.89002 5.50733 3.96802 5.756 3.95935C5.85484 3.95595 5.95309 3.94277 6.04933 3.92002C6.29133 3.86269 6.518 3.72002 7.17333 3.28402L8.09467 2.66935L8.188 2.60669C8.896 2.13469 9.388 1.80669 9.96333 1.72935C10.5393 1.65202 11.1007 1.83869 11.9073 2.10869ZM10.5 2.73735V11.0534C10.8573 11.092 11.2333 11.2174 11.7287 11.3827L11.812 11.4107C12.29 11.57 12.6067 11.6747 12.8487 11.7254C13.086 11.7747 13.1667 11.752 13.2033 11.736C13.2663 11.7081 13.3228 11.6675 13.3693 11.6167C13.396 11.5874 13.4427 11.5174 13.4707 11.2767C13.4993 11.0314 13.5 10.6974 13.5 10.194V4.77535C13.5 4.41535 13.4993 4.18869 13.48 4.01669C13.4613 3.85735 13.432 3.79802 13.4053 3.76202C13.3793 3.72602 13.3327 3.67869 13.188 3.61135C13.0307 3.53802 12.8147 3.46602 12.4747 3.35202L11.698 3.09335C11.1067 2.89602 10.756 2.78402 10.5 2.73735ZM9.5 11.1734V2.95602C9.29267 3.07602 9.02667 3.25002 8.64933 3.50135L7.728 4.11602L7.65467 4.16469C7.196 4.47135 6.854 4.69935 6.5 4.82735V13.0447C6.70733 12.9247 6.97333 12.75 7.35067 12.4987L8.272 11.8847L8.34533 11.836C8.804 11.5294 9.146 11.3014 9.5 11.1734ZM5.5 13.2634V4.94669C5.14267 4.90802 4.76667 4.78269 4.27133 4.61735L4.188 4.58935C3.71 4.43002 3.39333 4.32535 3.15067 4.27469C2.914 4.22535 2.83333 4.24735 2.79733 4.26335C2.73407 4.29139 2.67732 4.33225 2.63067 4.38335C2.604 4.41202 2.55733 4.48202 2.52933 4.72269C2.50067 4.96802 2.5 5.30269 2.5 5.80602V11.2247C2.5 11.5847 2.50067 11.8114 2.52 11.9834C2.53867 12.1427 2.568 12.2014 2.59467 12.238C2.62067 12.274 2.66733 12.3214 2.812 12.3887C2.96933 12.462 3.18533 12.534 3.52533 12.648L4.302 12.9067C4.89333 13.1034 5.24333 13.2154 5.5 13.2627V13.2634Z" fill="#D9D9D9"/>
</svg>
