<svg width="16" height="16" viewBox="0 0 16 16" fill="none" xmlns="http://www.w3.org/2000/svg">
<path fill-rule="evenodd" clip-rule="evenodd" d="M8.00003 1.83331C7.84682 1.83331 7.69512 1.86349 7.55357 1.92212C7.41202 1.98075 7.28341 2.06669 7.17507 2.17502C7.06674 2.28336 6.9808 2.41197 6.92217 2.55352C6.86354 2.69506 6.83337 2.84677 6.83337 2.99998C6.83337 3.15319 6.86354 3.3049 6.92217 3.44644C6.9808 3.58799 7.06674 3.7166 7.17507 3.82494C7.28341 3.93327 7.41202 4.01921 7.55357 4.07784C7.69512 4.13647 7.84682 4.16665 8.00003 4.16665C8.30945 4.16665 8.6062 4.04373 8.82499 3.82494C9.04378 3.60615 9.1667 3.3094 9.1667 2.99998C9.1667 2.69056 9.04378 2.39381 8.82499 2.17502C8.6062 1.95623 8.30945 1.83331 8.00003 1.83331ZM5.83337 2.99998C5.83337 2.42534 6.06164 1.87424 6.46797 1.46791C6.8743 1.06159 7.4254 0.833313 8.00003 0.833313C8.57467 0.833313 9.12577 1.06159 9.5321 1.46791C9.93843 1.87424 10.1667 2.42534 10.1667 2.99998C10.1667 3.57462 9.93843 4.12572 9.5321 4.53204C9.12577 4.93837 8.57467 5.16665 8.00003 5.16665C7.4254 5.16665 6.8743 4.93837 6.46797 4.53204C6.06164 4.12572 5.83337 3.57462 5.83337 2.99998ZM8.00003 6.51331C7.80833 6.51088 7.61671 6.52247 7.4267 6.54798L6.83203 6.64798C5.49003 6.87398 4.50003 8.04931 4.50003 9.43331C4.5004 9.78805 4.41367 10.1375 4.24745 10.4508C4.08122 10.7642 3.8406 11.032 3.5467 11.2306L3.48003 11.2766C3.31009 11.391 3.12555 11.4821 2.93137 11.5473L2.16003 11.8073C2.03432 11.8497 1.8969 11.8405 1.778 11.7816C1.6591 11.7227 1.56847 11.619 1.52603 11.4933C1.4836 11.3676 1.49284 11.2302 1.55173 11.1113C1.61061 10.9924 1.71432 10.9017 1.84003 10.8593L2.6127 10.5993C2.72137 10.5626 2.82537 10.5113 2.9207 10.4473L2.9887 10.4013C3.14661 10.2941 3.27581 10.1498 3.36496 9.98101C3.45411 9.81224 3.50049 9.62418 3.50003 9.43331C3.50003 7.56865 4.83537 5.96998 6.66537 5.66198L7.2587 5.56198C7.50422 5.52705 7.75206 5.511 8.00003 5.51398C8.24801 5.51095 8.49585 5.527 8.74137 5.56198L9.3347 5.66198C11.1654 5.96998 12.5 7.56865 12.5 9.43331C12.5 9.82398 12.6934 10.1866 13.012 10.4013L13.0794 10.4473C13.1754 10.5113 13.2794 10.5626 13.388 10.5993L14.16 10.8593C14.2857 10.9017 14.3895 10.9924 14.4483 11.1113C14.5072 11.2302 14.5165 11.3676 14.474 11.4933C14.4316 11.619 14.341 11.7227 14.2221 11.7816C14.1032 11.8405 13.9657 11.8497 13.84 11.8073L13.0687 11.5473C12.8747 11.482 12.6904 11.391 12.5207 11.2766L12.4534 11.2306C12.1595 11.032 11.9188 10.7642 11.7526 10.4508C11.5864 10.1375 11.4997 9.78805 11.5 9.43331C11.5 8.04931 10.51 6.87398 9.1687 6.64798L8.57403 6.54798C8.38401 6.52266 8.19238 6.51129 8.0007 6.51398L8.00003 6.51331ZM5.93337 10.3666C5.97276 10.3141 6.02212 10.2699 6.07862 10.2364C6.13512 10.203 6.19765 10.181 6.26266 10.1717C6.32766 10.1624 6.39385 10.166 6.45746 10.1823C6.52106 10.1986 6.58084 10.2273 6.63337 10.2666C6.68589 10.306 6.73015 10.3554 6.7636 10.4119C6.79706 10.4684 6.81905 10.5309 6.82834 10.5959C6.83763 10.6609 6.83402 10.7271 6.81772 10.7907C6.80143 10.8543 6.77276 10.9141 6.73337 10.9666L6.11737 11.7886L6.1027 11.808C6.03278 11.9057 5.95709 11.9992 5.87603 12.088C5.68818 12.2848 5.45885 12.4374 5.2047 12.5346C5.10137 12.5733 4.99403 12.6 4.85803 12.6346L4.8347 12.64L3.6387 12.9393C3.49176 12.9768 3.36351 13.0665 3.27798 13.1918C3.19246 13.317 3.15551 13.4691 3.17407 13.6196C3.19263 13.7701 3.26541 13.9087 3.3788 14.0094C3.49218 14.1101 3.63839 14.166 3.79003 14.1666H4.24603C5.2767 14.1666 6.27937 13.8326 7.10403 13.214L8.3667 12.2666C8.41923 12.2273 8.479 12.1986 8.54261 12.1823C8.60622 12.166 8.67241 12.1624 8.73741 12.1717C8.80241 12.181 8.86495 12.203 8.92145 12.2364C8.97795 12.2699 9.0273 12.3141 9.0667 12.3666C9.1061 12.4192 9.13476 12.4789 9.15106 12.5426C9.16735 12.6062 9.17096 12.6724 9.16167 12.7374C9.15239 12.8024 9.13039 12.8649 9.09694 12.9214C9.06348 12.9779 9.01923 13.0273 8.9667 13.0666L8.36403 13.5186L8.69137 13.642C9.04737 13.7753 9.20803 13.8353 9.36937 13.886C9.85472 14.0377 10.357 14.1289 10.8647 14.1573C11.0334 14.1666 11.2047 14.1666 11.5847 14.1666H12.2107C12.3623 14.1658 12.5084 14.1098 12.6216 14.0091C12.7349 13.9083 12.8076 13.7697 12.826 13.6193C12.8445 13.4688 12.8075 13.3168 12.722 13.1916C12.6365 13.0665 12.5083 12.9768 12.3614 12.9393L11.3794 12.6933C11.3611 12.6889 11.3429 12.6844 11.3247 12.68C11.0074 12.6006 10.7574 12.5386 10.534 12.4093C10.4669 12.3708 10.4024 12.328 10.3407 12.2813C10.1354 12.1253 9.9807 11.9193 9.78537 11.6573L9.75137 11.6126L9.2667 10.9666C9.2273 10.9141 9.19864 10.8543 9.18234 10.7907C9.16605 10.7271 9.16244 10.6609 9.17172 10.5959C9.18101 10.5309 9.20301 10.4684 9.23646 10.4119C9.26992 10.3554 9.31417 10.306 9.3667 10.2666C9.41923 10.2273 9.479 10.1986 9.54261 10.1823C9.60622 10.166 9.67241 10.1624 9.73741 10.1717C9.80241 10.181 9.86495 10.203 9.92145 10.2364C9.97795 10.2699 10.0273 10.3141 10.0667 10.3666L10.5514 11.0126C10.7967 11.34 10.8654 11.4246 10.9454 11.4853C10.9734 11.506 11.0027 11.5253 11.0334 11.5433C11.12 11.5933 11.2247 11.624 11.622 11.7233L12.604 11.9686C12.9882 12.0649 13.3239 12.2982 13.548 12.6247C13.7721 12.9513 13.8691 13.3484 13.8207 13.7415C13.7724 14.1345 13.582 14.4964 13.2855 14.7588C12.989 15.0213 12.6067 15.1664 12.2107 15.1666H11.5687C11.2094 15.1666 11.0087 15.1666 10.8087 15.1553C10.2186 15.1223 9.63482 15.0163 9.0707 14.84C8.88003 14.78 8.6927 14.71 8.35603 14.584L7.40137 14.226C6.46344 14.8397 5.3669 15.1666 4.24603 15.1666H3.79003C3.39402 15.1664 3.01177 15.0213 2.71524 14.7588C2.41871 14.4964 2.22835 14.1345 2.18001 13.7415C2.13167 13.3484 2.22867 12.9513 2.45276 12.6247C2.67684 12.2982 3.01256 12.0649 3.3967 11.9686L4.59203 11.67C4.76203 11.6273 4.80803 11.6153 4.84803 11.6C4.96337 11.556 5.06803 11.4866 5.15337 11.3973C5.1827 11.366 5.21203 11.3293 5.31737 11.1886L5.93337 10.3666Z" fill="#D9D9D9"/>
</svg>
