<svg width="16" height="16" viewBox="0 0 16 16" fill="none" xmlns="http://www.w3.org/2000/svg">
<g clip-path="url(#clip0_74_165)">
<path fill-rule="evenodd" clip-rule="evenodd" d="M1.88671 7.18465L2.17204 6.93531C2.56029 6.59567 3.06311 6.41628 3.57867 6.43348C4.09422 6.45069 4.58397 6.6632 4.94871 7.02798L7.80871 9.88798C7.94746 10.0265 8.13061 10.1117 8.32595 10.1285C8.52129 10.1453 8.71631 10.0927 8.87671 9.97998L9.07537 9.83998C9.53843 9.51457 10.0982 9.3559 10.6631 9.38993C11.2281 9.42396 11.7647 9.64867 12.1854 10.0273L13.3474 11.074C13.8005 10.2843 14.0731 9.40403 14.1456 8.49646C14.2182 7.58889 14.0888 6.67653 13.7669 5.82487C13.445 4.97321 12.9385 4.2034 12.2838 3.57071C11.6291 2.93802 10.8424 2.45816 9.98028 2.16557C9.11812 1.87298 8.20186 1.77493 7.29731 1.87847C6.39275 1.982 5.52235 2.28454 4.74859 2.76437C3.97483 3.2442 3.31692 3.88942 2.82211 4.65368C2.32729 5.41794 2.00785 6.28228 1.88671 7.18465ZM12.7747 11.9033L11.5167 10.7706C11.2642 10.5434 10.9421 10.4085 10.603 10.3882C10.2639 10.3678 9.92789 10.4632 9.65004 10.6586L9.45204 10.7986C9.09889 11.0468 8.66952 11.1624 8.23953 11.1251C7.80954 11.0877 7.4065 10.8999 7.10137 10.5946L4.24137 7.73465C4.05595 7.54926 3.80698 7.4413 3.54492 7.43263C3.28286 7.42397 3.02731 7.51525 2.83004 7.68798L1.85671 8.53998C1.99174 10.0761 2.69743 11.506 3.83462 12.5475C4.9718 13.5891 6.45796 14.1667 8.00004 14.1666C8.91402 14.1676 9.81674 13.9649 10.6426 13.5734C11.4685 13.1819 12.1968 12.6114 12.7747 11.9033ZM0.833374 7.99998C0.833374 4.04198 4.04204 0.833313 8.00004 0.833313C11.958 0.833313 15.1667 4.04198 15.1667 7.99998C15.1667 11.958 11.958 15.1666 8.00004 15.1666C4.04204 15.1666 0.833374 11.958 0.833374 7.99998ZM10 5.16665C9.77903 5.16665 9.56707 5.25444 9.41079 5.41072C9.25451 5.567 9.16671 5.77897 9.16671 5.99998C9.16671 6.22099 9.25451 6.43296 9.41079 6.58924C9.56707 6.74552 9.77903 6.83331 10 6.83331C10.2211 6.83331 10.433 6.74552 10.5893 6.58924C10.7456 6.43296 10.8334 6.22099 10.8334 5.99998C10.8334 5.77897 10.7456 5.567 10.5893 5.41072C10.433 5.25444 10.2211 5.16665 10 5.16665ZM8.16671 5.99998C8.16671 5.51375 8.35986 5.04743 8.70368 4.70362C9.04749 4.3598 9.51381 4.16665 10 4.16665C10.4863 4.16665 10.9526 4.3598 11.2964 4.70362C11.6402 5.04743 11.8334 5.51375 11.8334 5.99998C11.8334 6.48621 11.6402 6.95253 11.2964 7.29634C10.9526 7.64016 10.4863 7.83331 10 7.83331C9.51381 7.83331 9.04749 7.64016 8.70368 7.29634C8.35986 6.95253 8.16671 6.48621 8.16671 5.99998Z" fill="#D9D9D9"/>
</g>
<defs>
<clipPath id="clip0_74_165">
<rect width="16" height="16" fill="white"/>
</clipPath>
</defs>
</svg>
