<svg width="16" height="16" viewBox="0 0 16 16" fill="none" xmlns="http://www.w3.org/2000/svg">
<path fill-rule="evenodd" clip-rule="evenodd" d="M5.33328 0.833316C4.82978 0.83271 4.33113 0.931576 3.86595 1.12424C3.40077 1.3169 2.97824 1.59956 2.62261 1.95598C1.99548 2.58307 1.60519 3.4082 1.51823 4.29078C1.43128 5.17337 1.65303 6.0588 2.14572 6.79622C2.6384 7.53363 3.37153 8.0774 4.2202 8.33488C5.06886 8.59235 5.98054 8.5476 6.79991 8.20825C7.61927 7.86889 8.29562 7.25594 8.71372 6.47381C9.13181 5.69169 9.26579 4.78879 9.09281 3.91897C8.91983 3.04914 8.4506 2.2662 7.76507 1.70355C7.07955 1.1409 6.22014 0.833358 5.33328 0.833316ZM7.65928 6.28532L3.71461 2.34065C4.26023 1.96022 4.9223 1.78388 5.58487 1.84252C6.24743 1.90115 6.86824 2.19102 7.33857 2.66135C7.80891 3.13168 8.09878 3.7525 8.15741 4.41506C8.21604 5.07762 8.0397 5.73969 7.65928 6.28532ZM3.00661 3.04798L6.95128 6.99265C6.40566 7.37308 5.74359 7.54941 5.08102 7.49078C4.41846 7.43215 3.79765 7.14228 3.32731 6.67195C2.85698 6.20161 2.56711 5.5808 2.50848 4.91824C2.44984 4.25567 2.62618 3.5936 3.00661 3.04798ZM14.0439 8.62265C13.325 7.90374 12.35 7.49985 11.3333 7.49985C10.3166 7.49985 9.34152 7.90374 8.62261 8.62265C7.9037 9.34156 7.49981 10.3166 7.49981 11.3333C7.49981 12.35 7.9037 13.3251 8.62261 14.044C9.34152 14.7629 10.3166 15.1668 11.3333 15.1668C12.35 15.1668 13.325 14.7629 14.0439 14.044C14.7629 13.3251 15.1667 12.35 15.1667 11.3333C15.1667 10.3166 14.7629 9.34156 14.0439 8.62265ZM9.32994 9.32932C9.696 8.96319 10.1554 8.70436 10.6582 8.58094C11.161 8.45752 11.688 8.47422 12.182 8.62924C12.6759 8.78425 13.118 9.07166 13.4601 9.46023C13.8023 9.8488 14.0314 10.3237 14.1226 10.8333H8.54394C8.64539 10.2634 8.91982 9.73785 9.32994 9.32932ZM8.54394 11.8333H14.1226C14.0058 12.4882 13.6624 13.0811 13.1524 13.5081C12.6424 13.9352 11.9985 14.1693 11.3333 14.1693C10.6681 14.1693 10.0241 13.9352 9.51414 13.5081C9.00417 13.0811 8.66072 12.4882 8.54394 11.8333Z" fill="#D9D9D9"/>
</svg>
