<svg width="16" height="16" viewBox="0 0 16 16" fill="none" xmlns="http://www.w3.org/2000/svg">
<path fill-rule="evenodd" clip-rule="evenodd" d="M6.30937 1.87997C6.83778 1.62946 7.41526 1.49951 8.00004 1.49951C8.58482 1.49951 9.1623 1.62946 9.69071 1.87997L14.1507 3.97197C14.8534 4.29997 15.1667 5.01464 15.1667 5.66664C15.1667 6.31864 14.8534 7.03331 14.1514 7.36197L13.1667 7.82331V11.0833C13.1667 11.9186 12.748 12.7253 11.9854 13.148C11.484 13.4253 10.8254 13.7593 10.132 14.0253C9.44737 14.288 8.68937 14.5 8.00004 14.5C7.31071 14.5 6.55271 14.288 5.86737 14.0253C5.17404 13.7593 4.51604 13.4253 4.01471 13.148C3.25204 12.7253 2.83337 11.9186 2.83337 11.0833V7.82331L1.84871 7.36131L1.83337 7.35464V9.33331C1.83337 9.46591 1.7807 9.59309 1.68693 9.68686C1.59316 9.78063 1.46598 9.83331 1.33337 9.83331C1.20077 9.83331 1.07359 9.78063 0.979821 9.68686C0.886052 9.59309 0.833374 9.46591 0.833374 9.33331V5.66664C0.833374 5.01464 1.14737 4.29997 1.84871 3.97197L6.30937 1.87997ZM3.83337 8.29264V11.084C3.83337 11.5926 4.08604 12.0446 4.49937 12.274C5.05576 12.5854 5.63264 12.8587 6.22604 13.092C6.86804 13.3386 7.49204 13.5006 8.00004 13.5006C8.50804 13.5006 9.13204 13.3386 9.77471 13.092C10.3681 12.8587 10.945 12.5854 11.5014 12.274C11.9147 12.0446 12.1667 11.5926 12.1667 11.084V8.29264L9.69071 9.45331C9.1623 9.70381 8.58482 9.83377 8.00004 9.83377C7.41526 9.83377 6.83778 9.70381 6.30937 9.45331L3.83337 8.29197V8.29264ZM2.27337 6.45597C2.00471 6.32997 1.83337 6.02931 1.83337 5.66664C1.83337 5.30397 2.00471 5.00331 2.27337 4.87731L6.73404 2.78597C7.12955 2.59779 7.56204 2.50015 8.00004 2.50015C8.43804 2.50015 8.87053 2.59779 9.26604 2.78597L13.7267 4.87731C13.9954 5.00331 14.1667 5.30397 14.1667 5.66664C14.1667 6.02931 13.9954 6.32997 13.7267 6.45597L9.26604 8.54731C8.87053 8.73549 8.43804 8.83313 8.00004 8.83313C7.56204 8.83313 7.12955 8.73549 6.73404 8.54731L2.27337 6.45597Z" fill="#D9D9D9"/>
</svg>
