<svg width="16" height="16" viewBox="0 0 16 16" fill="none" xmlns="http://www.w3.org/2000/svg">
<path fill-rule="evenodd" clip-rule="evenodd" d="M7.02004 0.980028C7.11367 1.07378 7.16626 1.20086 7.16626 1.33336C7.16626 1.46586 7.11367 1.59294 7.02004 1.68669C6.8467 1.86003 6.8467 2.14003 7.02004 2.31336C7.29052 2.5839 7.44246 2.9508 7.44246 3.33336C7.44246 3.71592 7.29052 4.08282 7.02004 4.35336C6.92525 4.44168 6.79989 4.48976 6.67035 4.48748C6.54082 4.48519 6.41723 4.43272 6.32562 4.34111C6.23401 4.2495 6.18154 4.12591 6.17925 3.99638C6.17697 3.86684 6.22505 3.74148 6.31337 3.64669C6.39626 3.56348 6.44279 3.45081 6.44279 3.33336C6.44279 3.21591 6.39626 3.10324 6.31337 3.02003C6.04289 2.74949 5.89094 2.38259 5.89094 2.00003C5.89094 1.61747 6.04289 1.25057 6.31337 0.980028C6.40712 0.886394 6.5342 0.833801 6.6667 0.833801C6.7992 0.833801 6.92629 0.886394 7.02004 0.980028ZM4.02004 1.98003C4.11367 2.07378 4.16626 2.20086 4.16626 2.33336C4.16626 2.46586 4.11367 2.59294 4.02004 2.68669L3.9427 2.76403C3.86417 2.84248 3.81661 2.94666 3.80877 3.05739C3.80093 3.16812 3.83334 3.27796 3.90004 3.36669C4.11098 3.64802 4.21336 3.996 4.18838 4.34674C4.1634 4.69748 4.01273 5.02744 3.76404 5.27603L3.6867 5.35336C3.59192 5.44168 3.46655 5.48976 3.33702 5.48748C3.20749 5.48519 3.0839 5.43272 2.99229 5.34111C2.90068 5.2495 2.8482 5.12591 2.84592 4.99638C2.84363 4.86684 2.89172 4.74148 2.98004 4.64669L3.05737 4.56936C3.1359 4.4909 3.18346 4.38673 3.1913 4.276C3.19914 4.16527 3.16673 4.05543 3.10004 3.96669C2.889 3.68545 2.78651 3.33751 2.81137 2.98677C2.83623 2.63603 2.98678 2.30603 3.23537 2.05736L3.3127 1.98003C3.35914 1.93356 3.41427 1.89671 3.47495 1.87156C3.53564 1.84641 3.60068 1.83347 3.66637 1.83347C3.73206 1.83347 3.7971 1.84641 3.85778 1.87156C3.91847 1.89671 3.9736 1.93356 4.02004 1.98003ZM10.3534 1.98003C10.447 2.07378 10.4996 2.20086 10.4996 2.33336C10.4996 2.46586 10.447 2.59294 10.3534 2.68669L10.276 2.76403C10.1975 2.84248 10.1499 2.94666 10.1421 3.05739C10.1343 3.16812 10.1667 3.27796 10.2334 3.36669C10.4443 3.64802 10.5467 3.996 10.5217 4.34674C10.4967 4.69748 10.3461 5.02744 10.0974 5.27603L10.02 5.35336C9.97426 5.40249 9.91906 5.44189 9.85773 5.46922C9.7964 5.49654 9.73019 5.51124 9.66305 5.51242C9.59592 5.51361 9.52923 5.50126 9.46697 5.47611C9.40471 5.45096 9.34816 5.41353 9.30068 5.36605C9.2532 5.31857 9.21577 5.26202 9.19062 5.19976C9.16547 5.1375 9.15312 5.07081 9.15431 5.00368C9.15549 4.93654 9.17019 4.87034 9.19752 4.809C9.22484 4.74767 9.26424 4.69247 9.31337 4.64669L9.3907 4.56936C9.46923 4.4909 9.51679 4.38673 9.52463 4.276C9.53247 4.16527 9.50006 4.05543 9.43337 3.96669C9.22234 3.68545 9.11984 3.33751 9.1447 2.98677C9.16956 2.63603 9.32011 2.30603 9.5687 2.05736L9.6467 1.98003C9.74045 1.88639 9.86754 1.8338 10 1.8338C10.1325 1.8338 10.2596 1.88639 10.3534 1.98003ZM3.09804 6.16669H10.2347C10.4767 6.16669 10.662 6.16669 10.8227 6.19469C11.2515 6.27076 11.6392 6.4972 11.916 6.83336H12.6667C13.3297 6.83336 13.9656 7.09675 14.4345 7.56559C14.9033 8.03444 15.1667 8.67032 15.1667 9.33336C15.1667 9.9964 14.9033 10.6323 14.4345 11.1011C13.9656 11.57 13.3297 11.8334 12.6667 11.8334H11.7654C11.4609 12.6187 10.9261 13.2935 10.2311 13.7694C9.5362 14.2453 8.71363 14.5 7.87137 14.5H5.46204C4.43842 14.4999 3.45048 14.124 2.68581 13.4435C1.92114 12.763 1.43298 11.8254 1.31404 10.8087L1.04737 8.52336L1.04137 8.47803C1.01337 8.23803 0.992036 8.05336 1.00137 7.89136C1.02572 7.4801 1.18789 7.08902 1.46172 6.78121C1.73555 6.4734 2.10507 6.26678 2.5107 6.19469C2.6707 6.16669 2.8567 6.16669 3.09804 6.16669ZM10.9787 10.9807C10.9195 11.04 10.8763 11.1132 10.8528 11.1935C10.8294 11.2739 10.8266 11.3589 10.8447 11.4407C10.6175 12.0457 10.2111 12.567 9.67981 12.935C9.14853 13.3029 8.51764 13.5001 7.87137 13.5H5.46204C4.68357 13.4999 3.93224 13.214 3.35069 12.6964C2.76915 12.1789 2.39788 11.4659 2.30737 10.6927L2.0407 8.40736C2.00404 8.10069 1.99604 8.01269 1.99937 7.95003C2.01059 7.7631 2.08444 7.5854 2.20902 7.44558C2.3336 7.30577 2.50163 7.21198 2.68604 7.17936C2.7467 7.16869 2.8347 7.16669 3.14404 7.16669H10.1894C10.498 7.16669 10.586 7.1687 10.6474 7.18003C11.0274 7.2467 11.3107 7.56603 11.334 7.95003C11.3374 8.01269 11.3287 8.10003 11.2934 8.40736L11.026 10.6927C11.0147 10.7894 10.9987 10.886 10.9787 10.9807ZM12.016 10.8334H12.6667C13.0645 10.8334 13.4461 10.6753 13.7274 10.394C14.0087 10.1127 14.1667 9.73119 14.1667 9.33336C14.1667 8.93554 14.0087 8.55401 13.7274 8.2727C13.4461 7.9914 13.0645 7.83336 12.6667 7.83336H12.3274C12.3294 7.85269 12.3307 7.87136 12.3314 7.8907C12.3414 8.05336 12.32 8.23736 12.2914 8.47736L12.286 8.52336L12.0194 10.8087L12.016 10.8334Z" fill="#D9D9D9"/>
</svg>
