<svg width="16" height="16" viewBox="0 0 16 16" fill="none" xmlns="http://www.w3.org/2000/svg">
<path fill-rule="evenodd" clip-rule="evenodd" d="M7.96263 0.833319H8.03729C8.47863 0.833319 8.88663 0.833319 9.26396 0.837985C9.31487 0.830837 9.36658 0.831512 9.41729 0.839985C10.022 0.850652 10.544 0.875319 10.9926 0.935319C11.774 1.04065 12.4066 1.26199 12.906 1.76065C13.4046 2.25999 13.626 2.89265 13.7313 3.67399C13.8333 4.43399 13.8333 5.40399 13.8333 6.62932V8.64399C13.8338 8.65999 13.8336 8.67601 13.8326 8.69199C13.83 9.61465 13.8146 10.374 13.7313 10.9927C13.626 11.774 13.4046 12.4067 12.906 12.906C12.6353 13.176 12.326 13.3647 11.9746 13.498L12.4473 14.4433C12.4772 14.5021 12.4952 14.5663 12.5002 14.6321C12.5053 14.6979 12.4972 14.764 12.4766 14.8267C12.4559 14.8894 12.423 14.9473 12.3799 14.9972C12.3367 15.0471 12.2841 15.088 12.225 15.1175C12.166 15.147 12.1017 15.1645 12.0359 15.169C11.97 15.1735 11.904 15.1649 11.8415 15.1438C11.7789 15.1226 11.7212 15.0893 11.6717 15.0457C11.6221 15.0022 11.5816 14.9493 11.5526 14.89L10.9746 13.7333C10.218 13.8333 9.25329 13.8333 8.03729 13.8333H7.96263C6.74663 13.8333 5.78263 13.8333 5.02529 13.7333L4.44729 14.89C4.41828 14.9493 4.37782 15.0022 4.32824 15.0457C4.27867 15.0893 4.22097 15.1226 4.15846 15.1438C4.09595 15.1649 4.02988 15.1735 3.96405 15.169C3.89821 15.1645 3.83392 15.147 3.77488 15.1175C3.71584 15.088 3.66322 15.0471 3.62005 14.9972C3.57689 14.9473 3.54402 14.8894 3.52336 14.8267C3.5027 14.764 3.49465 14.6979 3.49967 14.6321C3.5047 14.5663 3.52269 14.5021 3.55263 14.4433L4.02529 13.498C3.67577 13.3702 3.35805 13.1682 3.09396 12.906C2.59529 12.4067 2.37396 11.774 2.26863 10.9927C2.18529 10.374 2.16996 9.61465 2.16729 8.69265C2.16651 8.67644 2.16651 8.6602 2.16729 8.64399L2.16663 8.03732V6.62932C2.16663 5.40399 2.16663 4.43332 2.26863 3.67399C2.37396 2.89265 2.59529 2.25999 3.09396 1.76065C3.59329 1.26199 4.22596 1.04065 5.00729 0.935319C5.45596 0.875319 5.97796 0.850652 6.58263 0.839985C6.63333 0.831491 6.68505 0.830817 6.73596 0.837985C7.11329 0.833319 7.52129 0.833319 7.96263 0.833319ZM6.17596 1.85065C5.78063 1.86399 5.43996 1.88599 5.14063 1.92665C4.46996 2.01665 4.08329 2.18599 3.80063 2.46799C3.51929 2.74999 3.34996 3.13665 3.25996 3.80732C3.16796 4.49265 3.16663 5.39532 3.16663 6.66665V8.16665H12.8333V6.66665C12.8333 5.39532 12.832 4.49265 12.74 3.80665C12.65 3.13665 12.4806 2.74999 12.1986 2.46799C11.9166 2.18599 11.53 2.01665 10.8593 1.92665C10.56 1.88665 10.2193 1.86332 9.82396 1.85065C9.77818 2.30258 9.56626 2.72143 9.22927 3.02601C8.89227 3.3306 8.4542 3.49923 7.99996 3.49923C7.54572 3.49923 7.10765 3.3306 6.77065 3.02601C6.43366 2.72143 6.22174 2.30258 6.17596 1.85065ZM8.81596 1.83465C8.77739 2.02268 8.67509 2.19162 8.52636 2.31294C8.37762 2.43426 8.19157 2.50052 7.99963 2.50052C7.80769 2.50052 7.62163 2.43426 7.4729 2.31294C7.32416 2.19162 7.22186 2.02268 7.18329 1.83465C7.72773 1.83215 8.27152 1.83215 8.81596 1.83465ZM12.8293 9.16665H3.17063C3.17729 9.85599 3.19863 10.4053 3.25996 10.86C3.34996 11.53 3.51929 11.9167 3.80129 12.1987C4.08329 12.4807 4.46996 12.65 5.14063 12.74C5.82596 12.832 6.72863 12.8333 7.99996 12.8333C9.27129 12.8333 10.174 12.832 10.86 12.74C11.53 12.65 11.9166 12.4807 12.1986 12.1987C12.4806 11.9167 12.65 11.53 12.74 10.8593C12.8013 10.406 12.822 9.85599 12.8293 9.16665ZM4.16663 10.6667C4.16663 10.534 4.2193 10.4069 4.31307 10.3131C4.40684 10.2193 4.53402 10.1667 4.66663 10.1667H5.66663C5.79923 10.1667 5.92641 10.2193 6.02018 10.3131C6.11395 10.4069 6.16663 10.534 6.16663 10.6667C6.16663 10.7993 6.11395 10.9264 6.02018 11.0202C5.92641 11.114 5.79923 11.1667 5.66663 11.1667H4.66663C4.53402 11.1667 4.40684 11.114 4.31307 11.0202C4.2193 10.9264 4.16663 10.7993 4.16663 10.6667ZM9.83329 10.6667C9.83329 10.534 9.88597 10.4069 9.97974 10.3131C10.0735 10.2193 10.2007 10.1667 10.3333 10.1667H11.3333C11.4659 10.1667 11.5931 10.2193 11.6868 10.3131C11.7806 10.4069 11.8333 10.534 11.8333 10.6667C11.8333 10.7993 11.7806 10.9264 11.6868 11.0202C11.5931 11.114 11.4659 11.1667 11.3333 11.1667H10.3333C10.2007 11.1667 10.0735 11.114 9.97974 11.0202C9.88597 10.9264 9.83329 10.7993 9.83329 10.6667Z" fill="#D9D9D9"/>
</svg>
