<svg width="16" height="16" viewBox="0 0 16 16" fill="currentColor" xmlns="http://www.w3.org/2000/svg">
<g clip-path="url(#clip0_74_112)">
<path d="M6.23004 5.48668C6.18119 5.43787 6.1232 5.39916 6.05939 5.37276C5.99558 5.34636 5.92719 5.33279 5.85814 5.33282C5.78908 5.33286 5.72071 5.34649 5.65692 5.37294C5.59313 5.3994 5.53518 5.43816 5.48637 5.48701C5.43756 5.53586 5.39886 5.59385 5.37246 5.65766C5.34606 5.72147 5.33249 5.78986 5.33252 5.85891C5.33255 5.92797 5.34618 5.99634 5.37264 6.06013C5.39909 6.12392 5.43785 6.18187 5.4867 6.23068C5.58536 6.32925 5.71914 6.38459 5.85861 6.38453C5.99807 6.38447 6.1318 6.329 6.23037 6.23034C6.32894 6.13168 6.38429 5.99791 6.38422 5.85844C6.38416 5.71898 6.3287 5.58525 6.23004 5.48668ZM8.08604 6.10601C8.03727 6.05725 7.97938 6.01856 7.91567 5.99217C7.85196 5.96578 7.78367 5.9522 7.7147 5.9522C7.64574 5.9522 7.57745 5.96578 7.51374 5.99217C7.45003 6.01856 7.39214 6.05725 7.34337 6.10601C7.29461 6.15477 7.25592 6.21267 7.22953 6.27638C7.20314 6.34009 7.18956 6.40838 7.18956 6.47734C7.18956 6.54631 7.20314 6.61459 7.22953 6.67831C7.25592 6.74202 7.29461 6.79991 7.34337 6.84868C7.44186 6.94716 7.57543 7.00249 7.7147 7.00249C7.85398 7.00249 7.98755 6.94716 8.08604 6.84868C8.18452 6.75019 8.23985 6.61662 8.23985 6.47734C8.23985 6.33807 8.18452 6.20449 8.08604 6.10601ZM10.5607 8.58068C10.6116 8.62895 10.6524 8.68694 10.6805 8.75121C10.7087 8.81549 10.7237 8.88476 10.7246 8.95493C10.7256 9.02509 10.7124 9.09474 10.686 9.15975C10.6596 9.22476 10.6204 9.28381 10.5708 9.33343C10.5212 9.38305 10.4621 9.42223 10.3971 9.44865C10.3321 9.47507 10.2625 9.48819 10.1923 9.48725C10.1221 9.48631 10.0529 9.47132 9.98857 9.44317C9.9243 9.41502 9.86631 9.37427 9.81804 9.32334C9.72387 9.22399 9.67221 9.0918 9.67404 8.95493C9.67587 8.81805 9.73106 8.68729 9.82786 8.5905C9.92465 8.4937 10.0554 8.43851 10.1923 8.43668C10.3292 8.43484 10.4613 8.48651 10.5607 8.58068ZM11.18 11.18C11.2785 11.0815 11.3338 10.948 11.3338 10.8087C11.3338 10.6694 11.2785 10.5358 11.18 10.4373C11.0816 10.3389 10.948 10.2835 10.8087 10.2835C10.6694 10.2835 10.5359 10.3389 10.4374 10.4373C10.3389 10.5358 10.2836 10.6694 10.2836 10.8087C10.2836 10.948 10.3389 11.0815 10.4374 11.18C10.5359 11.2785 10.6694 11.3338 10.8087 11.3338C10.948 11.3338 11.0816 11.2785 11.18 11.18ZM8.7047 8.70468C8.75347 8.65596 8.79216 8.59811 8.81857 8.53444C8.84497 8.47076 8.85858 8.40251 8.85861 8.33358C8.85864 8.26465 8.8451 8.19638 8.81875 8.13269C8.7924 8.06899 8.75376 8.01111 8.70504 7.96234C8.65632 7.91358 8.59847 7.87489 8.5348 7.84848C8.47112 7.82207 8.40287 7.80847 8.33394 7.80843C8.26501 7.8084 8.19674 7.82195 8.13305 7.8483C8.06935 7.87465 8.01147 7.91329 7.9627 7.96201C7.86422 8.06041 7.80886 8.19389 7.8088 8.33311C7.80873 8.47232 7.86398 8.60586 7.96237 8.70434C8.06077 8.80283 8.19425 8.85819 8.33347 8.85825C8.47268 8.85831 8.60622 8.80307 8.7047 8.70468ZM9.32337 9.81868C9.37536 9.86669 9.41711 9.92471 9.44612 9.98925C9.47513 10.0538 9.4908 10.1235 9.49219 10.1943C9.49358 10.265 9.48066 10.3353 9.45421 10.401C9.42776 10.4666 9.38832 10.5262 9.33826 10.5762C9.2882 10.6263 9.22855 10.6656 9.16289 10.692C9.09723 10.7184 9.02692 10.7313 8.95617 10.7298C8.88542 10.7284 8.81569 10.7126 8.75117 10.6836C8.68665 10.6545 8.62867 10.6127 8.5807 10.5607C8.48875 10.4609 8.43895 10.3295 8.44174 10.1938C8.44452 10.0582 8.49968 9.92887 8.59566 9.83298C8.69164 9.73709 8.82099 9.68204 8.95664 9.67938C9.09228 9.67671 9.2237 9.72663 9.32337 9.81868ZM6.10604 7.34334C6.20452 7.24486 6.33809 7.18953 6.47737 7.18953C6.61665 7.18953 6.75022 7.24486 6.8487 7.34334C6.94719 7.44183 7.00252 7.5754 7.00252 7.71468C7.00252 7.85395 6.94719 7.98753 6.8487 8.08601C6.75022 8.18449 6.61665 8.23982 6.47737 8.23982C6.33809 8.23982 6.20452 8.18449 6.10604 8.08601C6.00755 7.98753 5.95223 7.85395 5.95223 7.71468C5.95223 7.5754 6.00755 7.44183 6.10604 7.34334Z" fill="currecntColor"/>
<path fill-rule="evenodd" clip-rule="evenodd" d="M9.59934 1.78869C9.90039 1.47811 10.2602 1.23051 10.6579 1.06032C11.0555 0.890121 11.4831 0.800728 11.9156 0.797341C12.3481 0.793954 12.777 0.876641 13.1773 1.04059C13.5775 1.20453 13.9412 1.44647 14.2471 1.7523C14.5529 2.05813 14.7949 2.42175 14.9589 2.822C15.1229 3.22224 15.2057 3.65111 15.2024 4.08364C15.199 4.51617 15.1097 4.94372 14.9396 5.34139C14.7694 5.73907 14.5219 6.09893 14.2113 6.40002L12.6133 8.00002L14.212 9.59936C14.5197 9.9011 14.7646 10.2608 14.9324 10.6578C15.1003 11.0547 15.1878 11.481 15.1899 11.912C15.192 12.343 15.1087 12.7701 14.9448 13.1686C14.7808 13.5672 14.5395 13.9293 14.2347 14.2341C13.93 14.5388 13.5679 14.7802 13.1693 14.9441C12.7707 15.1081 12.3436 15.1914 11.9126 15.1893C11.4817 15.1872 11.0554 15.0996 10.6584 14.9318C10.2615 14.7639 9.90175 14.5191 9.60001 14.2114L8.00001 12.6134L6.40067 14.212C5.78704 14.8137 4.96071 15.1489 4.1013 15.1447C3.24189 15.1405 2.41888 14.7972 1.81118 14.1895C1.20348 13.5818 0.860211 12.7588 0.855996 11.8994C0.851782 11.04 1.18696 10.2137 1.78867 9.60002L3.38667 8.00002L1.78867 6.40069C1.19267 5.78599 0.862304 4.96157 0.868884 4.1054C0.875465 3.24923 1.21847 2.42999 1.82384 1.82452C2.42922 1.21906 3.24842 0.875937 4.10459 0.869233C4.96075 0.862529 5.78522 1.19278 6.40001 1.78869L8.00001 3.38669L9.59934 1.78802V1.78869ZM13.504 10.306C13.9265 10.7304 14.1634 11.3051 14.1627 11.904C14.162 12.5028 13.9238 13.0769 13.5004 13.5004C13.0769 13.9238 12.5028 14.162 11.9039 14.1627C11.3051 14.1634 10.7304 13.9265 10.306 13.504L2.49601 5.69402C2.08211 5.26794 1.85249 4.6961 1.85677 4.1021C1.86105 3.5081 2.09888 2.93963 2.51887 2.51955C2.93887 2.09948 3.50728 1.86152 4.10128 1.85712C4.69529 1.85272 5.26717 2.08222 5.69334 2.49602L13.5033 10.306H13.504ZM13.504 5.69402L11.9053 7.29269L8.70734 4.09469L10.306 2.49602C10.5158 2.28526 10.7651 2.11794 11.0397 2.00367C11.3143 1.88939 11.6087 1.83039 11.9061 1.83006C12.2035 1.82972 12.498 1.88804 12.7728 2.0017C13.0477 2.11535 13.2974 2.28209 13.5076 2.49238C13.7179 2.70267 13.8847 2.95238 13.9983 3.2272C14.112 3.50202 14.1703 3.79656 14.17 4.09396C14.1696 4.39135 14.1106 4.68576 13.9964 4.96032C13.8821 5.23489 13.7148 5.48421 13.504 5.69402ZM2.49601 10.306L4.09467 8.70736L7.29267 11.9054L5.69401 13.504C5.26959 13.9265 4.69492 14.1634 4.09607 14.1627C3.49722 14.162 2.92309 13.9238 2.49964 13.5004C2.07619 13.0769 1.83799 12.5028 1.83731 11.904C1.83663 11.3051 2.07352 10.7304 2.49601 10.306Z" fill="currecntColor"/>
</g>
<defs>
<clipPath id="clip0_74_112">
<rect width="16" height="16" fill="currentColor"/>
</clipPath>
</defs>
</svg>
