<svg width="16" height="16" viewBox="0 0 16 16" fill="none" xmlns="http://www.w3.org/2000/svg">
<path fill-rule="evenodd" clip-rule="evenodd" d="M15.1667 3.28867C15.1667 2.31334 14.39 1.47667 13.3707 1.51201C12.6114 1.53867 11.62 1.61734 10.8567 1.84601C10.1934 2.04467 9.44737 2.43267 8.86537 2.76934C8.59638 2.92469 8.29255 3.00968 7.982 3.01644C7.67144 3.0232 7.3642 2.95151 7.08871 2.80801C6.42471 2.45734 5.55204 2.04134 4.79404 1.84134C4.15404 1.67267 3.34337 1.59134 2.68537 1.55067C1.64671 1.48734 0.833374 2.33334 0.833374 3.33201V10.7627C0.833374 11.7867 1.66271 12.586 2.64537 12.6473C3.28471 12.6873 4.00404 12.7647 4.53871 12.906C5.20071 13.08 6.01871 13.4687 6.68004 13.8207C7.08658 14.0364 7.5398 14.1492 8.00004 14.1492C8.46028 14.1492 8.9135 14.0364 9.32004 13.8207C9.98071 13.4687 10.7994 13.0807 11.4607 12.906C11.996 12.7647 12.7154 12.6873 13.3547 12.6473C14.3374 12.586 15.1667 11.7867 15.1667 10.7627V3.28867ZM13.4054 2.51134C13.8154 2.49734 14.1667 2.83467 14.1667 3.28867V10.762C14.1667 11.2193 13.788 11.6187 13.292 11.6493C12.6387 11.6907 11.8394 11.7713 11.2054 11.9387C10.4254 12.1453 9.52204 12.58 8.85004 12.9387C8.73804 12.9987 8.62004 13.0453 8.50004 13.0793V3.96134C8.80137 3.90134 9.09471 3.79201 9.36671 3.63467C9.93337 3.30667 10.5967 2.96801 11.1434 2.80401C11.7767 2.61467 12.6594 2.53734 13.4054 2.51134ZM7.50004 3.98334C7.19305 3.93587 6.89611 3.83764 6.62137 3.69267C5.97004 3.34801 5.18071 2.97801 4.53937 2.80867C3.99737 2.66534 3.26804 2.58867 2.62404 2.54867C2.20137 2.52334 1.83337 2.86734 1.83337 3.33201V10.7627C1.83337 11.2193 2.21204 11.6187 2.70804 11.6493C3.36137 11.6907 4.16071 11.7713 4.79471 11.9387C5.57471 12.1453 6.47804 12.58 7.15004 12.9387C7.26204 12.9987 7.38004 13.0453 7.50004 13.0793V3.98334Z" fill="#D9D9D9"/>
</svg>
