<svg width="16" height="16" viewBox="0 0 16 16" fill="none" xmlns="http://www.w3.org/2000/svg">
<path fill-rule="evenodd" clip-rule="evenodd" d="M7.04071 1.5H8.96004C9.03537 1.5 9.09404 1.5 9.15004 1.50333C9.49642 1.52439 9.82971 1.64332 10.1112 1.8463C10.3926 2.04929 10.6107 2.32798 10.74 2.65C10.7614 2.70133 10.78 2.75667 10.8034 2.82867L10.8247 2.89333C10.8312 2.9123 10.8378 2.93119 10.8447 2.95C10.9627 3.27667 11.2534 3.50333 11.5567 3.53333L11.6234 3.53733C12.7414 3.60333 13.6007 3.78933 14.2394 4.42733C14.738 4.92667 14.9594 5.55933 15.0647 6.34067C15.1667 7.10067 15.1667 8.07067 15.1667 9.296V9.37067C15.1667 10.596 15.1667 11.5667 15.0647 12.326C14.9594 13.1073 14.738 13.74 14.2394 14.2393C13.74 14.738 13.1074 14.9593 12.326 15.0647C11.566 15.1667 10.596 15.1667 9.37071 15.1667H6.62937C5.40404 15.1667 4.43337 15.1667 3.67404 15.0647C2.89271 14.9593 2.26004 14.738 1.76071 14.2393C1.26204 13.74 1.04071 13.1073 0.935374 12.326C0.833374 11.566 0.833374 10.596 0.833374 9.37067V9.296C0.833374 8.07067 0.833374 7.1 0.935374 6.34067C1.04071 5.55933 1.26204 4.92667 1.76071 4.42733C2.39937 3.78933 3.25937 3.60333 4.37671 3.53733L4.44337 3.53333C4.74671 3.504 5.03804 3.27667 5.15671 2.95L5.17537 2.89333L5.19671 2.82867C5.22071 2.75733 5.23937 2.70133 5.26004 2.64933C5.38948 2.32744 5.60759 2.04888 5.88904 1.84602C6.1705 1.64317 6.50374 1.52433 6.85004 1.50333C6.90604 1.5 6.96471 1.5 7.04071 1.5ZM4.42737 4.536C4.45737 4.53467 4.48737 4.53333 4.51604 4.53067C5.09804 4.5 5.79804 4.5 6.66671 4.5H9.33337C10.202 4.5 10.902 4.5 11.484 4.53067C11.5134 4.53333 11.5427 4.53467 11.572 4.536C12.6414 4.59933 13.1707 4.77333 13.532 5.13467C13.666 5.26919 13.7738 5.42743 13.85 5.60133C12.632 6.392 11.8314 6.90133 11.158 7.23867C11.1349 7.1161 11.0668 7.00661 10.9671 6.93166C10.8674 6.85672 10.7433 6.82174 10.6192 6.8336C10.495 6.84546 10.3798 6.90329 10.2961 6.99575C10.2123 7.0882 10.1662 7.20861 10.1667 7.33333V7.63867C8.75337 8.06533 7.24671 8.06533 5.83337 7.63867V7.33333C5.83387 7.20861 5.78774 7.0882 5.70403 6.99575C5.62031 6.90329 5.50507 6.84546 5.38091 6.8336C5.25675 6.82174 5.13264 6.85672 5.03294 6.93166C4.93325 7.00661 4.86516 7.1161 4.84204 7.23867C4.16871 6.902 3.36871 6.392 2.15004 5.60067C2.22623 5.42676 2.33406 5.26853 2.46804 5.134C2.82937 4.77333 3.35871 4.59933 4.42804 4.536H4.42737ZM1.90737 6.63533C1.83404 7.29933 1.83337 8.15933 1.83337 9.33333C1.83337 10.6047 1.83471 11.508 1.92671 12.1933C2.01671 12.8633 2.18604 13.25 2.46804 13.532C2.75004 13.814 3.13671 13.9833 3.80737 14.0733C4.49271 14.1653 5.39537 14.1667 6.66671 14.1667H9.33337C10.6047 14.1667 11.508 14.1653 12.1934 14.0733C12.8634 13.9833 13.25 13.814 13.532 13.532C13.814 13.25 13.9834 12.8633 14.0734 12.1927C14.1654 11.508 14.1667 10.6047 14.1667 9.33333C14.1667 8.16 14.166 7.3 14.0934 6.63533C12.8354 7.45067 11.9727 7.99 11.1667 8.33667V8.66667C11.1674 8.73233 11.1552 8.79748 11.1307 8.85841C11.1062 8.91935 11.07 8.97486 11.024 9.02178C10.9313 9.11655 10.8046 9.17059 10.672 9.172C10.5394 9.17342 10.4117 9.12209 10.3169 9.02933C10.2222 8.93656 10.1681 8.80994 10.1667 8.67733C8.74652 9.05171 7.25356 9.05171 5.83337 8.67733C5.83196 8.80994 5.77793 8.93656 5.68316 9.02933C5.58839 9.12209 5.46065 9.17342 5.32804 9.172C5.19543 9.17059 5.06882 9.11655 4.97605 9.02178C4.88328 8.92701 4.83196 8.79927 4.83337 8.66667V8.33667C4.02804 7.99 3.16471 7.45 1.90671 6.63533H1.90737ZM9.99471 3.50067L9.34737 3.5H6.00604C6.05238 3.40819 6.09118 3.31277 6.12204 3.21467L6.12404 3.20933L6.14137 3.158C6.15568 3.11247 6.17124 3.06734 6.18804 3.02267C6.24681 2.87628 6.34591 2.74958 6.47384 2.6573C6.60177 2.56501 6.75326 2.51093 6.91071 2.50133C6.93204 2.5 6.95871 2.5 7.05404 2.5H8.94604C9.04137 2.5 9.06804 2.5 9.08937 2.50133C9.41071 2.52133 9.69204 2.724 9.81271 3.02267C9.82071 3.04267 9.82871 3.06733 9.85937 3.158L9.87804 3.21467M9.90404 3.29C9.93004 3.362 9.96004 3.43267 9.99471 3.50067L9.90404 3.29Z" fill="#D9D9D9"/>
</svg>
