<svg width="16" height="16" viewBox="0 0 16 16" fill="none" xmlns="http://www.w3.org/2000/svg">
<path fill-rule="evenodd" clip-rule="evenodd" d="M4.65139 0.88467C4.75932 0.961681 4.83225 1.07841 4.85413 1.20918C4.876 1.33995 4.84505 1.47405 4.76806 1.582L4.51073 1.94267C4.92806 2.25867 5.02073 2.852 4.71473 3.28067L4.44139 3.66467C4.36439 3.7727 4.24763 3.84572 4.11679 3.86766C3.98595 3.8896 3.85176 3.85867 3.74373 3.78167C3.63569 3.70467 3.56268 3.58791 3.54073 3.45707C3.51879 3.32623 3.54973 3.19203 3.62673 3.084L3.88406 2.72267C3.6828 2.5699 3.54898 2.34472 3.51102 2.09491C3.47306 1.8451 3.53393 1.59033 3.68073 1.38467L3.95406 1.00134C4.03107 0.893406 4.1478 0.820483 4.27857 0.798604C4.40934 0.776726 4.54344 0.807684 4.65139 0.88467ZM7.31806 0.88467C7.42599 0.961681 7.49891 1.07841 7.52079 1.20918C7.54267 1.33995 7.51171 1.47405 7.43473 1.582L7.17739 1.94267C7.59473 2.25867 7.68739 2.852 7.38139 3.28067L7.10806 3.66467C7.06993 3.71816 7.02164 3.76362 6.96595 3.79845C6.91025 3.83328 6.84824 3.8568 6.78346 3.86766C6.71867 3.87853 6.65238 3.87652 6.58837 3.86177C6.52436 3.84701 6.46388 3.8198 6.41039 3.78167C6.3569 3.74354 6.31144 3.69525 6.27661 3.63956C6.24178 3.58386 6.21827 3.52185 6.2074 3.45707C6.19654 3.39228 6.19854 3.32599 6.21329 3.26198C6.22805 3.19797 6.25527 3.1375 6.29339 3.084L6.55073 2.72267C6.34936 2.57 6.21541 2.34486 6.17732 2.09505C6.13924 1.84524 6.2 1.59041 6.34673 1.38467L6.62073 1.00134C6.69774 0.893406 6.81446 0.820483 6.94523 0.798604C7.076 0.776726 7.21011 0.807684 7.31806 0.88467ZM9.98473 0.88467C10.0927 0.961681 10.1656 1.07841 10.1875 1.20918C10.2093 1.33995 10.1784 1.47405 10.1014 1.582L9.84406 1.94267C10.2614 2.25867 10.3541 2.852 10.0481 3.28067L9.77473 3.66467C9.69773 3.7727 9.58096 3.84572 9.45012 3.86766C9.31929 3.8896 9.18509 3.85867 9.07706 3.78167C8.96903 3.70467 8.89601 3.58791 8.87407 3.45707C8.85213 3.32623 8.88306 3.19203 8.96006 3.084L9.21739 2.72267C9.01602 2.57 8.88208 2.34486 8.84399 2.09505C8.8059 1.84524 8.86667 1.59041 9.01339 1.38467L9.28739 1.00134C9.3644 0.893406 9.48113 0.820483 9.6119 0.798604C9.74267 0.776726 9.87678 0.807684 9.98473 0.88467ZM4.81406 4.16667H8.51873C9.15606 4.16667 9.68539 4.16667 10.1034 4.224C10.5434 4.28467 10.9387 4.418 11.2467 4.74734C11.4534 4.968 11.5694 5.22267 11.6334 5.5H12.0001C12.8399 5.5 13.6454 5.83363 14.2392 6.4275C14.8331 7.02136 15.1667 7.82682 15.1667 8.66667C15.1667 9.50652 14.8331 10.312 14.2392 10.9058C13.6454 11.4997 12.8399 11.8333 12.0001 11.8333H11.3534L11.3334 12.0787V12.5H11.2907C11.2661 12.7133 11.2374 12.9093 11.2014 13.0893C11.0887 13.6527 10.8981 14.1227 10.5034 14.492C10.1094 14.8613 9.62673 15.0207 9.05673 15.0947C8.50873 15.1667 7.81673 15.1667 6.95939 15.1667H6.37339C5.51673 15.1667 4.82406 15.1667 4.27606 15.0947C3.70673 15.0207 3.22406 14.8613 2.82939 14.492C2.43539 14.1233 2.24473 13.652 2.13206 13.0893C2.02406 12.5467 1.97873 11.856 1.92139 11.0007L1.68806 7.508C1.64606 6.872 1.61073 6.344 1.64006 5.92334C1.67139 5.48067 1.77806 5.07667 2.08673 4.74734C2.39473 4.418 2.79006 4.28467 3.23006 4.224C3.64739 4.16667 4.17673 4.16667 4.81406 4.16667ZM11.4234 10.8333H12.0001C12.5747 10.8333 13.1258 10.6051 13.5321 10.1987C13.9385 9.79241 14.1667 9.24131 14.1667 8.66667C14.1667 8.09203 13.9385 7.54093 13.5321 7.13461C13.1258 6.72828 12.5747 6.5 12.0001 6.5H11.7001C11.6878 6.83632 11.6694 7.17237 11.6447 7.508L11.4234 10.8333ZM10.3754 11.5H2.95739C2.94406 11.3147 2.93073 11.1147 2.91673 10.9L2.68873 7.47734C2.64339 6.79667 2.61339 6.33734 2.63806 5.99334C2.66073 5.66467 2.72939 5.524 2.81673 5.43067C2.90339 5.33734 3.03939 5.26 3.36673 5.21467C3.70739 5.168 4.16806 5.16667 4.85006 5.16667H8.48339C9.16539 5.16667 9.62539 5.168 9.96673 5.21467C10.2934 5.26 10.4294 5.33734 10.5167 5.43067C10.6034 5.524 10.6721 5.664 10.6954 5.99334C10.7201 6.33734 10.6901 6.79667 10.6447 7.47734L10.4167 10.8993L10.3754 11.5ZM3.05006 12.5H10.2834C10.2647 12.6427 10.2441 12.7733 10.2201 12.8933C10.1294 13.35 10.0027 13.5913 9.82006 13.762C9.63806 13.9327 9.38873 14.0433 8.92673 14.1033C8.45139 14.1653 7.82473 14.1667 6.92473 14.1667H6.40873C5.50873 14.1667 4.88206 14.1653 4.40606 14.1033C3.94473 14.0433 3.69539 13.9327 3.51273 13.762C3.33073 13.5913 3.20406 13.35 3.11273 12.8933C3.0874 12.763 3.0665 12.6318 3.05006 12.5Z" fill="#D9D9D9"/>
</svg>
