<svg width="16" height="16" viewBox="0 0 16 16" fill="none" xmlns="http://www.w3.org/2000/svg">
<path d="M8.00004 3.66666L7.64004 4.01332C7.68668 4.06172 7.7426 4.10021 7.80446 4.1265C7.86631 4.15279 7.93283 4.16634 8.00004 4.16634C8.06725 4.16634 8.13377 4.15279 8.19563 4.1265C8.25748 4.10021 8.3134 4.06172 8.36004 4.01332L8.00004 3.66666ZM6.28404 12.2147C5.27337 11.418 4.16871 10.64 3.29204 9.65332C2.43337 8.68532 1.83337 7.55599 1.83337 6.09132H0.833374C0.833374 7.86866 1.57337 9.22466 2.54471 10.3173C3.49804 11.3907 4.71404 12.2507 5.66471 13L6.28471 12.2147H6.28404ZM1.83337 6.09132C1.83337 4.65799 2.64337 3.45532 3.74937 2.94932C4.82404 2.45799 6.26804 2.58799 7.64004 4.01332L8.36004 3.32066C6.73337 1.62932 4.84271 1.34999 3.33337 2.03999C1.85737 2.71532 0.833374 4.28332 0.833374 6.09132H1.83337ZM5.66471 13C6.00671 13.2693 6.37337 13.556 6.74471 13.7733C7.11604 13.99 7.54004 14.1667 8.00004 14.1667V13.1667C7.79337 13.1667 7.55071 13.0867 7.24937 12.91C6.94737 12.734 6.63471 12.4913 6.28404 12.2147L5.66471 13ZM10.3354 13C11.286 12.25 12.502 11.3913 13.4554 10.3173C14.4267 9.22399 15.1667 7.86866 15.1667 6.09132H14.1667C14.1667 7.55599 13.5667 8.68532 12.708 9.65332C11.8314 10.64 10.7267 11.418 9.71604 12.2147L10.3354 13ZM15.1667 6.09132C15.1667 4.28332 14.1434 2.71532 12.6667 2.03999C11.1574 1.34999 9.26804 1.62932 7.64004 3.31999L8.36004 4.01332C9.73204 2.58866 11.176 2.45799 12.2507 2.94932C13.3567 3.45532 14.1667 4.65732 14.1667 6.09132H15.1667ZM9.71604 12.2147C9.36537 12.4913 9.05271 12.734 8.75071 12.91C8.44937 13.086 8.20671 13.1667 8.00004 13.1667V14.1667C8.46004 14.1667 8.88404 13.99 9.25537 13.7733C9.62737 13.556 9.99337 13.2693 10.3354 13L9.71604 12.2147Z" fill="#D9D9D9"/>
</svg>
