<svg width="16" height="16" viewBox="0 0 16 16" fill="none" xmlns="http://www.w3.org/2000/svg">
<path fill-rule="evenodd" clip-rule="evenodd" d="M10.8334 2.5V3.62667L12.1667 4.69333V2.5H10.8334ZM13.1667 5.49333V2.33333C13.1667 1.87333 12.7934 1.5 12.3334 1.5H10.6667C10.2067 1.5 9.83337 1.87333 9.83337 2.33333V2.82667L9.56204 2.60933C9.11872 2.25458 8.56783 2.0613 8.00004 2.0613C7.43225 2.0613 6.88137 2.25458 6.43804 2.60933L1.02137 6.94267C0.917763 7.0255 0.851302 7.14611 0.836611 7.27794C0.821921 7.40978 0.860205 7.54206 0.943041 7.64567C1.02588 7.74928 1.14648 7.81574 1.27832 7.83043C1.41016 7.84512 1.54243 7.80684 1.64604 7.724L2.16671 7.30667V14.1667H1.33337C1.20077 14.1667 1.07359 14.2193 0.979821 14.3131C0.886052 14.4069 0.833374 14.5341 0.833374 14.6667C0.833374 14.7993 0.886052 14.9265 0.979821 15.0202C1.07359 15.114 1.20077 15.1667 1.33337 15.1667H14.6667C14.7993 15.1667 14.9265 15.114 15.0203 15.0202C15.114 14.9265 15.1667 14.7993 15.1667 14.6667C15.1667 14.5341 15.114 14.4069 15.0203 14.3131C14.9265 14.2193 14.7993 14.1667 14.6667 14.1667H13.8334V7.30667L14.3547 7.724C14.4585 7.80488 14.59 7.84159 14.7206 7.82617C14.8513 7.81075 14.9706 7.74445 15.0527 7.64163C15.1349 7.53882 15.1731 7.40779 15.1593 7.27695C15.1454 7.1461 15.0805 7.026 14.9787 6.94267L13.1667 5.49333ZM12.8334 6.50667L8.93737 3.39C8.67136 3.17708 8.34078 3.06107 8.00004 3.06107C7.65931 3.06107 7.32872 3.17708 7.06271 3.39L3.16671 6.50667V14.1667H5.50004V11.3C5.50004 10.8573 5.50004 10.4753 5.54137 10.1693C5.58537 9.84133 5.68471 9.52733 5.93937 9.27267C6.19404 9.018 6.50871 8.91867 6.83604 8.87467C7.14204 8.83333 7.52404 8.83333 7.96737 8.83333H8.03271C8.47604 8.83333 8.85804 8.83333 9.16404 8.87467C9.49204 8.91867 9.80604 9.018 10.0607 9.27267C10.3154 9.52733 10.4147 9.84133 10.4587 10.1693C10.5 10.4753 10.5 10.8573 10.5 11.3007V14.1667H12.8334V6.50667ZM9.50004 14.1667V11.3333C9.50004 10.848 9.49871 10.5333 9.46804 10.3027C9.43871 10.086 9.39204 10.018 9.35337 9.98C9.31537 9.942 9.24737 9.89467 9.03071 9.86533C8.79937 9.83467 8.48537 9.83333 8.00004 9.83333C7.51471 9.83333 7.20004 9.83467 6.96937 9.86533C6.75271 9.89467 6.68471 9.942 6.64671 9.98C6.60871 10.018 6.56137 10.086 6.53204 10.3027C6.50137 10.534 6.50004 10.848 6.50004 11.3333V14.1667H9.50004ZM8.00004 5.5C7.89061 5.5 7.78224 5.52155 7.68114 5.56343C7.58003 5.60531 7.48817 5.6667 7.41079 5.74408C7.3334 5.82146 7.27202 5.91333 7.23014 6.01443C7.18826 6.11554 7.16671 6.2239 7.16671 6.33333C7.16671 6.44277 7.18826 6.55113 7.23014 6.65224C7.27202 6.75334 7.3334 6.84521 7.41079 6.92259C7.48817 6.99997 7.58003 7.06135 7.68114 7.10323C7.78224 7.14511 7.89061 7.16667 8.00004 7.16667C8.22105 7.16667 8.43302 7.07887 8.5893 6.92259C8.74558 6.76631 8.83337 6.55435 8.83337 6.33333C8.83337 6.11232 8.74558 5.90036 8.5893 5.74408C8.43302 5.5878 8.22105 5.5 8.00004 5.5ZM6.16671 6.33333C6.16671 5.8471 6.35986 5.38079 6.70368 5.03697C7.04749 4.69315 7.51381 4.5 8.00004 4.5C8.48627 4.5 8.95259 4.69315 9.2964 5.03697C9.64022 5.38079 9.83337 5.8471 9.83337 6.33333C9.83337 6.81956 9.64022 7.28588 9.2964 7.6297C8.95259 7.97351 8.48627 8.16667 8.00004 8.16667C7.51381 8.16667 7.04749 7.97351 6.70368 7.6297C6.35986 7.28588 6.16671 6.81956 6.16671 6.33333Z" fill="#D9D9D9"/>
</svg>
