<svg width="16" height="16" viewBox="0 0 16 16" fill="none" xmlns="http://www.w3.org/2000/svg">
<g clip-path="url(#clip0_74_179)">
<path fill-rule="evenodd" clip-rule="evenodd" d="M7.29737 0.833313H8.70271C9.45804 0.833313 10.0747 0.833313 10.5627 0.898646C11.0714 0.967313 11.5127 1.11531 11.8654 1.46798C12.218 1.82065 12.366 2.26131 12.4347 2.77131C12.468 3.02198 12.4847 3.30665 12.4927 3.62665C13.198 3.73998 13.776 3.96465 14.2394 4.42731C14.738 4.92665 14.9594 5.55931 15.0647 6.34065C15.1667 7.10065 15.1667 8.07065 15.1667 9.29598V9.37131C15.1667 10.596 15.1667 11.5666 15.0647 12.326C14.9594 13.108 14.738 13.7406 14.2394 14.2393C13.74 14.738 13.1074 14.9593 12.326 15.0646C11.566 15.1666 10.596 15.1666 9.37071 15.1666H6.62937C5.40404 15.1666 4.43337 15.1666 3.67404 15.0646C2.89271 14.9593 2.26004 14.738 1.76071 14.2393C1.26204 13.7406 1.04071 13.108 0.935374 12.326C0.833374 11.5666 0.833374 10.596 0.833374 9.37131V9.29598C0.833374 8.07065 0.833374 7.09998 0.935374 6.34065C1.04071 5.55931 1.26204 4.92665 1.76071 4.42731C2.22404 3.96465 2.80204 3.74065 3.50737 3.62731C3.51537 3.30665 3.53204 3.02198 3.56537 2.77131C3.63404 2.26198 3.78204 1.82065 4.13471 1.46798C4.48737 1.11531 4.92804 0.967313 5.43804 0.898646C5.92471 0.833313 6.54137 0.833313 7.29737 0.833313ZM3.50004 4.64398C3.01271 4.74198 2.70404 4.89865 2.46804 5.13465C2.18604 5.41665 2.01671 5.80331 1.92671 6.47398C1.83471 7.15931 1.83337 8.06198 1.83337 9.33398C1.83337 10.6046 1.83471 11.5073 1.92671 12.1926C2.01671 12.8633 2.18604 13.25 2.46804 13.5326C2.75004 13.814 3.13671 13.9833 3.80737 14.0733C4.49271 14.166 5.39537 14.1666 6.66671 14.1666H9.33337C10.6047 14.1666 11.508 14.166 12.1934 14.0733C12.8634 13.9833 13.25 13.814 13.532 13.532C13.814 13.25 13.9834 12.8633 14.0734 12.1926C14.1654 11.508 14.1667 10.6046 14.1667 9.33331C14.1667 8.06198 14.1654 7.15931 14.0734 6.47398C13.9834 5.80331 13.814 5.41665 13.532 5.13465C13.296 4.89865 12.9874 4.74131 12.5 4.64398V5.50865C12.5 6.03265 12.5014 6.44798 12.3267 6.81998C12.1534 7.19131 11.8334 7.45665 11.4307 7.79198L11.3607 7.85065L10.856 8.27065C10.2647 8.76398 9.78604 9.16265 9.36271 9.43465C8.92271 9.71798 8.49404 9.89665 8.00004 9.89665C7.50604 9.89665 7.07737 9.71731 6.63671 9.43465C6.21404 9.16265 5.73537 8.76331 5.14404 8.27131L4.63937 7.85065C4.61604 7.83065 4.59271 7.81065 4.56937 7.79198C4.16671 7.45665 3.84737 7.19198 3.67337 6.81998C3.49871 6.44798 3.50004 6.03331 3.50004 5.50865V4.64398ZM5.57137 1.88998C5.17271 1.94331 4.97804 2.03931 4.84204 2.17531C4.70604 2.31065 4.61004 2.50598 4.55671 2.90465C4.50137 3.31731 4.50004 3.86665 4.50004 4.66665V5.41798C4.50004 6.07798 4.51137 6.25131 4.57871 6.39531C4.64604 6.53998 4.77204 6.65931 5.27937 7.08198L5.75937 7.48198C6.38137 7.99998 6.81271 8.35865 7.17804 8.59331C7.53071 8.81998 7.77004 8.89665 8.00004 8.89665C8.23004 8.89665 8.46937 8.82065 8.82204 8.59331C9.18671 8.35865 9.61871 7.99998 10.2407 7.48198L10.7207 7.08198C11.228 6.65931 11.354 6.53998 11.4214 6.39531C11.4887 6.25131 11.5 6.07865 11.5 5.41798V4.66665C11.5 3.86665 11.4987 3.31731 11.4434 2.90465C11.39 2.50598 11.294 2.31131 11.158 2.17531C11.0227 2.03931 10.8274 1.94331 10.4287 1.88998C10.016 1.83465 9.46671 1.83331 8.66671 1.83331H7.33337C6.53337 1.83331 5.98404 1.83465 5.57137 1.88998ZM6.16671 3.99998C6.16671 3.86737 6.21939 3.74019 6.31315 3.64643C6.40692 3.55266 6.5341 3.49998 6.66671 3.49998H9.33337C9.46598 3.49998 9.59316 3.55266 9.68693 3.64643C9.7807 3.74019 9.83337 3.86737 9.83337 3.99998C9.83337 4.13259 9.7807 4.25976 9.68693 4.35353C9.59316 4.4473 9.46598 4.49998 9.33337 4.49998H6.66671C6.5341 4.49998 6.40692 4.4473 6.31315 4.35353C6.21939 4.25976 6.16671 4.13259 6.16671 3.99998ZM6.83337 5.99998C6.83337 5.86737 6.88605 5.74019 6.97982 5.64643C7.07359 5.55266 7.20077 5.49998 7.33337 5.49998H8.66671C8.79932 5.49998 8.92649 5.55266 9.02026 5.64643C9.11403 5.74019 9.16671 5.86737 9.16671 5.99998C9.16671 6.13259 9.11403 6.25976 9.02026 6.35353C8.92649 6.4473 8.79932 6.49998 8.66671 6.49998H7.33337C7.20077 6.49998 7.07359 6.4473 6.97982 6.35353C6.88605 6.25976 6.83337 6.13259 6.83337 5.99998Z" fill="#D9D9D9"/>
</g>
<defs>
<clipPath id="clip0_74_179">
<rect width="16" height="16" fill="white"/>
</clipPath>
</defs>
</svg>
