<svg width="0" height="0" class="hidden">
  <symbol fill="none" xmlns="http://www.w3.org/2000/svg" viewBox="0 0 36 36" id="sticker">
    <path fill-rule="evenodd" clip-rule="evenodd" d="M18 2.58333C14.0179 2.5809 10.1894 4.11939 7.31621 6.87656C4.44305 9.63373 2.7482 13.3957 2.58663 17.3745C2.42507 21.3533 3.80933 25.2403 6.44947 28.2213C9.08962 31.2024 12.7808 33.0462 16.75 33.3667C16.7533 29.605 16.8067 27.3117 17.475 25.4C18.1159 23.5686 19.1612 21.9052 20.5332 20.5332C21.9052 19.1612 23.5686 18.1159 25.4 17.475C27.3117 16.8067 29.605 16.7533 33.3667 16.75C33.0527 12.8902 31.2976 9.29002 28.4504 6.66518C25.6033 4.04034 21.8725 2.58314 18 2.58333ZM33.0667 19.2517C29.42 19.2617 27.6517 19.335 26.2267 19.835C24.7496 20.3518 23.408 21.1949 22.3014 22.3014C21.1949 23.408 20.3519 24.7496 19.835 26.2267C19.335 27.6517 19.2617 29.42 19.2517 33.0667C19.5017 32.925 19.7417 32.7417 19.9633 32.52L32.52 19.9633C32.7417 19.7417 32.925 19.5017 33.0667 19.2517ZM0.0833435 18C0.0833435 8.105 8.10501 0.0833282 18 0.0833282C27.895 0.0833282 35.9167 8.105 35.9167 18C35.9167 19.4733 35.2367 20.7817 34.2883 21.7317L21.7317 34.2883C20.7817 35.2383 19.4733 35.9167 18 35.9167C8.10501 35.9167 0.0833435 27.895 0.0833435 18Z" fill="currentColor"></path>
  </symbol>
</svg>