<svg width="16" height="16" viewBox="0 0 16 16" fill="none" xmlns="http://www.w3.org/2000/svg">
<g clip-path="url(#clip0_74_195)">
<path fill-rule="evenodd" clip-rule="evenodd" d="M0.833377 7.99998C0.833377 4.04198 4.04204 0.833313 8.00004 0.833313C11.958 0.833313 15.1667 4.04198 15.1667 7.99998C15.1667 11.958 11.958 15.1666 8.00004 15.1666C6.30004 15.1666 4.73738 14.5746 3.50871 13.5853L3.50738 13.584C2.67187 12.9129 1.9978 12.0628 1.53497 11.0963C1.07213 10.1297 0.832367 9.0716 0.833377 7.99998ZM5.36138 13.5753C6.16138 13.9546 7.05604 14.1666 8.00004 14.1666C9.04841 14.1672 10.0796 13.9003 10.996 13.3912C11.9125 12.8822 12.6839 12.1477 13.2374 11.2573C12.9162 10.7793 12.5303 10.348 12.0907 9.97598C10.3534 11.844 7.91071 13.1813 5.36138 13.5753ZM11.27 9.38865C9.40004 11.3493 6.68138 12.6386 4.00004 12.6933C3.58351 12.338 3.21587 11.9291 2.90671 11.4773C4.94804 11.3173 6.84004 10.306 8.10804 8.67598L8.24271 8.50265C9.31091 8.53398 10.3531 8.8393 11.2694 9.38931L11.27 9.38865ZM8.28671 7.50331C10.4274 7.56998 12.4227 8.58131 13.742 10.2533C14.0385 9.49745 14.1824 8.69038 14.1654 7.87865L13.808 7.51531L13.8067 7.51398C12.1487 5.85668 9.91818 4.89843 7.57471 4.83665C7.58536 5.77108 7.83016 6.68793 8.28671 7.50331ZM7.65338 3.83865C9.95472 3.91103 12.1632 4.76315 13.9167 6.25531C13.5555 5.03269 12.8244 3.95197 11.8241 3.16169C10.8237 2.37141 9.60308 1.91039 8.33004 1.84198L8.00471 2.62265C7.8417 3.01334 7.72428 3.42129 7.65338 3.83865ZM7.23004 1.88065C6.59317 1.95988 5.97271 2.13873 5.39138 2.41065C4.46127 4.75191 4.4701 7.36173 5.41604 9.69665C6.15324 9.28454 6.80024 8.72867 7.31871 8.06198L7.39671 7.96065C6.9166 7.09209 6.63887 6.12631 6.58427 5.13539C6.52967 4.14448 6.6996 3.15403 7.08138 2.23798L7.23004 1.88065ZM4.50671 10.114C3.6139 7.93707 3.45796 5.52781 4.06271 3.25398C3.36449 3.83202 2.8026 4.55719 2.41721 5.37763C2.03183 6.19808 1.83246 7.09353 1.83338 7.99998C1.83338 8.88998 2.02204 9.73598 2.36138 10.5C3.09342 10.4969 3.81936 10.3665 4.50671 10.1146V10.114Z" fill="#D9D9D9"/>
</g>
<defs>
<clipPath id="clip0_74_195">
<rect width="16" height="16" fill="white"/>
</clipPath>
</defs>
</svg>
