<svg width="16" height="16" viewBox="0 0 16 16" fill="none" xmlns="http://www.w3.org/2000/svg">
<path fill-rule="evenodd" clip-rule="evenodd" d="M8.33329 1.83331C8.18008 1.83331 8.02838 1.86349 7.88683 1.92212C7.74528 1.98075 7.61667 2.06669 7.50833 2.17502C7.4 2.28336 7.31406 2.41197 7.25543 2.55352C7.1968 2.69506 7.16663 2.84677 7.16663 2.99998C7.16663 3.15319 7.1968 3.3049 7.25543 3.44644C7.31406 3.58799 7.4 3.7166 7.50833 3.82494C7.61667 3.93327 7.74528 4.01921 7.88683 4.07784C8.02838 4.13647 8.18008 4.16665 8.33329 4.16665C8.64271 4.16665 8.93946 4.04373 9.15825 3.82494C9.37704 3.60615 9.49996 3.3094 9.49996 2.99998C9.49996 2.69056 9.37704 2.39381 9.15825 2.17502C8.93946 1.95623 8.64271 1.83331 8.33329 1.83331ZM6.16663 2.99998C6.16663 2.42534 6.3949 1.87424 6.80123 1.46791C7.20756 1.06159 7.75866 0.833313 8.33329 0.833313C8.90793 0.833313 9.45903 1.06159 9.86536 1.46791C10.2717 1.87424 10.5 2.42534 10.5 2.99998C10.5 3.57462 10.2717 4.12572 9.86536 4.53204C9.45903 4.93837 8.90793 5.16665 8.33329 5.16665C7.75866 5.16665 7.20756 4.93837 6.80123 4.53204C6.3949 4.12572 6.16663 3.57462 6.16663 2.99998ZM7.28663 6.17798C7.41929 6.17131 7.54796 6.16665 7.66663 6.16665C8.03596 6.16665 8.43596 6.20798 8.79596 6.25998C9.80996 6.40531 10.578 7.15331 10.8853 8.07465C10.9189 8.17561 10.9875 8.26123 11.0787 8.31611C11.1699 8.37099 11.2777 8.39151 11.3826 8.37398L12.5846 8.17398C12.6503 8.16101 12.7179 8.16136 12.7834 8.175C12.8489 8.18865 12.911 8.21531 12.9661 8.2534C13.0211 8.2915 13.0679 8.34025 13.1038 8.39678C13.1396 8.4533 13.1637 8.51645 13.1747 8.58247C13.1857 8.64849 13.1833 8.71605 13.1677 8.78113C13.1521 8.84621 13.1236 8.9075 13.0838 8.96136C13.0441 9.01521 12.994 9.06055 12.9364 9.09466C12.8788 9.12878 12.8149 9.15099 12.7486 9.15998L11.5466 9.35998C11.2068 9.41657 10.8579 9.35003 10.5628 9.17234C10.2677 8.99464 10.0456 8.71746 9.93663 8.39065C9.73196 7.77598 9.24129 7.33398 8.65396 7.24931C8.47572 7.22334 8.29676 7.20266 8.11729 7.18731L7.93663 8.99465C7.88063 9.55465 7.87396 9.70265 7.91196 9.83465C7.94929 9.96665 8.03329 10.088 8.37663 10.534L11.33 14.3606C11.3701 14.4127 11.3996 14.4721 11.4168 14.5355C11.434 14.5989 11.4385 14.665 11.4301 14.7302C11.4217 14.7953 11.4006 14.8582 11.3679 14.9152C11.3352 14.9722 11.2916 15.0222 11.2396 15.0623C11.1876 15.1025 11.1282 15.132 11.0648 15.1491C11.0014 15.1663 10.9352 15.1709 10.8701 15.1625C10.8049 15.1541 10.7421 15.1329 10.6851 15.1003C10.6281 15.0676 10.5781 15.024 10.538 14.972L7.58463 11.1453L7.53796 11.0833C7.26396 10.73 7.04729 10.4493 6.94996 10.11C6.85329 9.76998 6.88863 9.41798 6.93329 8.97265L6.94129 8.89531L7.11063 7.20198C5.99529 7.38398 5.16663 8.43265 5.16663 9.66665C5.16663 9.79925 5.11395 9.92643 5.02018 10.0202C4.92641 10.114 4.79923 10.1666 4.66663 10.1666C4.53402 10.1666 4.40684 10.114 4.31307 10.0202C4.2193 9.92643 4.16663 9.79925 4.16663 9.66665C4.16663 7.90665 5.44263 6.27798 7.28663 6.17798ZM6.76463 11.1766C6.89454 11.2027 7.0088 11.2793 7.0823 11.3895C7.1558 11.4998 7.18254 11.6347 7.15663 11.7646C6.91835 12.9564 6.26753 14.026 5.31863 14.7853L4.97863 15.0573C4.87484 15.1382 4.74336 15.1749 4.61269 15.1595C4.48202 15.1441 4.3627 15.0778 4.28059 14.9749C4.19848 14.8721 4.16021 14.7411 4.17407 14.6103C4.18793 14.4794 4.2528 14.3593 4.35463 14.276L4.69396 14.0046C5.45932 13.3923 5.98431 12.5298 6.17663 11.5686C6.20269 11.4387 6.27926 11.3245 6.38951 11.251C6.49976 11.1775 6.63468 11.1507 6.76463 11.1766Z" fill="#D9D9D9"/>
</svg>
