<svg width="16" height="16" viewBox="0 0 16 16" fill="none" xmlns="http://www.w3.org/2000/svg">
<path fill-rule="evenodd" clip-rule="evenodd" d="M2.83337 3.26333C2.83337 2.79567 3.01915 2.34716 3.34984 2.01647C3.68053 1.68578 4.12904 1.5 4.59671 1.5H11.4034C11.871 1.5 12.3196 1.68578 12.6502 2.01647C12.9809 2.34716 13.1667 2.79567 13.1667 3.26333V5.33333C13.1666 6.61706 12.6887 7.85479 11.826 8.80545C10.9634 9.7561 9.77772 10.3516 8.50004 10.476V13.5H10.5C10.6326 13.5 10.7598 13.5527 10.8536 13.6464C10.9474 13.7402 11 13.8674 11 14C11 14.1326 10.9474 14.2598 10.8536 14.3536C10.7598 14.4473 10.6326 14.5 10.5 14.5H5.50004C5.36743 14.5 5.24026 14.4473 5.14649 14.3536C5.05272 14.2598 5.00004 14.1326 5.00004 14C5.00004 13.8674 5.05272 13.7402 5.14649 13.6464C5.24026 13.5527 5.36743 13.5 5.50004 13.5H7.50004V10.476C6.22236 10.3516 5.03672 9.7561 4.17405 8.80545C3.31138 7.85479 2.83346 6.61706 2.83337 5.33333V3.26333ZM4.59671 2.5C4.17537 2.5 3.83337 2.842 3.83337 3.26333V5.392C3.96871 5.34 4.13337 5.27867 4.31671 5.21533C4.78871 5.05333 5.42537 4.868 5.96937 4.834C6.94871 4.774 7.65471 5.204 8.22871 5.554L8.26004 5.57267C8.85871 5.93733 9.32271 6.20733 9.96937 6.16733C10.3714 6.14267 10.9014 5.99533 11.3594 5.83867C11.6159 5.75021 11.8694 5.65304 12.1194 5.54733L12.13 5.54333L12.132 5.542C12.1419 5.5377 12.1519 5.5337 12.162 5.53C12.1651 5.46449 12.1667 5.39892 12.1667 5.33333V3.26333C12.1667 2.842 11.8254 2.5 11.4034 2.5H4.59671ZM11.9394 6.69333C11.6477 7.53604 11.0934 8.26298 10.358 8.76739C9.62259 9.2718 8.74481 9.52709 7.8536 9.49576C6.96238 9.46443 6.1047 9.14813 5.40654 8.59332C4.70837 8.03852 4.20653 7.27444 3.97471 6.41333L4.08404 6.368C4.22271 6.31267 4.41737 6.238 4.64071 6.16133C5.09871 6.00467 5.62871 5.85733 6.03071 5.83267C6.67737 5.79267 7.14137 6.06267 7.74004 6.42733L7.77137 6.446C8.34471 6.79533 9.05137 7.226 10.0307 7.166C10.5747 7.13267 11.2107 6.946 11.684 6.78467C11.7734 6.75333 11.8594 6.72333 11.9394 6.69333Z" fill="#D9D9D9"/>
</svg>
