<svg width="16" height="16" viewBox="0 0 16 16" fill="none" xmlns="http://www.w3.org/2000/svg">
<g clip-path="url(#clip0_74_163)">
<path fill-rule="evenodd" clip-rule="evenodd" d="M11.54 1.84997C11.432 1.87064 11.2927 1.90664 11.0753 1.96264L9.26802 2.42864C9.05068 2.48464 8.91202 2.52064 8.80735 2.5553C8.75556 2.56893 8.70611 2.59028 8.66068 2.61864C8.61776 2.64945 8.58148 2.68859 8.55399 2.73371C8.52651 2.77884 8.50838 2.82903 8.50068 2.8813C8.49864 2.92852 8.50404 2.97576 8.51668 3.0213C8.53735 3.1233 8.57402 3.2553 8.63202 3.4653C8.69068 3.67464 8.72735 3.80664 8.76268 3.9053C8.79602 3.9993 8.81602 4.02797 8.82402 4.03797C8.89591 4.12551 8.99838 4.18246 9.11068 4.1973C9.11268 4.1973 9.13135 4.1973 9.17402 4.19197C9.22735 4.1853 9.29735 4.1733 9.38268 4.1553C9.55468 4.1193 9.75668 4.0673 9.97068 4.01197C10.0975 3.97923 10.2321 3.99755 10.3455 4.063C10.459 4.12845 10.5422 4.2358 10.5773 4.36197L11.6973 8.38597C11.7151 8.44997 11.72 8.51688 11.7116 8.58278C11.7033 8.64868 11.6819 8.71226 11.6487 8.76979C11.6155 8.82733 11.5711 8.87767 11.5182 8.91788C11.4654 8.95809 11.405 8.98735 11.3407 9.00397C11.1273 9.0593 10.924 9.11197 10.7573 9.1633C10.6898 9.18317 10.623 9.20586 10.5573 9.2313C10.5207 9.24664 10.504 9.2553 10.5013 9.25664C10.418 9.31915 10.3629 9.41218 10.348 9.5153C10.3458 9.56248 10.351 9.60971 10.3633 9.6553C10.384 9.7573 10.4207 9.8893 10.4787 10.0986C10.5373 10.3086 10.574 10.4406 10.6093 10.5393C10.6427 10.6326 10.6627 10.6613 10.6707 10.6713C10.7436 10.7605 10.8483 10.8179 10.9627 10.8313C11.0178 10.8346 11.0731 10.8297 11.1267 10.8166C11.2347 10.796 11.374 10.76 11.5913 10.704L13.3987 10.238C13.616 10.182 13.7553 10.146 13.8593 10.1113C13.96 10.078 13.9927 10.058 14.006 10.048C14.0489 10.0171 14.0852 9.97798 14.1127 9.93286C14.1401 9.88774 14.1583 9.83757 14.166 9.7853C14.168 9.73809 14.1626 9.69085 14.15 9.6453C14.1162 9.49614 14.0777 9.34807 14.0347 9.2013C13.9957 9.05331 13.9521 8.90658 13.904 8.7613C13.8907 8.71413 13.87 8.66936 13.8427 8.62864C13.771 8.54083 13.6684 8.48382 13.556 8.4693C13.554 8.4693 13.5353 8.4693 13.4927 8.47464C13.4393 8.4813 13.3693 8.4933 13.284 8.5113C13.1127 8.5473 12.91 8.5993 12.696 8.65464C12.5692 8.68738 12.4346 8.66905 12.3212 8.6036C12.2077 8.53816 12.1245 8.43081 12.0893 8.30464L10.9693 4.28064C10.9516 4.21663 10.9467 4.14973 10.9551 4.08382C10.9634 4.01792 10.9848 3.95435 11.018 3.89681C11.0512 3.83928 11.0956 3.78894 11.1485 3.74873C11.2013 3.70852 11.2617 3.67925 11.326 3.66264C11.5393 3.6073 11.7427 3.55464 11.9093 3.5033C11.9927 3.47797 12.0593 3.4553 12.1093 3.4353C12.146 3.41997 12.1627 3.4113 12.1653 3.40997C12.2487 3.34746 12.3038 3.25443 12.3187 3.1513C12.3209 3.10412 12.3158 3.05688 12.3033 3.0113C12.2696 2.86213 12.2311 2.71406 12.188 2.5673C12.149 2.41931 12.1055 2.27258 12.0573 2.1273C12.0439 2.08039 12.0232 2.03585 11.996 1.9953C11.9231 1.90617 11.8184 1.84881 11.704 1.8353C11.6489 1.83196 11.5936 1.8369 11.54 1.84997ZM11.3547 0.867303C11.5073 0.838637 11.664 0.821303 11.8293 0.842637C12.2013 0.889303 12.544 1.07797 12.778 1.37197C12.8833 1.50397 12.948 1.64797 12.9993 1.79197C13.048 1.92797 13.094 2.09464 13.1473 2.28397L13.1553 2.31464C13.2087 2.50464 13.2547 2.67064 13.2833 2.81197C13.3193 2.96773 13.3283 3.1285 13.31 3.2873C13.2842 3.47187 13.2216 3.64938 13.126 3.80935C13.0304 3.96932 12.9037 4.10849 12.7533 4.21864C12.6698 4.2773 12.5793 4.32544 12.484 4.36197C12.3973 4.3973 12.3 4.42997 12.2033 4.4593L12.0687 4.4993L12.922 7.5673C12.9741 7.55508 13.0263 7.54352 13.0787 7.53264C13.2513 7.49664 13.4873 7.45264 13.676 7.47664C14.048 7.5233 14.39 7.7113 14.6247 8.0053C14.73 8.13797 14.7947 8.28197 14.846 8.42597C14.8947 8.56197 14.9407 8.72864 14.9933 8.91797L15.002 8.94864C15.0553 9.13797 15.1013 9.30464 15.13 9.44597C15.1607 9.5953 15.1793 9.75264 15.1567 9.92064C15.1309 10.1053 15.0684 10.283 14.9728 10.4431C14.8772 10.6031 14.7504 10.7424 14.6 10.8526C14.4696 10.9446 14.3254 11.015 14.1727 11.0613C14.0327 11.1073 13.8613 11.1513 13.6633 11.2026L11.826 11.676C11.628 11.7273 11.4567 11.7713 11.312 11.7986C11.1561 11.8322 10.9959 11.8407 10.8373 11.824C10.4643 11.7777 10.1239 11.5878 9.88868 11.2946C9.79184 11.1681 9.71701 11.0261 9.66735 10.8746C9.61868 10.7386 9.57268 10.572 9.52002 10.3826L9.51135 10.352C9.45802 10.162 9.41201 9.9953 9.38335 9.85464C9.34735 9.69888 9.33833 9.53811 9.35668 9.3793C9.38247 9.19473 9.44502 9.0172 9.54064 8.85723C9.63625 8.69725 9.76299 8.55809 9.91335 8.44797C9.99695 8.389 10.0877 8.34084 10.1833 8.30464C10.2753 8.26826 10.3687 8.23579 10.4633 8.2073L10.5987 8.1673L9.74468 5.0993C9.69135 5.11197 9.63868 5.1233 9.58868 5.13397C9.41535 5.16997 9.17935 5.21397 8.99068 5.18997C8.61771 5.14391 8.2774 4.95426 8.04202 4.6613C7.94508 4.53454 7.87025 4.39232 7.82068 4.24064C7.76619 4.0783 7.71705 3.91421 7.67335 3.74864L7.66468 3.71797C7.61135 3.52864 7.56535 3.36197 7.53668 3.22064C7.50072 3.0651 7.4917 2.90455 7.51002 2.74597C7.53593 2.56134 7.59854 2.38376 7.69414 2.2237C7.78974 2.06364 7.91641 1.92433 8.06668 1.81397C8.19707 1.72203 8.34134 1.65159 8.49402 1.6053C8.63402 1.5593 8.80535 1.5153 9.00335 1.46397L10.8407 0.990637C11.0387 0.939303 11.21 0.894637 11.3547 0.867303ZM4.07468 4.2273L6.06468 4.4673C6.28002 4.4933 6.46468 4.5153 6.61602 4.5433C6.77468 4.57264 6.93068 4.61397 7.08068 4.69397C7.41935 4.87397 7.67868 5.17864 7.78735 5.54997C7.83602 5.7173 7.83868 5.87997 7.82868 6.0353C7.81868 6.18197 7.79468 6.35597 7.76668 6.5533L7.76202 6.58664C7.73468 6.78397 7.71002 6.95797 7.67935 7.1013C7.64904 7.26196 7.59083 7.41607 7.50735 7.55664C7.30402 7.8833 6.97602 8.11264 6.60402 8.2053C6.41802 8.25197 6.17202 8.23864 5.98535 8.2253C5.92039 8.22004 5.8555 8.21404 5.79068 8.2073L5.33935 11.4226C5.39935 11.4306 5.45735 11.44 5.51268 11.4493C5.69668 11.4793 5.94002 11.5253 6.10935 11.616C6.44868 11.796 6.70802 12.1006 6.81602 12.4726C6.86468 12.6393 6.86802 12.802 6.85735 12.9573C6.84802 13.104 6.82402 13.278 6.79602 13.4753L6.79135 13.5086C6.76335 13.706 6.73935 13.88 6.70802 14.0233C6.67468 14.1766 6.62802 14.3313 6.53602 14.4786C6.33268 14.8053 6.00468 15.0346 5.63335 15.1273C5.47389 15.1639 5.30976 15.1758 5.14668 15.1626C4.99268 15.154 4.80802 15.1313 4.59202 15.1053L2.60202 14.8666C2.38668 14.8406 2.20202 14.8186 2.05068 14.7906C1.77962 14.7526 1.52519 14.6375 1.31765 14.4591C1.11011 14.2806 0.958212 14.0463 0.880015 13.784C0.837318 13.626 0.823096 13.4616 0.838015 13.2986C0.848015 13.152 0.872015 12.978 0.900015 12.7806L0.904682 12.7473C0.932015 12.55 0.956682 12.376 0.987349 12.2326C1.02068 12.0793 1.06802 11.9246 1.15935 11.7773C1.36268 11.4506 1.69068 11.2213 2.06268 11.1286C2.24868 11.082 2.49468 11.0953 2.68202 11.1086L2.87602 11.1266L3.32735 7.9113C3.26942 7.90342 3.21163 7.89453 3.15402 7.88464C2.97002 7.85464 2.72668 7.80864 2.55735 7.71797C2.38834 7.62958 2.23874 7.50824 2.11737 7.36111C1.996 7.21398 1.90533 7.04404 1.85068 6.8613C1.80829 6.70347 1.79429 6.53937 1.80935 6.37664C1.81868 6.22997 1.84268 6.05597 1.87068 5.85864L1.87535 5.8253C1.90335 5.62797 1.92735 5.45397 1.95868 5.31064C1.99202 5.1573 2.03868 5.00264 2.13068 4.8553C2.33402 4.52864 2.66202 4.2993 3.03335 4.20664C3.19802 4.1653 3.35935 4.16264 3.52002 4.1713C3.67402 4.17997 3.85868 4.20264 4.07468 4.22864V4.2273ZM3.46402 5.1693C3.40136 5.16235 3.33802 5.1646 3.27602 5.17597C3.15433 5.20398 3.04823 5.27805 2.98002 5.38264C2.95797 5.42595 2.94311 5.47256 2.93602 5.52064C2.91402 5.62397 2.89402 5.7613 2.86335 5.98064C2.83971 6.13357 2.82081 6.2872 2.80668 6.4413C2.80042 6.48788 2.80177 6.53516 2.81068 6.5813C2.83868 6.6773 2.91068 6.7713 3.02402 6.83264C3.02402 6.83264 3.04335 6.84064 3.09335 6.8533C3.15068 6.86797 3.22468 6.88264 3.31668 6.89797C3.50002 6.92797 3.72135 6.95464 3.95268 6.98264C4.01863 6.99059 4.08234 7.01161 4.14007 7.04447C4.19781 7.07732 4.24842 7.12135 4.28895 7.17398C4.32947 7.22661 4.35911 7.28679 4.37612 7.351C4.39313 7.41522 4.39717 7.48218 4.38802 7.54797L3.79868 11.7473C3.78043 11.8768 3.71212 11.9941 3.60843 12.0738C3.50474 12.1536 3.37391 12.1896 3.24402 12.174C3.03184 12.1467 2.81913 12.1238 2.60602 12.1053C2.52995 12.099 2.45367 12.0956 2.37735 12.0953C2.32402 12.0953 2.30202 12.0993 2.30202 12.0986C2.18147 12.1268 2.07642 12.2004 2.00868 12.304C1.98681 12.3475 1.97218 12.3944 1.96535 12.4426C1.94268 12.546 1.92335 12.6833 1.89202 12.9026C1.86202 13.1213 1.84268 13.2586 1.83602 13.3633C1.82935 13.4633 1.83735 13.4946 1.83935 13.5033C1.85675 13.5578 1.88488 13.6084 1.92209 13.6519C1.9593 13.6954 2.00483 13.731 2.05602 13.7566C2.11212 13.7819 2.17165 13.7988 2.23268 13.8066C2.34868 13.828 2.50202 13.8466 2.73668 13.8753L4.69668 14.1106C4.93135 14.1393 5.08468 14.1573 5.20335 14.164C5.26579 14.1709 5.32889 14.1686 5.39068 14.1573C5.51237 14.1293 5.61846 14.0552 5.68668 13.9506C5.70871 13.9073 5.72357 13.8607 5.73068 13.8126C5.75268 13.7093 5.77268 13.572 5.80335 13.3526C5.83402 13.134 5.85268 12.9966 5.86002 12.892C5.86628 12.8454 5.86493 12.7981 5.85602 12.752C5.83891 12.6981 5.81132 12.6482 5.77482 12.605C5.73832 12.5619 5.69363 12.5264 5.64335 12.5006C5.64335 12.5006 5.62335 12.4926 5.57335 12.48C5.49952 12.4623 5.42501 12.4477 5.35002 12.436C5.13863 12.4031 4.92658 12.3747 4.71402 12.3506C4.648 12.3427 4.58424 12.3216 4.52645 12.2887C4.46867 12.2559 4.41802 12.2118 4.37749 12.1591C4.33695 12.1064 4.30733 12.0461 4.29036 11.9818C4.2734 11.9175 4.26943 11.8505 4.27868 11.7846L4.86802 7.58664C4.88627 7.45709 4.95457 7.33986 5.05827 7.2601C5.16196 7.18033 5.29279 7.14439 5.42268 7.15997C5.65402 7.18664 5.87468 7.2133 6.06135 7.22797C6.15335 7.23464 6.23002 7.23797 6.28935 7.23797C6.34268 7.23797 6.36468 7.23397 6.36468 7.23464C6.48523 7.20646 6.59028 7.13292 6.65802 7.0293C6.67988 6.98573 6.69451 6.9389 6.70135 6.89064C6.72402 6.7873 6.74335 6.64997 6.77468 6.43064C6.80468 6.21197 6.82402 6.07464 6.83068 5.96997C6.83713 5.92343 6.83601 5.87615 6.82735 5.82997C6.80995 5.77543 6.78182 5.72492 6.74461 5.68142C6.7074 5.63791 6.66186 5.60228 6.61068 5.57664C6.55457 5.55139 6.49504 5.53454 6.43402 5.52664C6.31802 5.5053 6.16468 5.48664 5.93002 5.45797L3.97002 5.22264C3.80166 5.20009 3.63337 5.18231 3.46402 5.1693Z" fill="#D9D9D9"/>
</g>
<defs>
<clipPath id="clip0_74_163">
<rect width="16" height="16" fill="white"/>
</clipPath>
</defs>
</svg>
